<svg version="1.1" xmlns="http://www.w3.org/2000/svg" xmlns:xlink="http://www.w3.org/1999/xlink" width="56.34606" height="57.147" viewBox="0,0,56.34606,57.147"><defs><linearGradient x1="726.2773" y1="357.3945" x2="782.6221" y2="357.3945" gradientUnits="userSpaceOnUse" id="color-1"><stop offset="0" stop-color="#6d6e71"/><stop offset="1" stop-color="#414042"/></linearGradient></defs><g transform="translate(-726.27597,-328.82)"><g stroke="none" stroke-miterlimit="10"><path d="M779.989,371.841c3.193,3.306 3.104,8.593 -0.203,11.787c-1.563,1.508 -3.619,2.339 -5.792,2.339v0c-2.281,0 -4.41,-0.903 -5.994,-2.545l-13.64,-14.122l-13.844,13.92c-1.576,1.586 -3.676,2.459 -5.91,2.459c-2.216,0 -4.305,-0.862 -5.877,-2.427c-3.259,-3.241 -3.272,-8.529 -0.031,-11.787l14.08,-14.157l-13.872,-14.362c-3.192,-3.307 -3.101,-8.593 0.205,-11.787c1.562,-1.507 3.619,-2.339 5.79,-2.339c2.282,0 4.411,0.904 5.997,2.545l13.64,14.12l13.843,-13.918c1.577,-1.585 3.677,-2.458 5.911,-2.458c2.218,0 4.306,0.861 5.877,2.425c3.258,3.241 3.273,8.529 0.031,11.788l-14.079,14.157z" fill="url(#color-1)"/><path d="M778.753,373.037c2.54,2.628 2.467,6.814 -0.161,9.354c-2.626,2.537 -6.816,2.464 -9.353,-0.163l-14.859,-15.384l-15.082,15.165c-2.576,2.59 -6.763,2.601 -9.355,0.025c-2.589,-2.577 -2.6,-6.763 -0.024,-9.355l15.269,-15.353l-15.042,-15.575c-2.539,-2.628 -2.466,-6.815 0.162,-9.354c2.627,-2.538 6.814,-2.465 9.353,0.163l14.858,15.383l15.083,-15.164c2.577,-2.591 6.765,-2.603 9.355,-0.027c2.591,2.577 2.602,6.765 0.025,9.356l-15.27,15.353z" fill="#ffffff"/></g></g></svg>