<svg version="1.1" xmlns="http://www.w3.org/2000/svg" xmlns:xlink="http://www.w3.org/1999/xlink" width="1591.92382" height="1102.38529" viewBox="0,0,1591.92382,1102.38529"><g transform="translate(47.82789,305.90706)"><g stroke-miterlimit="10"><path d="M-44.07789,792.72823v-101.69097h1560.61039v101.69097z" fill="#ffffff" stroke="#000000" stroke-width="7.5" stroke-linecap="butt"/><path d="M-23.8262,692.93268v-998.83974h1540.61821v998.83974z" fill="#00e6ff" stroke="none" stroke-width="0" stroke-linecap="butt"/><path d="M240.86055,-98.05099c3.5255,5.28826 -1.76276,8.81376 -1.76276,8.81376l-6.10143,3.65416c-0.72892,2.37011 -0.9168,4.98054 -2.18672,7.11033c-1.22751,2.05868 -3.77726,3.07554 -5.08454,5.08454c-1.79985,2.76597 -1.20908,6.35856 -1.27435,9.77754c4.78594,-1.13085 9.55097,-2.34642 14.19621,-3.89482l4.25205,-2.19744c0,0 5.68471,-2.84234 8.52704,2.84234c2.84237,5.68471 -2.84234,8.52704 -2.84234,8.52704l-5.91704,2.88711c-7.40905,2.4697 -15.13676,4.09215 -22.76088,5.87647c3.93196,1.7951 8.07536,3.43945 12.59178,4.94493l7.62683,2.54227c0,0 6.02954,2.00985 4.01969,8.03938c-2.00985,6.02954 -8.03938,4.01969 -8.03938,4.01969l-7.62683,-2.54227c-5.17193,-1.72399 -9.92929,-3.62965 -14.45888,-5.72744c-0.01225,5.83203 -0.05603,11.66492 -0.05603,17.49382v2.54227c0,0 0,6.35569 -6.35569,6.35569c-6.35569,0 -6.35569,-6.35569 -6.35569,-6.35569v-2.54227c0,-3.73188 -0.0214,-7.46608 -0.04065,-11.20078c-1.31954,0.87172 -2.61285,1.60948 -3.85416,2.18394c-4.34406,2.01036 -9.41826,1.71647 -14.12739,2.57468c0,0 -6.26922,1.04485 -7.31408,-5.22435c-0.21429,-1.28586 -0.12094,-2.35188 0.16294,-3.23425c-0.90475,-0.60661 -1.73579,-1.57377 -2.33709,-3.07702c-2.36042,-5.9011 3.54068,-8.26153 3.54068,-8.26153c4.05218,-1.61903 7.96105,-3.59284 11.89411,-5.50128c-1.77301,-1.17247 -3.56777,-2.38028 -5.39694,-3.62414c-8.20359,-5.57843 -16.70244,-8.98894 -23.88451,-16.07119c0,0 -4.49416,-4.49414 0,-8.98829c4.49416,-4.49414 8.98829,0 8.98829,0c6.42901,6.54397 14.40033,9.37126 21.87642,14.4361c3.71129,2.51428 7.23661,4.86593 10.71289,7.06508c-1.44521,-3.35001 -4.91577,-5.49718 -6.89808,-8.58112c-4.20126,-6.53606 -6.97254,-13.88766 -10.44735,-20.83722c0,0 -2.84234,-5.68471 2.84234,-8.52704c5.68471,-2.84234 8.52704,2.84234 8.52704,2.84234c3.3046,6.60923 5.98027,13.56942 9.89085,19.83917c1.96518,3.15072 4.95238,5.71826 6.9187,8.83171c0.71305,-4.72685 0.28331,-9.80397 2.60657,-13.91626c1.17898,-2.08685 3.84616,-3.03238 5.08454,-5.08454c1.48863,-2.46684 1.93188,-5.42887 2.89784,-8.14331l9.15221,-6.51493c0,0 5.28826,-3.5255 8.81376,1.76276z" fill="#ffffff" stroke="none" stroke-width="0.5" stroke-linecap="butt"/><path d="M1145.70647,-43.68001l-2.54227,94.06415" fill="none" stroke="#ffffff" stroke-width="5" stroke-linecap="round"/><path d="M1186.38286,4.62321l-83.89505,-2.54227" fill="none" stroke="#ffffff" stroke-width="5" stroke-linecap="round"/><path d="M1115.19918,-30.96864l58.47231,73.72595" fill="none" stroke="#ffffff" stroke-width="5" stroke-linecap="round"/><path d="M1110.11463,35.1305l66.09913,-63.55686" fill="none" stroke="#ffffff" stroke-width="5" stroke-linecap="round"/><path d="M197.43817,281.7311v76.26823" fill="none" stroke="#ffffff" stroke-width="5" stroke-linecap="round"/><path d="M233.03001,332.57659l-76.26823,-2.54227" fill="none" stroke="#ffffff" stroke-width="5" stroke-linecap="round"/><path d="M174.5577,296.98474l45.76093,61.01458" fill="none" stroke="#ffffff" stroke-width="5" stroke-linecap="round"/><path d="M225.40319,299.52703l-55.93003,43.21866" fill="none" stroke="#ffffff" stroke-width="5" stroke-linecap="round"/><path d="M1166.04466,507.99351l-86.43732,78.8105" fill="none" stroke="#ffffff" stroke-width="5" stroke-linecap="round"/><path d="M1077.06507,513.07806l73.72595,71.18368" fill="none" stroke="#ffffff" stroke-width="5" stroke-linecap="round"/><path d="M1115.19918,596.97312l2.54227,-104.23325" fill="none" stroke="#ffffff" stroke-width="5" stroke-linecap="round"/><path d="M1066.89597,553.75444l109.31779,-15.25364" fill="none" stroke="#ffffff" stroke-width="5" stroke-linecap="round"/><path d="M586.40613,246.13926l48.30322,-119.48689" fill="none" stroke="#ffffff" stroke-width="5" stroke-linecap="round"/><path d="M566.06794,159.70193l86.43732,40.67639" fill="none" stroke="#ffffff" stroke-width="5" stroke-linecap="round"/><path d="M634.70935,233.42789l-40.67639,-94.06415" fill="none" stroke="#ffffff" stroke-width="5" stroke-linecap="round"/><path d="M670.30118,129.19464l-43.21866,53.38776" fill="none" stroke="#ffffff" stroke-width="5" stroke-linecap="round"/><path d="M614.37114,195.29378l-45.76093,25.42274" fill="none" stroke="#ffffff" stroke-width="5" stroke-linecap="round"/><path d="M811.36586,182.6229c-0.27093,-5.19044 5.14078,-6.27276 5.14078,-6.27276c3.58831,-0.63078 7.4225,-0.44256 10.76498,-1.89234c2.14664,-0.93108 2.96407,-3.76435 4.98715,-4.93997c6.77096,-3.9346 16.22696,-3.58267 22.82932,-7.59555c2.32681,-1.41421 3.46199,-4.54775 5.99372,-5.54996c2.80487,-1.11034 6.06945,0.11803 9.04096,-0.40173c2.8087,-0.4913 5.29642,-2.59831 8.14773,-2.60486c5.22273,-0.01202 10.52947,0.82588 15.45924,2.55054c3.16353,1.10676 5.28205,4.19137 8.25192,5.74468c2.52967,1.32305 5.65974,1.30965 8.09236,2.80365c4.28149,2.62945 15.13452,13.10083 17.44297,17.52867c1.68291,3.22801 1.12482,7.31176 2.75034,10.56905c1.78976,3.58639 5.17267,6.15874 7.2945,9.55921c4.301,6.89279 6.85613,14.43963 9.78679,21.94131c1.84831,2.05114 4.34699,3.66578 5.54493,6.15343c0.74549,1.54812 -1.41076,4.04293 -0.09988,5.1538c1.01828,0.86292 1.59138,-2.26947 2.77463,-2.88711c2.37563,-1.24005 5.08454,-1.69485 7.62683,-2.54227c6.3698,-2.12326 15.8313,-3.52862 21.54893,-7.00377c2.32681,-1.41421 3.41008,-4.69039 5.99372,-5.54996c3.82264,-1.27177 8.06995,-0.0465 12.0771,-0.46213c19.49314,-2.02192 46.91335,-8.23496 64.88019,3.46982c2.94649,1.91954 4.36328,5.75841 7.41688,7.50259c3.03397,1.73297 7.07088,0.92694 10.1691,2.54227c2.62769,1.37 4.33133,4.04639 6.44725,6.12111c8.70513,8.53553 14.21063,13.93525 14.49084,26.35655c3.13958,9.41877 6.87848,31.44371 -2.55738,39.22363c-2.73369,2.25393 -7.07838,0.5306 -10.56651,1.15205c-6.15383,1.09638 -12.32286,2.70777 -18.57249,2.58989c-2.69062,-0.05074 -5.55441,-1.32643 -8.06532,-0.35828c-9.15185,3.52875 -6.34491,8.94189 -13.60549,14.38632c-2.54156,1.90581 -6.03643,2.01008 -8.94652,3.28408c-8.76533,3.83739 -16.84023,8.11074 -26.22366,10.43998c-3.8515,0.95605 -7.9789,0.83824 -11.69357,2.23435c-3.12331,1.17385 -5.2532,4.43855 -8.46519,5.34201c-3.64392,1.02494 -7.59278,-0.19789 -11.35356,0.23246c-14.08168,1.61142 -27.04845,2.57322 -41.30265,2.57322c-8.58292,-0.08148 -18.62238,-1.45169 -26.22185,-6.03376c-0.53133,-0.32037 -10.37571,-10.0554 -11.32187,-11.08142c-1.08082,-1.17204 -1.47315,-3.33137 -3.02261,-3.70681c-5.82638,-1.41172 -19.6728,-0.55955 -25.28268,2.3798c-2.70643,1.41805 -4.87339,3.76005 -7.62683,5.08454c-9.09957,4.37721 -15.6826,1.21048 -24.65477,3.10648c-12.03671,2.5436 -22.01999,6.9307 -34.84418,5.11899c-12.97209,-1.83257 -18.14508,-8.11372 -26.59806,-17.06756c-2.20473,-2.33538 -5.25999,-4.16834 -6.46228,-7.14649c-1.25667,-3.11278 -0.32253,-6.70604 -0.4838,-10.05904c0,-5.82809 2.98875,-22.0421 -1.3426,-26.79105c-4.87128,-5.34096 -16.43596,-12.51605 -23.05911,-15.80275c-7.92017,-3.9303 -10.7287,-0.83018 -17.51217,-9.47836c-11.90997,-15.18394 0.92165,-34.01652 14.4209,-42.31389c2.4087,-1.48052 5.56364,-1.36284 8.01848,-2.76553c3.6789,-2.10213 6.47865,-5.54503 10.1691,-7.62683c4.71874,-2.66183 10.57474,-2.72235 15.41099,-5.16422c8.64234,-4.36366 13.03825,-8.44901 23.24063,-7.7893c1.29997,-1.29997 2.27358,-3.11039 3.67181,-4.25671z" fill="#ffffff" stroke="none" stroke-width="0.5" stroke-linecap="butt"/><path d="M443.55188,-52.43399c1.47152,-11.08683 3.13335,-22.48067 11.01619,-31.08934c3.04119,-3.32123 7.0857,-5.5646 10.49909,-8.50198c5.4561,-4.6952 10.6747,-11.16814 17.80624,-13.66772c2.65896,-0.93195 5.67156,0.27405 8.45052,-0.19065c6.16433,-1.0308 11.8533,-4.21456 18.03744,-5.11899c2.43588,-0.35625 4.95715,0.44006 7.38531,0.03445c6.75381,-1.12824 20.59453,-6.54178 27.23991,-1.67513c3.85821,2.82548 4.73724,8.31067 7.24027,12.38547c1.67752,2.73096 3.87161,5.15385 5.29686,8.02454c2.89112,5.82313 2.72443,12.21489 6.8919,17.25869c16.21244,-1.60059 29.09399,-12.50669 44.47671,-15.58262c3.30234,-0.66033 6.83322,0.8209 10.10315,0.01521c8.6556,-2.13274 9.44506,-7.93189 19.01225,-7.79218c12.13204,0.1772 22.64252,8.35956 26.66508,19.76288c0.93729,2.65708 -0.28154,5.6728 0.19065,8.45052c0.44909,2.64191 2.24015,4.96412 2.54227,7.62683c0.18994,1.67386 -1.84979,3.4115 -1.11761,4.92866c0.50546,1.04739 2.32598,-0.00392 3.48889,-0.01511c7.25334,-0.06981 15.74776,-1.18514 22.88047,0c9.01841,1.49847 18.84674,6.5011 27.0184,10.1842c1.04996,9.92746 1.19967,19.17437 1.19967,29.13898c0,11.56437 2.17631,20.79448 -6.94608,29.9169c-2.88863,2.88863 -6.35304,5.5448 -10.2792,6.67337c-4.38036,1.25914 -9.15907,-0.42906 -13.67161,0.21129c-7.00669,0.99426 -13.55022,4.55698 -20.60498,5.11617c-7.2438,0.57417 -14.88296,-2.43133 -21.79868,-0.20081c-3.66947,1.18351 -6.36499,4.39706 -9.81051,6.12741c-9.74304,4.89304 -20.46427,5.59638 -30.607,9.04854c-18.84557,6.41428 -34.27166,11.06652 -53.60004,4.44362c-2.50287,-2.51851 -4.42834,-5.78939 -7.50858,-7.55552c-3.16391,-1.81409 -7.03096,-1.94604 -10.57367,-2.81229c-12.26253,-2.99846 -24.67801,-5.44845 -37.01531,-8.11542c-5.69108,-1.23025 -11.41967,-4.69495 -17.11579,-3.48818c-6.13918,1.30063 -12.26126,3.37423 -17.61082,6.65501c-2.35402,1.44368 -3.48703,4.69983 -6.09322,5.61273c-5.71366,2.00141 -15.99591,0.20204 -21.02725,-3.00769c-14.74044,-9.40362 -20.91341,-25.10483 -18.18588,-42.01637c0.4267,-2.64559 2.10173,-4.9835 2.54227,-7.62683c1.01274,-6.07652 0.07698,-13.15904 3.76498,-18.09344c2.11675,-2.83214 5.76552,-4.09454 8.64828,-6.14181c3.60458,-3.60458 7.2702,-6.42967 11.16935,-8.92343z" fill="#ffffff" stroke="none" stroke-width="0.5" stroke-linecap="butt"/><text transform="translate(388.10874,671.9702) scale(1.822,1.822)" font-size="40" xml:space="preserve" fill="#ffffff" stroke="none" stroke-width="1" stroke-linecap="butt" font-family="Handwriting" font-weight="normal" text-anchor="start"><tspan x="0" dy="0">CARREGANDO</tspan></text><text transform="translate(154.21951,500.59725) scale(1.57701,1.57701)" font-size="40" xml:space="preserve" fill="#ffffff" stroke="none" stroke-width="1" stroke-linecap="butt" font-family="Handwriting" font-weight="normal" text-anchor="start"><tspan x="0" dy="0">INDO PARA</tspan></text><text transform="translate(512.68018,502.27339) scale(1.54657,1.54657)" font-size="40" xml:space="preserve" fill="#ffffff" stroke="none" stroke-width="1" stroke-linecap="butt" font-family="Handwriting" font-weight="normal" text-anchor="start"><tspan x="0" dy="0">: ÁREA CONGELANTE</tspan></text><path d="M1245.79528,99.03431c-0.27093,-5.19044 5.14078,-6.27275 5.14078,-6.27275c3.58831,-0.63079 7.4225,-0.44255 10.76499,-1.89235c2.14664,-0.93108 2.96407,-3.76435 4.98715,-4.93997c6.77096,-3.9346 16.22696,-3.58267 22.82932,-7.59555c2.32682,-1.41422 3.46199,-4.54775 5.99372,-5.54996c2.80486,-1.11034 6.06945,0.11803 9.04096,-0.40173c2.8087,-0.4913 5.29642,-2.5983 8.14774,-2.60486c5.22273,-0.01202 10.52947,0.82588 15.45924,2.55053c3.16352,1.10675 5.28205,4.19137 8.25192,5.74468c2.52967,1.32305 5.65974,1.30965 8.09236,2.80365c4.28149,2.62945 15.13451,13.10083 17.44297,17.52867c1.68292,3.228 1.12482,7.31176 2.75033,10.56905c1.78976,3.58639 5.17267,6.15875 7.29451,9.55921c4.301,6.8928 6.85613,14.43963 9.78679,21.94131c1.84831,2.05113 4.34699,3.66578 5.54493,6.15342c0.74549,1.54811 -1.41076,4.04293 -0.09989,5.1538c1.01828,0.86292 1.59138,-2.26946 2.77463,-2.88711c2.37563,-1.24005 5.08455,-1.69485 7.62683,-2.54227c6.36979,-2.12326 15.8313,-3.52863 21.54893,-7.00377c2.32682,-1.41422 3.41009,-4.69039 5.99373,-5.54996c3.82264,-1.27177 8.06994,-0.0465 12.0771,-0.46213c19.49314,-2.02192 46.91335,-8.23496 64.88019,3.46982c2.94649,1.91954 4.36327,5.75841 7.41688,7.50259c3.03397,1.73297 7.07088,0.92694 10.1691,2.54227c2.62769,1.37 4.33133,4.04638 6.44726,6.12111c8.70513,8.53553 14.21063,13.93525 14.49084,26.35655c3.13958,9.41878 6.87848,31.44371 -2.55738,39.22362c-2.73368,2.25393 -7.07838,0.5306 -10.56651,1.15206c-6.15383,1.09638 -12.32286,2.70777 -18.57249,2.58989c-2.69062,-0.05074 -5.55441,-1.32644 -8.06531,-0.35828c-9.15186,3.52876 -6.34491,8.94189 -13.6055,14.38632c-2.54156,1.90581 -6.03643,2.01008 -8.94652,3.28408c-8.76533,3.83739 -16.84023,8.11074 -26.22366,10.43998c-3.8515,0.95605 -7.97889,0.83823 -11.69357,2.23435c-3.12331,1.17385 -5.2532,4.43855 -8.46519,5.342c-3.64392,1.02494 -7.59278,-0.19789 -11.35357,0.23246c-14.08168,1.61142 -27.04845,2.57322 -41.30265,2.57322c-8.58292,-0.08149 -18.62238,-1.45168 -26.22185,-6.03375c-0.53133,-0.32038 -10.37571,-10.0554 -11.32187,-11.08142c-1.08083,-1.17204 -1.47315,-3.33137 -3.02262,-3.70681c-5.82638,-1.41172 -19.6728,-0.55955 -25.28268,2.3798c-2.70643,1.41805 -4.87339,3.76005 -7.62683,5.08454c-9.09956,4.3772 -15.6826,1.21048 -24.65477,3.10648c-12.0367,2.5436 -22.01998,6.9307 -34.84418,5.11899c-12.97208,-1.83257 -18.14508,-8.11372 -26.59806,-17.06755c-2.20474,-2.33538 -5.25999,-4.16833 -6.46228,-7.14648c-1.25667,-3.11278 -0.32254,-6.70605 -0.4838,-10.05905c0,-5.82809 2.98874,-22.0421 -1.3426,-26.79104c-4.87127,-5.34096 -16.43596,-12.51605 -23.05911,-15.80275c-7.92017,-3.9303 -10.7287,-0.83019 -17.51217,-9.47837c-11.90998,-15.18394 0.92165,-34.01652 14.4209,-42.31389c2.4087,-1.48052 5.56364,-1.36283 8.01848,-2.76553c3.6789,-2.10213 6.47865,-5.54503 10.1691,-7.62683c4.71875,-2.66183 10.57475,-2.72234 15.41099,-5.16422c8.64234,-4.36366 13.03825,-8.44901 23.24063,-7.7893c1.29997,-1.29996 2.27358,-3.1104 3.67181,-4.25672z" fill="#ffffff" stroke="none" stroke-width="0.5" stroke-linecap="butt"/></g></g></svg>