<svg version="1.1" xmlns="http://www.w3.org/2000/svg" xmlns:xlink="http://www.w3.org/1999/xlink" width="75.40833" height="76" viewBox="0,0,75.40833,76"><g transform="translate(-717.29583,-322)"><g stroke="#000000" stroke-width="5" stroke-miterlimit="10"><path d="M719.79583,395.5v-71h70.40833v71z" fill="#009cff"/><path d="M768.91228,356.0943c0,4.55635 -2.35051,8.25 -5.25,8.25c-2.89949,0 -5.25,-3.69365 -5.25,-8.25c0,-4.55635 2.35051,-8.25 5.25,-8.25c2.89949,0 5.25,3.69365 5.25,8.25z" fill="#000000"/><path d="M751.41228,355.5943c0,4.55635 -2.3505,8.25 -5.25,8.25c-2.8995,0 -5.25,-3.69365 -5.25,-8.25c0,-4.55635 2.3505,-8.25 5.25,-8.25c2.8995,0 5.25,3.69365 5.25,8.25z" fill="#000000"/></g></g></svg>