<svg version="1.1" xmlns="http://www.w3.org/2000/svg" xmlns:xlink="http://www.w3.org/1999/xlink" width="196.54255" height="177" viewBox="0,0,196.54255,177"><g transform="translate(-656.72873,-271.5)"><g stroke-miterlimit="10"><path d="M661.72873,443.5v-167h186.54255v167z" fill="#ffc500" stroke="#c59700" stroke-width="10"/><text transform="translate(672.43972,365.46399) scale(0.42552,0.45533)" font-size="40" xml:space="preserve" fill="#ffffff" stroke="none" stroke-width="1" font-family="Handwriting" font-weight="normal" text-anchor="start"><tspan x="0" dy="0">MALAMÉ-AMARELO</tspan></text><path d="M740.15489,323.846c0,4.23818 -3.11612,7.6739 -6.96005,7.6739c-3.84393,0 -6.96005,-3.43572 -6.96005,-7.6739c0,-4.23818 3.11612,-7.6739 6.96005,-7.6739c3.84393,0 6.96005,3.43572 6.96005,7.6739z" fill="#ffffff" stroke="none" stroke-width="0"/><path d="M788.92893,324.0956c0,4.10033 -3.32397,7.42431 -7.42431,7.42431c-4.10033,0 -7.42431,-3.32397 -7.42431,-7.42431c0,-4.10033 3.32397,-7.42431 7.42431,-7.42431c4.10033,0 7.42431,3.32397 7.42431,7.42431z" fill="#ffffff" stroke="none" stroke-width="0"/></g></g></svg>