<svg version="1.1" xmlns="http://www.w3.org/2000/svg" xmlns:xlink="http://www.w3.org/1999/xlink" width="196.54255" height="177" viewBox="0,0,196.54255,177"><g transform="translate(-656.72873,-271.5)"><g stroke-miterlimit="10"><path d="M661.72873,443.5v-167h186.54255v167z" fill="#00c1ff" stroke="#0041e5" stroke-width="10"/><text transform="translate(670.98319,372.27615) scale(0.85325,0.91302)" font-size="40" xml:space="preserve" fill="#ffffff" stroke="none" stroke-width="1" font-family="Handwriting" font-weight="normal" text-anchor="start"><tspan x="0" dy="0">TUBARÃO</tspan></text><path d="M739.62378,309.082c0,2.5 -2.5,2.5 -2.5,2.5l-1.23867,-0.01241c-3.68452,-0.39345 -7.69471,-1.32056 -10.92087,-3.30425c-2.87604,-1.7684 -5.18912,-5.10253 -8.62245,-6.0095c-5.2175,-1.3783 -8.4023,1.49557 -12.70701,3.76241c-2.8914,1.5226 -5.62504,2.9948 -8.35021,4.81391c0,0 -2.08013,1.38675 -3.46688,-0.69338c-1.38675,-2.08013 0.69338,-3.46688 0.69338,-3.46688c6.98259,-4.64944 16.42014,-11.58051 25.13845,-9.24202c4.07195,1.09221 6.45367,4.40644 9.85582,6.52932c2.56543,1.60079 5.9352,2.36562 8.87728,2.6352l0.74115,-0.01241c0,0 2.5,0 2.5,2.5z" fill="#8f97ad" stroke="none" stroke-width="0.5"/><path d="M758.43202,414.67212c0,2.5 -2.5,2.5 -2.5,2.5h-1.64985c-5.28668,-0.00346 -11.16062,-0.11038 -15.86158,-3.03108c-0.75987,-0.47211 -3.2086,-3.78969 -4.81148,-3.90754c-0.81297,-0.05977 -1.52349,0.58046 -2.28618,0.8682c-1.02539,0.38686 -7.88028,2.95824 -8.02196,3.0019c-8.12802,2.50418 -17.32836,3.75844 -25.73261,5.02067c0,0 -2.47234,0.37085 -2.84319,-2.10149c-0.37085,-2.47234 2.10149,-2.84319 2.10149,-2.84319c8.17887,-1.22524 17.17951,-2.42909 25.08264,-4.87841c3.1039,-0.96195 8.73843,-4.43227 12.12976,-4.04916c2.80611,0.317 4.6934,3.14234 7.06741,4.67166c3.73507,2.40611 8.9965,2.25132 13.1757,2.24843h1.64985c0,0 2.5,0 2.5,2.5z" fill="#8f97ad" stroke="none" stroke-width="0.5"/><path d="M789.11915,307.76212c0,2.5 -2.5,2.5 -2.5,2.5h-1.31988c-3.30576,0 -6.93466,0.43867 -10.20453,-0.01873c-5.53881,-0.77479 -10.58047,-2.65596 -16.193,-2.62102c0,0 -2.5,0 -2.5,-2.5c0,-2.5 2.5,-2.5 2.5,-2.5c5.87607,0.03125 11.02988,1.8139 16.80391,2.65848c3.05631,0.44706 6.49714,-0.01873 9.59362,-0.01873h1.31988c0,0 2.5,0 2.5,2.5z" fill="#8f97ad" stroke="none" stroke-width="0.5"/></g></g></svg>