<svg version="1.1" xmlns="http://www.w3.org/2000/svg" xmlns:xlink="http://www.w3.org/1999/xlink" width="1599" height="923" viewBox="0,0,1599,923"><g transform="translate(60.17543,49.3114)"><g stroke-miterlimit="10"><path d="M-59.17543,872.6886v-921h1597v921z" fill="#0eb3ff" stroke="#000000" stroke-width="2"/><path d="M1321.08214,126.04895c0,24.46306 -17.47837,44.29429 -39.03904,44.29429c-21.56067,0 -39.03904,-19.83123 -39.03904,-44.29429c0,-24.46306 17.47837,-44.29429 39.03904,-44.29429c21.56067,0 39.03904,19.83123 39.03904,44.29429z" fill="#bfebff" stroke="none" stroke-width="0"/><path d="M407.16324,353.27117c0,24.46307 -17.47837,44.2943 -39.03904,44.2943c-21.56066,0 -39.03904,-19.83123 -39.03904,-44.2943c0,-24.46306 17.47838,-44.29429 39.03904,-44.29429c21.56066,0 39.03904,19.83123 39.03904,44.29429z" fill="#bfebff" stroke="none" stroke-width="0"/><path d="M686.93801,544.45736c0,24.46307 -17.47837,44.2943 -39.03904,44.2943c-21.56066,0 -39.03904,-19.83123 -39.03904,-44.2943c0,-24.46307 17.47838,-44.2943 39.03904,-44.2943c21.56066,0 39.03904,19.83123 39.03904,44.2943z" fill="#bfebff" stroke="none" stroke-width="0"/><path d="M604.85092,108.01591c0,24.46307 -17.47838,44.2943 -39.03904,44.2943c-21.56066,0 -39.03904,-19.83123 -39.03904,-44.2943c0,-24.46306 17.47838,-44.2943 39.03904,-44.2943c21.56066,0 39.03904,19.83123 39.03904,44.2943z" fill="#bfebff" stroke="none" stroke-width="0"/><path d="M1151.89297,303.7066c0,24.46306 -17.47837,44.29429 -39.03904,44.29429c-21.56066,0 -39.03904,-19.83123 -39.03904,-44.29429c0,-24.46307 17.47838,-44.2943 39.03904,-44.2943c21.56066,0 39.03904,19.83123 39.03904,44.2943z" fill="#bfebff" stroke="none" stroke-width="0"/><path d="M1439.17525,428.82672c0,24.46306 -17.47837,44.29429 -39.03904,44.29429c-21.56066,0 -39.03904,-19.83123 -39.03904,-44.29429c0,-24.46306 17.47838,-44.29429 39.03904,-44.29429c21.56066,0 39.03904,19.83123 39.03904,44.29429z" fill="#bfebff" stroke="none" stroke-width="0"/><path d="M771.50257,294.18709c0,24.46307 -17.47837,44.2943 -39.03904,44.2943c-21.56066,0 -39.03904,-19.83123 -39.03904,-44.2943c0,-24.46306 17.47838,-44.2943 39.03904,-44.2943c21.56066,0 39.03904,19.83123 39.03904,44.2943z" fill="#bfebff" stroke="none" stroke-width="0"/><path d="M1193.91999,558.94684c0,24.46306 -17.47837,44.29429 -39.03904,44.29429c-21.56066,0 -39.03904,-19.83123 -39.03904,-44.29429c0,-24.46307 17.47838,-44.2943 39.03904,-44.2943c21.56066,0 39.03904,19.83123 39.03904,44.2943z" fill="#bfebff" stroke="none" stroke-width="0"/><path d="M1306.06713,102.77567c0,7.46331 -4.70572,13.51351 -10.51051,13.51351c-5.80479,0 -10.51051,-6.05021 -10.51051,-13.51351c0,-7.46331 4.70572,-13.51351 10.51051,-13.51351c5.80479,0 10.51051,6.05021 10.51051,13.51351z" fill="#ffffff" stroke="none" stroke-width="0"/><path d="M1430.69175,401.57447c0,6.63405 -4.36959,12.01201 -9.75976,12.01201c-5.39017,0 -9.75976,-5.37796 -9.75976,-12.01201c0,-6.63405 4.36959,-12.01201 9.75976,-12.01201c5.39017,0 9.75976,5.37796 9.75976,12.01201z" fill="#ffffff" stroke="none" stroke-width="0"/><path d="M1134.89597,280.7036c0,4.56091 -3.69735,8.25826 -8.25826,8.25826c-4.56091,0 -8.25826,-3.69735 -8.25826,-8.25826c0,-4.56091 3.69735,-8.25826 8.25826,-8.25826c4.56091,0 8.25826,3.69735 8.25826,8.25826z" fill="#ffffff" stroke="none" stroke-width="0"/><path d="M1185.94702,529.95285c0,5.39017 -5.71408,9.75976 -12.76276,9.75976c-7.04868,0 -12.76276,-4.36959 -12.76276,-9.75976c0,-5.39017 5.71408,-9.75976 12.76276,-9.75976c7.04868,0 12.76276,4.36959 12.76276,9.75976z" fill="#ffffff" stroke="none" stroke-width="0"/><path d="M673.93501,523.94684c0,8.70719 -3.69735,15.76577 -8.25826,15.76577c-4.56091,0 -8.25826,-7.05857 -8.25826,-15.76577c0,-8.70719 3.69735,-15.76577 8.25826,-15.76577c4.56091,0 8.25826,7.05857 8.25826,15.76577z" fill="#ffffff" stroke="none" stroke-width="0"/><path d="M758.01909,267.19009c0,5.39017 -7.3947,9.75976 -16.51652,9.75976c-9.12182,0 -16.51652,-4.36959 -16.51652,-9.75976c0,-5.39017 7.3947,-9.75976 16.51652,-9.75976c9.12182,0 16.51652,4.36959 16.51652,9.75976z" fill="#ffffff" stroke="none" stroke-width="0"/><path d="M573.3344,85.50841c0,2.9024 -3.0251,5.25526 -6.75676,5.25526c-3.73165,0 -6.75676,-2.35286 -6.75676,-5.25526c0,-2.9024 3.0251,-5.25526 6.75676,-5.25526c3.73165,0 6.75676,2.35286 6.75676,5.25526z" fill="#ffffff" stroke="none" stroke-width="0"/><path d="M366.1272,319.74264c0,2.07314 -1.34449,3.75375 -3.003,3.75375c-1.65851,0 -3.003,-1.68061 -3.003,-3.75375c0,-2.07314 1.34449,-3.75375 3.003,-3.75375c1.65851,0 3.003,1.68061 3.003,3.75375z" fill="#ffffff" stroke="none" stroke-width="0"/><path d="M1447.60869,423.97593c1.62257,1.90191 -0.27934,3.52448 -0.27934,3.52448l-1.82267,1.55497c-3.27008,2.75417 -6.7711,6.30528 -7.88833,10.67592c-0.41429,1.62071 0.36807,3.4667 -0.27515,5.01092c-0.70958,1.70354 -2.53588,2.70243 -3.57339,4.22858c-1.76195,2.59177 -3.21225,5.41897 -4.32012,8.35059c-2.69422,7.12935 -2.26394,14.39669 -2.26394,21.85069c0,11.05571 0.03308,22.11201 -0.02405,33.16758c1.11228,3.78841 1.64852,8.58857 3.41947,12.07802c2.18599,4.30725 6.7403,7.51459 9.1551,11.72164c3.25659,5.6736 5.14832,12.80442 7.58079,18.88559c3.59141,8.97853 6.64426,18.06601 9.70074,27.23953c0.13474,0.4044 3.20504,9.59657 3.24627,9.81618c0.90599,4.8254 0.53949,10.40875 0.78309,15.31903c0.35177,7.09077 0.06323,13.3365 -0.94079,20.36464c-0.11054,0.77375 -1.41564,10.06901 -1.5759,10.49419c-0.13508,0.35837 -5.54093,7.62958 -5.56248,7.65868c-5.89437,7.95656 -14.08269,13.92812 -22.11674,19.62003c-4.09099,2.89836 -7.80387,5.52009 -11.37271,9.04431c-1.04979,1.03667 -2.38316,1.83828 -3.17667,3.08209c-0.70323,1.10229 -0.77173,2.49865 -1.17678,3.74183c-0.93537,2.87083 -2.027,5.70106 -3.34179,8.41913c-1.37341,2.8295 -3.47933,5.39352 -4.17823,8.46009c-0.32857,1.44165 0.06549,2.95658 0.08112,4.43512c0.05266,4.98128 0.04565,9.94927 0.19109,14.92934c0.0466,1.59564 -0.14534,6.80823 1.04352,8.47301c1.89213,2.64958 5.82694,3.21693 7.93025,5.70218c0.9605,1.13491 0.70348,3.08522 1.81246,4.07555c0.74866,0.66856 2.00913,0.08269 3.00278,0.2245c1.84554,0.26337 3.74374,0.37702 5.50447,0.98956c0.97614,0.33959 1.70884,1.16566 2.52251,1.80292c1.60703,1.25862 3.57671,2.20192 4.73607,3.88197c0.47833,0.69316 -0.91321,1.89896 -0.32852,2.5051c0.59848,0.62043 1.72167,-0.24501 2.58049,-0.17054c1.66044,0.14399 3.28798,0.548 4.93197,0.82199c0,0 2.46598,0.411 2.05499,2.87698c-0.411,2.46598 -2.87698,2.05499 -2.87698,2.05499c-1.5965,-0.26608 -9.37696,-1.38963 -10.50556,-2.35155c-0.89205,-0.7603 0.30285,-2.51339 -0.32852,-3.50091c-0.69863,-1.09273 -2.20106,-1.37476 -3.26393,-2.11803c-0.52354,-0.36612 -0.8807,-1.01243 -1.4895,-1.20608c-1.67202,-0.53186 -8.22059,-0.79736 -9.51077,-1.78895c-1.46625,-1.12691 -1.46599,-3.45631 -2.65968,-4.86872c-3.03232,-3.58794 -5.2873,-1.7449 -8.22532,-6.08754c-2.08982,-3.08894 -1.81498,-7.69658 -1.92832,-11.16141c-0.1643,-5.02241 -0.20545,-10.04054 -0.19345,-15.06572c0.00443,-1.85499 -0.36835,-3.75619 0.04385,-5.56481c0.08259,-0.36236 4.25675,-8.91769 4.55511,-9.53237c1.89044,-3.88012 2.50329,-9.03875 4.76344,-12.60629c0.14084,-0.22231 7.22103,-7.35991 7.58544,-7.6674c9.82017,-8.28644 21.52724,-13.84841 29.31208,-24.42103c1.62905,-2.21242 4.01337,-4.00454 4.95796,-6.58453c1.07596,-2.9388 0.80994,-6.20668 1.25252,-9.3048c0.96125,-6.72874 1.23346,-12.62109 0.89668,-19.40979c-0.23228,-4.68211 0.16089,-10.04098 -0.70336,-14.64412c-0.86426,-4.60314 -3.17443,-9.45445 -4.65627,-13.90195c-2.50017,-7.50385 -5.08132,-14.87529 -8.01899,-22.21945c-2.34376,-5.8594 -4.13835,-12.78913 -7.27483,-18.25348c-2.46805,-4.29982 -7.02818,-7.51617 -9.27733,-11.94787c-1.99783,-3.9365 -2.72236,-9.36754 -3.91271,-13.64898c-0.05077,-11.28629 -0.02405,-22.57305 -0.02405,-33.85945c0,-8.07622 -0.33315,-15.89163 2.58677,-23.61822c0.07158,-0.18942 4.76481,-9.25346 4.8738,-9.41094c0.84739,-1.22437 2.49152,-1.88076 3.05503,-3.25902c0.55402,-1.35504 -0.30798,-2.97764 0.07282,-4.39117c1.46901,-5.45302 5.39484,-9.71109 9.48735,-13.24117l1.82267,-1.55497c0,0 1.90191,-1.62257 3.52448,0.27934z" fill="#ff90dc" stroke="none" stroke-width="0.5"/><path d="M1346.60768,459.13453c2.5,0 2.5,2.5 2.5,2.5v3.003c0,6.54238 -1.48783,14.39967 2.93078,19.94598c1.2941,1.62437 6.21973,5.71088 7.20636,7.26822c1.68135,2.65394 1.43796,6.20063 2.96348,8.94711c1.20346,2.16666 3.76081,3.22948 5.61323,4.87608c0.75248,0.66888 7.69745,6.78764 8.00154,7.30341c0.29049,0.4927 1.65645,9.16263 1.76313,9.72018c0.77521,4.05191 2.99421,8.66304 2.9932,12.75887c-0.00046,1.86153 -0.81528,3.63274 -1.23885,5.44544c-0.05722,0.24487 -2.35945,9.81249 -2.39694,9.92544c-1.46986,4.42819 -2.45749,4.87681 -3.93625,9.18253c-0.94726,2.75814 -1.01041,5.77249 -1.98853,8.51983c-1.65992,4.66234 -4.5252,9.28563 -6.70875,13.73189c-2.98093,6.0699 -3.92361,12.4599 -7.5401,18.20945c-2.69349,4.23262 -5.20367,8.74445 -8.15359,12.80106c-2.55556,3.5143 -6.73193,6.46296 -8.83232,10.2363c-1.53426,2.7563 -1.84975,6.0319 -2.79878,9.0403c-0.96466,3.05797 -2.43373,5.99595 -2.92174,9.16511c-0.70294,4.56487 0.02912,9.99544 0.02912,14.61951c0,8.42829 -0.68864,17.32209 0.29678,25.69218c0.38061,3.23287 1.37489,6.36357 2.05694,9.54651c2.87339,13.40914 5.62225,26.88437 8.94862,40.18842c1.14799,4.59146 1.86429,9.75637 3.51644,14.18756c3.22516,8.6501 11.22535,13.9675 17.48202,20.22417c0,0 1.76777,1.76777 0,3.53553c-1.76777,1.76777 -3.53553,0 -3.53553,0c-2.30486,-2.30486 -4.40926,-4.82798 -6.90763,-6.92151c-1.35097,-1.13205 -3.10828,-1.77136 -4.31534,-3.05576c-1.25759,-1.33817 -1.9649,-3.10295 -2.93681,-4.66104c-1.48501,-2.38066 -3.39461,-4.55781 -4.39424,-7.17956c-1.77178,-4.64691 -2.55245,-10.08749 -3.75963,-14.91672c-3.33942,-13.35909 -6.10168,-26.88901 -8.98692,-40.35345c-0.06287,-0.29341 -2.11553,-9.85574 -2.13364,-10.00954c-1.00878,-8.56853 -0.33107,-17.64997 -0.33107,-26.2768c0,-4.88138 -0.7125,-10.56441 0.02912,-15.38049c0.03814,-0.24771 2.95222,-9.45534 3.09513,-9.90836c0.17795,-0.5641 3.03651,-9.67702 3.19637,-9.96431c2.22809,-4.0042 6.48901,-7.07051 9.1857,-10.78472c2.87785,-3.96374 5.32239,-8.37546 7.95268,-12.50878c3.53291,-5.47702 4.39723,-11.84955 7.2682,-17.72463c2.09325,-4.28359 4.89052,-8.72073 6.48859,-13.20935c0.62219,-1.7476 1.29061,-6.47858 1.94761,-8.40012c1.07943,-3.15702 2.89105,-6.03381 3.94214,-9.20038c1.02797,-3.09693 1.49452,-6.35291 2.28105,-9.51978c0.35484,-1.42873 1.09979,-2.80504 1.10015,-4.27717c0.00092,-3.74238 -2.17959,-8.04308 -2.89316,-11.76248c-0.31956,-1.66564 -0.58736,-3.34116 -0.838,-5.01855c-0.16275,-1.08918 0.17015,-2.33823 -0.40188,-3.27928c-1.58746,-2.61156 -4.66242,-3.95345 -6.94665,-5.98387c-2.17409,-1.93252 -4.99882,-3.34874 -6.46561,-5.86067c-1.60816,-2.75404 -1.32726,-6.38227 -3.04253,-9.07091c-1.75067,-2.74413 -4.94167,-4.30125 -6.93578,-6.87392c-5.19513,-6.70238 -3.9481,-15.08598 -3.9481,-22.96894v-3.003c0,0 0,-2.5 2.5,-2.5z" fill="#ff90dc" stroke="none" stroke-width="0.5"/><path d="M305.14426,466.25379c1.38675,2.08013 -0.69338,3.46688 -0.69338,3.46688l-0.34425,0.2295c-1.11427,0.62434 -2.46217,0.94789 -3.34282,1.87302c-0.31266,0.32845 0.2757,0.87484 0.29581,1.32786c0.12886,2.90185 0.20641,5.93679 1.34255,8.61008c2.59738,6.11151 6.60454,11.02634 9.76824,16.75806c0.13779,0.24963 3.83782,8.65571 4.05407,9.14614c3.54405,5.29421 7.04604,10.53544 11.22499,15.36497c2.82875,3.26913 6.71122,5.83711 9.25487,9.33337c2.27427,3.12599 3.22863,8.70509 4.5381,12.30613c3.94668,10.85342 8.44323,21.39016 7.7565,33.24738c-0.41716,7.20278 -3.48225,13.7615 -6.31496,20.23596c-2.18769,2.30485 -4.60704,4.40411 -6.60022,6.8791c-5.67432,7.04598 -9.52549,15.6033 -14.42849,23.16243c-3.86845,5.96413 -8.51933,11.42696 -11.86146,17.76261c-2.07502,3.9336 -3.4548,8.47676 -5.13663,12.59165c-1.20036,2.93688 -3.03279,5.67959 -3.64445,8.79279c-0.85571,4.35542 0.0469,10.0705 0.0469,14.51804c0,5.80262 -0.84377,12.39175 -0.03228,18.11306c0.40221,2.83571 1.84201,5.42396 2.74772,8.14107c1.00301,3.00902 1.47161,6.24319 2.96397,9.04196c1.9034,3.56962 6.17148,7.07805 8.81151,10.13695c1.08895,1.26173 2.20004,2.50469 3.26686,3.78519c0.88035,1.05668 1.3668,2.56528 2.57356,3.22506c1.20676,0.65978 2.74002,0.2494 4.10401,0.42579c1.78532,0.23087 3.60601,0.31785 5.34161,0.7957c1.02317,0.2817 1.80583,1.18396 2.83197,1.45466c1.75078,0.46187 3.62095,-0.06688 5.43162,-0.06688c0,0 2.5,0 2.5,2.5c0,2.5 -2.5,2.5 -2.5,2.5c-0.65346,0 -6.22264,0.01871 -6.58039,-0.06688c-1.14488,-0.2739 -2.04053,-1.23067 -3.17404,-1.54834c-1.9555,-0.54803 -8.8549,-0.78768 -10.35337,-1.60694c-0.51004,-0.27886 -6.56869,-7.36773 -7.22702,-8.1305c-2.87087,-3.32637 -7.28069,-7.05922 -9.37312,-10.93291c-0.17031,-0.31529 -3.16104,-9.33307 -3.36059,-9.93171c-0.99013,-2.97038 -2.48979,-5.82274 -2.93974,-8.9213c-0.86948,-5.98773 -0.03228,-12.84107 -0.03228,-18.91397c0,-4.77736 -0.87131,-10.80846 0.0469,-15.48196c0.06116,-0.31127 3.69855,-9.17308 3.92232,-9.72056c1.73661,-4.24892 3.17646,-8.91475 5.31462,-12.97909c3.42847,-6.51702 8.19365,-12.13859 12.16256,-18.27343c4.97617,-7.69177 8.91334,-16.34358 14.68353,-23.5086c0.51171,-0.63541 5.35182,-5.51858 6.3298,-6.50993c2.37965,-5.69399 5.12363,-11.46789 5.48794,-17.75812c0.64566,-11.14806 -3.75482,-21.04984 -7.46383,-31.24957c-1.13274,-3.11502 -2.04989,-8.69005 -4.05648,-11.32897c-2.44778,-3.21912 -6.10246,-5.61692 -8.76315,-8.68464c-4.43516,-5.11364 -8.14526,-10.66613 -11.88102,-16.29106c-1.35538,-3.04374 -2.43975,-6.22144 -4.04984,-9.13846c-3.24727,-5.88312 -7.41698,-10.93767 -10.00816,-17.25593c-2.05803,-5.01826 -1.88099,-5.14537 -1.72519,-10.5284c0.03567,-1.23248 -0.42225,-2.68482 0.29581,-3.68715c1.201,-1.67644 3.31846,-2.44932 4.97769,-3.67398l0.34425,-0.2295c0,0 2.08013,-1.38675 3.46688,0.69338z" fill="#ff90dc" stroke="none" stroke-width="0.5"/><path d="M399.04308,376.5547c2.49725,-0.11715 2.61441,2.3801 2.61441,2.3801l0.02607,0.5557c0.15105,3.21981 -0.1434,6.48873 0.4313,9.66043c0.57807,3.19031 2.07865,6.14391 3.00249,9.25176c2.15667,7.25522 3.90592,14.34001 6.75085,21.36207c1.80129,4.44607 3.2734,9.43407 5.52307,13.66808c6.25068,11.76415 16.49068,20.64714 24.32294,31.22428c2.8943,3.90863 5.31076,8.33435 7.92186,12.43794c4.26843,6.70826 8.91039,13.35486 10.79691,21.12447c0.4483,1.8463 1.31935,3.65335 1.28548,5.55299c-0.02938,1.64789 -0.97912,3.14754 -1.46868,4.72131c-2.65178,7.95535 -5.48594,15.90163 -9.33229,23.38284c-2.03204,3.95236 -4.79868,7.68951 -7.15273,11.45599c-10.89425,17.4308 -23.4292,33.69687 -34.87346,50.77433c-2.5714,3.83711 -6.21165,7.94431 -8.16146,12.12558c-1.35472,2.90513 -1.75732,6.16542 -2.6502,9.24402c-3.97014,13.68878 -4.66447,27.54259 -5.8785,41.70628c-0.96093,11.21081 -2.96336,22.85828 -2.29085,34.09225c0.53079,9.55855 4.05723,18.66415 7.71149,27.43439c1.20672,2.89613 1.72674,6.16561 3.55535,8.7151c0.78985,1.10122 2.10882,1.70282 3.15094,2.56915c3.83166,3.18532 7.39697,6.27359 11.58188,8.99083c8.38713,5.44573 16.76888,10.89977 25.15331,16.34965c0,0 2.09611,1.36247 0.73364,3.45858c-1.36247,2.09611 -3.45858,0.73364 -3.45858,0.73364c-11.1546,-7.25049 -23.24658,-13.90704 -33.41613,-22.48664c-0.38908,-0.32825 -7.55685,-6.35275 -7.77883,-6.66079c-0.23374,-0.32436 -3.85988,-9.08147 -4.13695,-9.74644c-3.88352,-9.32045 -7.46899,-18.91854 -8.08761,-29.06603c-0.65536,-11.49324 1.31771,-23.34355 2.30061,-34.81069c1.24268,-14.49794 1.99282,-28.6551 6.05813,-42.67202c0.13334,-0.45974 2.814,-9.7354 2.9208,-9.96441c2.05813,-4.41356 5.82353,-8.74323 8.53939,-12.79592c11.41457,-17.03315 23.92143,-33.25586 34.78705,-50.64085c2.29072,-3.66516 5.0047,-7.30406 6.97733,-11.15211c3.71134,-7.23981 6.43966,-14.92402 9.00427,-22.61786c0.40526,-1.11068 1.20378,-2.1498 1.21578,-3.33205c0.01455,-1.43399 -0.78043,-2.76015 -1.13988,-4.14843c-1.86579,-7.20626 -6.17439,-13.38328 -10.16451,-19.65277c-2.55068,-4.00777 -4.9026,-8.34134 -7.73041,-12.15847c-7.98903,-10.78405 -18.33448,-19.84011 -24.71151,-31.84206c-2.33039,-4.38593 -3.87548,-9.53015 -5.74177,-14.13666c-2.90498,-7.17029 -4.70798,-14.40889 -6.90946,-21.81487c-0.15615,-0.52531 -3.07158,-9.46454 -3.12964,-9.78497c-0.03878,-0.21404 -0.48645,-9.90253 -0.50592,-10.31759l-0.02607,-0.5557c0,0 -0.11715,-2.49725 2.3801,-2.61441z" fill="#ff90dc" stroke="none" stroke-width="0.5"/><path d="M393.71441,397.15745c1.41401,2.06169 -0.64767,3.4757 -0.64767,3.4757l-2.56619,1.57436c-0.91008,3.85877 -1.56053,8.50954 -0.88461,12.48001c0.94844,5.57125 3.5025,10.97275 4.69311,16.52097c0.04603,0.21449 1.30853,10.03589 1.33996,10.27952c0.02681,26.48873 0.96286,53.60439 -6.10886,79.43221c-1.95302,7.13294 -6.09029,14.26413 -9.02127,21.06021c-2.01961,9.22953 -4.78538,18.66004 -5.90199,28.04753c-0.77665,6.52937 -0.71771,13.00395 -1.76374,19.55791c-1.29084,8.08787 -3.53558,16.29895 -4.23508,24.45448c-0.83713,9.76019 0.00915,19.98459 0.00915,29.78636c0,21.06969 0.45082,42.11143 -1.26225,63.11692c-0.04071,0.49913 -0.81426,10.10821 -0.87809,10.36556c-1.06632,4.29901 -3.95779,7.08075 -3.86566,11.59259c0,0 0,2.5 -2.5,2.5c-2.5,0 -2.5,-2.5 -2.5,-2.5c0.07342,-5.0411 2.84789,-8.10016 4.01272,-12.79631c0.77017,-3.10505 0.48754,-6.3797 0.74758,-9.56826c1.70195,-20.86921 1.24571,-41.77709 1.24571,-62.7105c0,-9.94622 -0.84043,-20.30841 0.00915,-30.21364c0.71015,-8.27975 2.96898,-16.60544 4.27928,-24.81524c1.03518,-6.48599 0.96716,-12.87586 1.73392,-19.34054c1.15132,-9.70691 3.97201,-19.47903 6.11002,-29.00952c2.8795,-6.75763 7.08945,-13.89942 8.99674,-20.98183c6.81446,-25.30435 5.87516,-51.72703 5.90315,-77.65488c-0.41753,-3.18391 -0.56535,-6.4138 -1.23911,-9.55349c-1.20684,-5.62387 -3.81429,-11.10856 -4.73984,-16.76914c-0.90349,-5.52566 0.19893,-10.9446 1.74434,-16.17724l3.81387,-2.80142c0,0 2.06169,-1.41401 3.4757,0.64767z" fill="#8fffb2" stroke="none" stroke-width="0.5"/><path d="M463.7248,400.57597c2.5,0 2.5,2.5 2.5,2.5c0,5 0,10.52553 0,15.52553c0,3.17578 -0.48369,6.38188 -0.04511,9.52723c0.73385,5.26283 4.94766,9.26952 8.20131,13.06753c4.98114,5.81453 10.62306,10.73798 16.41098,15.73704c3.84378,3.32659 8.25617,5.6311 12.13962,8.84617c2.06554,1.71004 3.46049,4.09731 5.1809,6.15422c4.26931,5.10437 8.69828,10.06423 13.05768,15.09123c2.9444,3.3953 7.15729,7.10923 9.34036,10.9998c1.49205,2.65905 1.54383,5.89958 2.28334,8.85761c0.12526,0.50103 2.46054,9.80275 2.49043,10.08924c0.32444,3.10963 -0.39153,6.24089 -0.62454,9.35871c-0.13645,1.82577 0.05422,3.71058 -0.43263,5.47553c-0.40203,1.45747 -4.09564,7.93667 -4.90195,9.38836c-0.3725,0.6705 -4.88199,8.82543 -5.17692,9.19245c-2.60255,3.23862 -7.59993,4.99037 -10.71841,7.71452c-6.13542,5.3596 -10.43117,12.85596 -16.65107,18.12899c-4.40241,3.73222 -11.05952,4.74059 -15.67795,8.18264c-2.56641,1.91271 -4.4359,4.61548 -6.66529,6.91215c-5.84967,6.02619 -10.52301,12.27353 -15.36046,19.1334c-2.41134,3.39859 -5.55771,8.01669 -6.39187,12.2105c-0.19878,0.99938 0.2834,2.01833 0.40022,3.03057c0.57312,4.96589 1.04696,9.94617 1.57027,14.91758c0.63324,6.01574 1.22068,12.02389 1.723,18.05171c0.25928,3.11136 -0.164,6.33926 0.69639,9.34051c0.71094,2.47993 2.96315,4.22421 4.41103,6.35942c5.0908,7.50747 9.86369,15.61809 16.71448,21.67819c3.6464,3.24125 7.19205,6.85602 11.05318,9.8362c3.50985,2.70905 7.70382,4.85572 11.45078,7.22222c7.98205,5.0413 15.78879,10.10182 24.23271,14.32745c3.88658,1.94498 7.49967,3.33724 11.56228,4.8802c1.22637,0.46577 5.45401,2.61512 7.35163,1.78674c1.00681,-0.43951 1.4613,-1.64071 2.19194,-2.46107c0,0 1.76777,-1.76777 3.53553,0c1.76777,1.76777 0,3.53553 0,3.53553c-1.27135,1.18164 -2.19162,2.92824 -3.81406,3.54493c-5.39857,2.05202 -13.61457,-2.32227 -18.47252,-4.52261c-8.81836,-3.99414 -16.867,-9.03818 -25.03003,-14.19377c-5.26063,-3.3225 -11.08541,-6.32852 -16.01417,-10.12406c-3.97128,-3.0582 -7.62166,-6.76366 -11.36909,-10.09471c-7.15669,-6.3889 -12.18864,-14.7307 -17.53095,-22.60908c-1.68506,-2.48497 -4.113,-4.62818 -4.98733,-7.50047c-0.14629,-0.48057 -0.89513,-9.75765 -0.96452,-10.5904c-0.49931,-5.99176 -1.08335,-11.96376 -1.71279,-17.94352c-0.52334,-4.9717 -1.09006,-9.94156 -1.57027,-14.91758c-0.13824,-1.43242 -0.63522,-2.8865 -0.37154,-4.30122c0.92705,-4.97401 4.41379,-10.30121 7.24953,-14.34478c4.98335,-7.06676 9.83006,-13.52366 15.85896,-19.73449c0.34487,-0.35528 7.05505,-7.28207 7.26509,-7.43861c4.56145,-3.39959 11.35206,-4.42742 15.62095,-8.13953c6.05971,-5.26935 10.33039,-12.61335 16.38197,-17.90705c2.84426,-2.48805 7.99396,-4.32429 10.30261,-7.30049c1.93078,-2.48907 3.00609,-5.53698 4.53593,-8.2907c0.23539,-0.4236 4.24898,-7.54472 4.45146,-8.28503c0.39642,-1.44939 0.16885,-3.00055 0.26613,-4.50003c0.18548,-2.85916 0.93785,-5.72353 0.63146,-8.57227c-0.34248,-3.18431 -1.58352,-6.20656 -2.36028,-9.31361c-0.64664,-2.58654 -0.54476,-5.46497 -1.87496,-7.77558c-2.04485,-3.55196 -5.97243,-6.90174 -8.67766,-10.02122c-4.37818,-5.04861 -8.82546,-10.03038 -13.11331,-15.15659c-1.56796,-1.87452 -2.78903,-4.097 -4.68415,-5.64c-3.88313,-3.16164 -8.23775,-5.48122 -12.06936,-8.78433c-7.31609,-6.31895 -13.92866,-12.70109 -20.19297,-20.06335c-2.71105,-3.18622 -5.41713,-7.30702 -6.06085,-11.57966c-1.21766,-8.08207 -0.04511,-17.29054 -0.04511,-25.47277v-0.52553c0,0 0,-2.5 2.5,-2.5z" fill="#8fffb2" stroke="none" stroke-width="0.5"/><path d="M1368.16997,721.83009c-0.4358,-2.46172 2.02592,-2.89752 2.02592,-2.89752l0.55003,-0.09737c1.40137,-0.209 2.95084,0.03391 4.20412,-0.62701c2.47517,-1.30528 3.98938,-3.94195 6.18881,-5.6719c11.51705,-9.02052 18.49342,-21.09433 26.4594,-33.08068c4.02038,-6.04943 8.11858,-11.65392 11.60574,-18.04706c1.49763,-2.74565 3.69112,-5.19535 4.56078,-8.19954c0.7792,-2.69171 -0.07752,-5.60408 -0.07752,-8.40631c0,-5 0,-10 0,-15c0.06961,-5.66438 -3.2912,-10.60856 -4.45852,-16.08478c-1.719,-8.06428 -0.90942,-16.55873 -1.97014,-24.67789c-1.7346,-13.27722 -7.44842,-25.51741 -10.0568,-38.50351c-1.30511,-6.49763 -1.36678,-13.54584 -2.02662,-20.1443c-1.18502,-11.85017 -1.13589,-23.64238 -0.96769,-35.55305c0.09393,-6.65163 -0.34935,-13.58632 0.29405,-20.20458c0.48143,-4.95218 2.23309,-9.78815 2.67928,-14.74089c0.43381,-4.81528 -0.01008,-9.93897 -0.01008,-14.77569c0,0 0,-2.5 2.5,-2.5c2.5,0 2.5,2.5 2.5,2.5c0,4.98688 0.43713,10.26021 -0.01008,15.22431c-0.44759,4.96828 -2.20009,9.81312 -2.68257,14.77606c-0.62992,6.47959 -0.17901,13.27864 -0.27109,19.79143c-0.1657,11.72049 -0.22263,23.32486 0.94337,34.98489c0.64335,6.43347 0.68123,13.3229 1.95353,19.65719c0.9472,4.71571 2.91994,9.50334 4.32623,14.10549c2.41394,7.89978 4.71414,16.52792 5.78634,24.73493c1.04282,7.98207 0.21354,16.36027 1.90241,24.28322c1.2653,5.93587 4.51028,10.95107 4.56838,17.12717c0,5 0,10 0,15c0,0.1573 0.02783,9.2667 -0.07752,9.64174c-0.12156,0.43276 -4.64275,8.67359 -5.01627,9.35837c-3.56168,6.52974 -7.74635,12.27079 -11.85025,18.44908c-8.26733,12.44623 -15.58308,24.83558 -27.51765,34.21787c-2.44286,1.91221 -4.20866,4.74958 -6.96527,6.17269c-1.70373,0.87956 -3.76185,0.74413 -5.64277,1.11619l-0.55003,0.09737c0,0 -2.46172,0.4358 -2.89752,-2.02592z" fill="#d8ff8f" stroke="none" stroke-width="0.5"/><path d="M1277.92208,720.62736c-2.23607,-1.11803 -1.11803,-3.3541 -1.11803,-3.3541l1.76163,-3.41653c3.45,-3.0708 7.21816,-5.93919 10.49807,-9.18427c4.80937,-4.75829 8.72116,-10.12954 13.83737,-14.6106c0.26329,-0.2306 7.58943,-6.64673 7.73987,-6.75273c0.71455,-0.50349 1.98463,-0.27391 2.40787,-1.03873c0.62901,-1.13666 0.16217,-2.59452 0.31651,-3.88441c0.62726,-5.24224 0.84991,-8.70187 -0.3553,-13.88575c-1.10426,-4.74967 -1.87158,-9.77942 -3.32337,-14.43315c-1.43544,-4.60133 -3.63547,-9.12818 -5.41256,-13.61093c-2.95441,-5.47547 -5.4723,-12.01645 -9.11656,-17.04132c-1.51045,-2.08268 -4.53817,-2.67157 -6.12442,-4.69711c-0.97258,-1.24192 -0.65983,-3.24916 -1.73622,-4.40227c-2.2718,-2.43373 -6.77372,-1.72849 -9.10523,-4.10508c-1.37929,-1.40595 -1.67973,-3.56332 -2.48285,-5.36169c-1.38014,-3.09045 -2.51274,-6.29271 -3.52406,-9.5227c-0.17192,-0.54907 -3.04736,-9.69924 -3.08249,-10.00458c-0.03526,-0.30641 0.68708,-9.86847 0.72968,-10.44322c0.61602,-8.31053 1.23205,-16.62107 1.84807,-24.9316c0.61141,-8.24207 0.86414,-17.07696 2.48865,-25.18452c0.97832,-4.88256 2.93521,-9.82221 4.36693,-14.5946c2.39457,-7.98189 4.78801,-15.96411 7.1837,-23.94566c1.2463,-4.15221 2.55728,-8.27501 4.23937,-12.27894c0.83136,-1.97893 1.0674,-4.43347 2.67245,-5.85865c1.10901,-0.98473 2.95133,-0.29679 4.42699,-0.44519c0,0 2.5,0 2.5,2.5c0,2.5 -2.5,2.5 -2.5,2.5c-0.52634,-0.1484 -1.23995,-0.87424 -1.57902,-0.44519c-0.74478,0.94244 -0.47588,2.35956 -0.83878,3.50464c-1.77953,5.61507 -3.87084,11.08992 -5.56862,16.74919c-3.27937,10.93124 -7.7599,22.11455 -10.00046,33.29671c-1.58377,7.90426 -1.80962,16.53509 -2.40488,24.57181c-0.61602,8.31053 -1.23205,16.62107 -1.84807,24.9316c-0.23487,3.16848 -1.11196,6.34571 -0.74878,9.50206c0.36318,3.15635 1.93998,6.05103 2.88733,9.08367c0.95865,3.06881 2.13643,6.06741 3.34772,9.04556c0.51456,1.26513 0.49988,2.85481 1.45634,3.82976c2.33719,2.38237 6.76283,1.76465 9.12348,4.12377c1.24239,1.24159 1.04394,3.43142 2.10671,4.82984c1.50796,1.98419 4.46475,2.516 5.96759,4.50407c3.98661,5.2738 6.71528,12.34933 9.84744,18.17752c3.21097,8.06033 5.99895,15.69846 7.95159,24.15992c1.21104,5.24783 2.69487,10.0312 2.31192,15.48967c-0.07729,1.10169 -1.58722,10.56396 -1.91949,11.13671c-0.71886,1.23912 -2.49931,1.41682 -3.64484,2.27702c-2.59311,1.94723 -4.87013,4.28317 -7.31167,6.41736c-5.03891,4.4046 -8.87689,9.71599 -13.61328,14.40208c-3.12324,3.09007 -6.70186,5.85938 -10.0628,8.69302l-1.24137,2.58948c0,0 -1.11803,2.23607 -3.3541,1.11803z" fill="#d8ff8f" stroke="none" stroke-width="0.5"/><text transform="translate(537.77073,203.1886) scale(1.6701,1.6701)" font-size="40" xml:space="preserve" fill="#1b00ff" stroke="none" stroke-width="1" font-family="Handwriting" font-weight="normal" text-anchor="start"><tspan x="0" dy="0">INDO PARA:OCEANO</tspan></text><text transform="translate(621.77073,694.4386) scale(1.7351,1.7351)" font-size="40" xml:space="preserve" fill="#1b00ff" stroke="none" stroke-width="1" font-family="Handwriting" font-weight="normal" text-anchor="start"><tspan x="0" dy="0">CARREGANDO</tspan></text></g></g></svg>