<svg version="1.1" xmlns="http://www.w3.org/2000/svg" xmlns:xlink="http://www.w3.org/1999/xlink" width="165" height="77" viewBox="0,0,165,77"><g transform="translate(-673.32455,-311.1886)"><g stroke-miterlimit="10"><path d="M675.82455,385.6886v-72h160v72z" fill="#009cff" stroke="#000000" stroke-width="5" stroke-linecap="butt"/><path d="M734.82455,350.1886c0,14.08326 -10.96902,25.5 -24.5,25.5c-13.53098,0 -24.5,-11.41674 -24.5,-25.5c0,-14.08326 10.96902,-25.5 24.5,-25.5c13.53098,0 24.5,11.41674 24.5,25.5z" fill="#006caf" stroke="#000000" stroke-width="5" stroke-linecap="butt"/><path d="M727.41228,351.3443c0,9.1127 -7.3873,16.5 -16.5,16.5c-9.1127,0 -16.5,-7.3873 -16.5,-16.5c0,-9.1127 7.3873,-16.5 16.5,-16.5c9.1127,0 16.5,7.3873 16.5,16.5z" fill="#ffffff" stroke="#000000" stroke-width="5" stroke-linecap="butt"/><path d="M709.16228,351.3443c0,-0.69036 0.55964,-1.25 1.25,-1.25c0.69036,0 1.25,0.55964 1.25,1.25c0,0.69036 -0.55964,1.25 -1.25,1.25c-0.69036,0 -1.25,-0.55964 -1.25,-1.25z" fill="#000000" stroke="none" stroke-width="0.5" stroke-linecap="butt"/><path d="M710.41228,340.3443l-0.5,10l7.5,10" fill="none" stroke="#000000" stroke-width="0.5" stroke-linecap="round"/></g></g></svg>