<svg version="1.1" xmlns="http://www.w3.org/2000/svg" xmlns:xlink="http://www.w3.org/1999/xlink" width="1558.68009" height="1146.25139" viewBox="0,0,1558.68009,1146.25139"><g transform="translate(55.18757,367.54419)"><g stroke-miterlimit="10"><path d="M-49.33694,735.67808v-210.62288h1547.49312v210.62288z" fill="#b38b00" stroke="#241d00" stroke-width="5" stroke-linecap="butt"/><path d="M-52.26226,527.98051v-895.5247h1532.86653v895.5247z" fill="#00b3ff" stroke="none" stroke-width="0" stroke-linecap="butt"/><path d="M-55.18757,551.38305v-213.5482h1547.49312v213.5482z" fill="#00ff92" stroke="none" stroke-width="0" stroke-linecap="butt"/><path d="M324.89865,33.85542c0,77.54921 -60.24663,140.41525 -134.56462,140.41525c-74.31799,0 -134.56462,-62.86605 -134.56462,-140.41525c0,-77.54921 60.24663,-140.41525 134.56462,-140.41525c74.31799,0 134.56462,62.86605 134.56462,140.41525z" fill="#fff900" stroke="#fbff00" stroke-width="0.5" stroke-linecap="butt"/><path d="M466.05686,-53.43778c-1.01775,-1.3555 -0.569,-3.15051 -0.569,-3.15051c1.28904,-5.14397 0.462,-11.14081 3.43119,-15.53467c2.73722,-4.05051 14.44247,-9.34206 18.67426,-12.48005c5.81489,-4.31192 11.70932,-9.70474 17.98351,-13.30174c21.16862,-12.13594 46.81448,-17.73038 70.37379,-22.83252c22.12099,-4.79065 43.78373,-7.93513 66.44874,-4.88452c1.24341,0.16736 14.82042,1.94797 15.47932,2.28663c4.61481,2.37188 5.96466,8.55734 9.63132,12.22853c4.97541,4.98158 12.36663,7.48352 16.74785,13.97483c3.9992,5.92532 5.25326,13.90664 9.22364,19.93739c1.34418,2.0417 7.90555,8.60345 9.47569,10.21539c1.80922,1.87469 3.99519,3.4479 5.42769,5.62404c0.9796,1.48811 -0.04207,4.46576 1.62607,5.09146c1.52304,0.57126 2.41918,-2.20429 3.80634,-3.05383c8.12182,-4.97403 14.40865,-11.75597 22.32053,-16.9796c27.53956,-18.18228 64.68232,-26.57312 96.27911,-34.51542c18.04216,-1.58023 41.65468,-4.89789 58.92339,1.92269c28.73484,11.34933 50.9863,39.67073 60.41776,68.17342c0.21706,2.62293 0.68078,5.23705 0.65118,7.86878c-0.01957,1.73898 -1.87811,3.79317 -0.7977,5.15596c1.05177,1.32663 3.39741,-0.00199 5.07341,0.23713c4.82663,0.68868 9.54157,2.01037 14.31235,3.01553c11.9269,2.51294 23.85904,5.00223 35.78088,7.53887c5.64937,1.20201 9.57594,1.40275 14.35497,5.03713c8.014,6.09458 7.36586,11.45651 7.3692,20.51833c0.00521,14.13903 0,28.27808 0,42.41711c-0.29013,15.4823 -12.58451,27.26306 -23.11484,37.79341c-8.94843,8.9484 -17.86105,17.07704 -28.58743,23.8763c-0.54297,0.34416 -11.68498,7.45839 -12.36745,7.66188c-5.26426,1.56958 -12.87877,-0.16607 -18.38837,0.14021c-12.26167,0.68163 -24.29342,2.90586 -36.60193,2.91833c-7.31329,0.00301 -14.62659,0.00603 -21.93988,0.00904c-1.41831,0.00059 -12.46574,0.08264 -13.2473,-0.27589c-4.39497,-2.01604 -13.2851,-11.71002 -16.19368,-15.86681c-3.75105,-5.36076 -8.1805,-14.38794 -10.30625,-20.58131c-0.7717,-2.24828 -0.83787,-4.68083 -1.34415,-7.00333c-0.23414,-1.074 0.22332,-3.20662 -0.87558,-3.17929c-1.62747,0.04049 -2.27683,2.35473 -3.60876,3.29081c-3.98893,2.80342 -8.42275,4.91328 -12.63413,7.36993c-10.83146,6.31836 -21.66543,11.47734 -33.29254,16.18634c-11.21409,4.54118 -22.98738,11.01136 -34.99447,12.98233c-16.76757,2.75237 -34.27855,1.03299 -51.03056,3.84884c-10.67949,1.79512 -25.37052,1.60395 -35.42601,5.26572c-2.07437,0.75538 -3.39351,3.07164 -5.52244,3.6558c-6.41361,1.75993 -16.31763,0.15993 -23.0095,0.15993c-12.1888,0 -24.37767,0 -36.56647,0c-6.30113,0 -15.20703,1.49504 -21.31735,-0.09782c-6.71217,-1.74975 -14.19303,-6.98715 -20.41881,-10.10004c-14.38788,-7.19394 -34.89527,-16.65465 -41.42487,-32.90397c-2.61886,-6.5172 -2.35149,-16.21621 -2.38633,-23.12089c-0.00486,-4.39111 2.19416,-16.24379 0.48794,-20.09293c-1.10355,-2.48956 -9.56693,-1.44765 -10.01339,-1.44385c-9.64454,0.08197 -19.10133,-0.37462 -28.66253,0.9975c-16.22905,2.32905 -32.42811,4.98781 -48.85696,4.85313c-7.24911,-0.05941 -17.80006,-2.21578 -22.93209,-8.35275c-0.62186,-0.74365 -4.78485,-14.03097 -5.23369,-15.43436c-1.7231,-11.15099 -2.36802,-21.14651 4.38096,-31.04283c4.08939,-5.99646 11.16804,-9.81155 15.36573,-15.6745c8.97953,-12.5418 23.18932,-22.26281 37.61769,-30.34938z" fill="#ffffff" stroke="none" stroke-width="0.5" stroke-linecap="butt"/><path d="M1386.31646,-291.8398c0.45176,-2.92532 3.60297,-2.92532 3.60297,-2.92532h7.31329c11.64508,0.14015 18.52455,5.0137 27.58879,11.89443c18.72063,14.2109 42.32514,35.78225 35.93905,62.81c-1.72111,7.28422 -8.38577,12.08341 -13.35381,17.05144c-3.88936,3.87921 -11.11311,10.15609 -13.06388,15.44325c-2.87363,7.78842 -1.01716,18.793 -5.88875,26.49282c-5.44428,8.60497 -17.64142,11.1124 -25.31471,16.9069c-1.96499,1.48384 -3.23584,3.77281 -5.23126,5.21546c-5.61664,4.06066 -20.18382,11.61097 -26.87121,9.21548c-4.59793,-1.64698 -7.68472,-6.04286 -11.30211,-9.3243c-1.24537,-1.1297 -1.70716,-3.89635 -3.38158,-3.743c-1.94779,0.17842 -2.16959,3.44752 -3.87379,4.40752c-2.30146,1.29644 -5.09742,1.38786 -7.64614,2.0818c-11.05021,4.47667 -23.04165,10.8954 -34.94099,12.63392c-9.91507,1.44859 -20.57037,-1.92562 -30.17217,-3.90972c-1.21693,-0.25146 -14.80465,-3.00808 -15.37737,-3.35417c-7.79319,-4.70926 -6.68845,-7.74165 -7.57941,-15.43819c-1.61024,-13.91009 -0.01404,-31.72768 13.38655,-38.89277c-11.27456,-1.09448 -21.88969,-4.84792 -33.09155,-6.66618c-2.41546,-0.39208 -15.67944,-2.30685 -16.72764,-3.69968c-5.19551,-6.90366 3.07916,-18.62152 7.16633,-23.27216c16.30487,-18.55275 33.93664,-44.21507 57.59246,-53.33088c11.9281,-7.18873 25.97533,-16.40223 39.73769,-19.52193c8.53912,-1.93568 19.76163,-0.07468 28.52574,-0.07468c10.98784,0 21.97566,0 32.9635,0z" fill="#ffffff" stroke="none" stroke-width="0.5" stroke-linecap="butt"/><path d="M1097.23788,93.77594c0.23736,-6.98472 1.12654,-13.75663 3.42505,-19.72042c9.66528,-25.07793 34.15361,-45.00359 60.00903,-50.84512c20.83487,-4.62996 42.26645,-10.90491 63.44447,-13.10332c11.53576,-1.19748 23.91626,-0.0239 35.52105,-0.0239c7.96979,0 23.4062,-2.84879 30.65253,0.27834c7.16387,3.09159 10.47477,13.42118 13.74756,19.70602c0.52474,2.55945 1.21565,5.09037 1.57426,7.67832c0.23274,1.67954 -1.10671,3.99549 0.19412,5.08312c1.30083,1.08763 3.34326,-0.6331 5.03713,-0.70924c9.78531,-0.43985 17.26403,-3.48985 26.4201,-7.22533c31.0751,-12.67795 62.57971,-21.88597 96.4307,-21.88597c14.95975,0 30.3342,3.54066 43.69108,10.98466c1.66644,0.92876 9.70887,8.13063 11.59213,9.40156c4.45409,3.00585 9.57901,6.49836 11.15804,11.63457c4.67343,15.20153 3.13787,32.89602 3.03505,49.15678c-0.0332,5.25089 1.11697,12.64583 -4.65953,16.27445c-1.09846,0.68999 -14.50765,0.54613 -16.54902,0.54613c-0.84989,0 -14.87115,0.0201 -15.31808,-0.066c-1.65076,-0.31792 -11.94761,-4.92103 -13.94253,-5.52127c-14.89042,-4.48027 -40.05208,-10.98112 -55.04296,-3.88008c-14.2233,6.73745 -23.42858,24.06963 -36.56811,32.27986c-0.44839,0.28019 -13.16867,5.34037 -14.09456,5.71037c-6.91405,3.29467 -11.13786,8.3629 -18.04076,11.81919c-29.83341,14.93773 -66.83933,21.72028 -100.15551,18.14259c-1.03796,-0.11148 -14.53157,-3.11397 -15.2856,-3.67332c-1.65991,-1.2313 -0.85931,-4.5185 -2.60356,-5.62711c-1.52435,-0.96884 -3.5939,0.36409 -5.39086,0.54613c-9.24202,0 -19.60688,-1.30937 -28.74599,-0.03534c-10.01948,1.39675 -18.68289,6.18965 -29.24107,5.67374c-10.78922,-0.52723 -18.50775,-5.70139 -28.1171,-9.51316c-9.0796,-3.60165 -16.80241,-7.76941 -25.41554,-12.24497c-2.12378,-1.10355 -5.18568,-0.73218 -6.69766,-2.58747c-5.55296,-6.81388 -3.911,-23.03316 -3.80127,-31.19536c4.59591,-8.70955 5.96455,-12.95892 13.73738,-17.05855z" fill="#ffffff" stroke="none" stroke-width="0.5" stroke-linecap="butt"/><path d="M23.79601,548.45774l5.85064,181.3697" fill="none" stroke="#000000" stroke-width="10" stroke-linecap="round"/><path d="M140.80872,554.30837l-2.92532,163.8178" fill="none" stroke="#000000" stroke-width="10" stroke-linecap="round"/><path d="M289.99993,721.05149v-163.8178" fill="none" stroke="#000000" stroke-width="10" stroke-linecap="round"/><path d="M442.11645,560.15901l2.92532,169.66843" fill="none" stroke="#000000" stroke-width="10" stroke-linecap="round"/><path d="M582.53171,726.90213l2.92532,-166.74312" fill="none" stroke="#000000" stroke-width="10" stroke-linecap="round"/><path d="M702.46974,557.23369v169.66843" fill="none" stroke="#000000" stroke-width="10" stroke-linecap="round"/><path d="M834.10904,554.30837v181.3697" fill="none" stroke="#000000" stroke-width="10" stroke-linecap="round"/><path d="M951.12175,557.23369l5.85064,169.66843" fill="none" stroke="#000000" stroke-width="10" stroke-linecap="round"/><path d="M1097.38764,563.08432l14.62659,210.62288" fill="none" stroke="#000000" stroke-width="10" stroke-linecap="round"/><path d="M1226.10163,557.23369l2.92532,166.74312" fill="none" stroke="#000000" stroke-width="10" stroke-linecap="round"/><path d="M1381.14347,557.23369v181.3697" fill="none" stroke="#000000" stroke-width="10" stroke-linecap="round"/><path d="M354.35692,465.08618c0,39.58242 -36.99927,71.67029 -82.64023,71.67029c-45.64095,0 -82.64023,-32.08787 -82.64023,-71.67029c0,-39.58242 36.99927,-71.67029 82.64023,-71.67029c45.64095,0 82.64023,32.08787 82.64023,71.67029z" fill="#eb7d00" stroke="#ffa000" stroke-width="1.5" stroke-linecap="butt"/><path d="M1463.05237,563.08432v163.8178" fill="none" stroke="#000000" stroke-width="10" stroke-linecap="round"/><path d="M-40.56099,375.86399l61.43167,-32.1785l49.7304,35.10381l58.50636,-67.28231l35.10381,61.43167l84.83422,-49.7304l38.02913,43.87977l102.38612,-52.65572l55.58104,46.80508l84.83422,-55.58104l61.43167,64.35699l114.08739,-49.7304l46.80508,67.28231l102.38612,-76.05826l-11.70127,29.25318" fill="none" stroke="#35ff00" stroke-width="10" stroke-linecap="round"/><path d="M339.73033,396.34121c0,37.159 -30.77818,67.28231 -68.74497,67.28231c-37.96679,0 -68.74497,-30.12331 -68.74497,-67.28231c0,-37.159 30.77818,-67.28231 68.74497,-67.28231c37.96679,0 68.74497,30.12331 68.74497,67.28231z" fill="#eb7d00" stroke="#000000" stroke-width="3.5" stroke-linecap="butt"/><path d="M1448.42578,352.46144l-26.32786,35.10381l-78.98358,-61.43167l-108.23676,52.65572l-87.75953,-61.43167l-81.9089,52.65572l-46.80508,-67.28231l-93.61017,76.05826l-78.98358,-84.83422" fill="none" stroke="#35ff00" stroke-width="10" stroke-linecap="round"/><path d="M997.92684,334.90954l14.62659,-11.70127v17.55191" fill="none" stroke="#35ff00" stroke-width="10" stroke-linecap="round"/><path d="M535.72662,340.76017h-26.32786" fill="none" stroke="#35ff00" stroke-width="10" stroke-linecap="round"/><path d="M421.63923,340.76017l-52.65572,-5.85064" fill="none" stroke="#35ff00" stroke-width="10" stroke-linecap="round"/><path d="M284.14929,413.89312l-40.95445,17.55191v-29.25318z" fill="#fff700" stroke="#000000" stroke-width="1.5" stroke-linecap="round"/><path d="M325.10374,389.02792c0,12.11705 -8.51311,21.93988 -19.01457,21.93988c-10.50145,0 -19.01457,-9.82284 -19.01457,-21.93988c0,-12.11705 8.51311,-21.93988 19.01457,-21.93988c10.50145,0 19.01457,9.82284 19.01457,21.93988z" fill="#ffffff" stroke="#000000" stroke-width="1.5" stroke-linecap="butt"/><path d="M275.37334,380.25196c0,11.30925 -7.85825,20.47722 -17.55191,20.47722c-9.69365,0 -17.55191,-9.16798 -17.55191,-20.47722c0,-11.30925 7.85825,-20.47722 17.55191,-20.47722c9.69365,0 17.55191,9.16798 17.55191,20.47722z" fill="#ffffff" stroke="#000000" stroke-width="1.5" stroke-linecap="butt"/><path d="M281.22397,416.08711l-14.62659,19.01457l-17.55191,-2.92532z" fill="#ff0000" stroke="#000000" stroke-width="1.5" stroke-linecap="round"/><path d="M314.1338,389.39358c0,5.45268 -3.11058,9.87295 -6.94763,9.87295c-3.83705,0 -6.94763,-4.42027 -6.94763,-9.87295c0,-5.45268 3.11058,-9.87295 6.94763,-9.87295c3.83705,0 6.94763,4.42027 6.94763,9.87295z" fill="#000000" stroke="#000000" stroke-width="1.5" stroke-linecap="butt"/><path d="M265.13473,381.34896c0,5.04878 -2.78315,9.14162 -6.2163,9.14162c-3.43315,0 -6.2163,-4.09284 -6.2163,-9.14162c0,-5.04878 2.78315,-9.14162 6.2163,-9.14162c3.43315,0 6.2163,4.09284 6.2163,9.14162z" fill="#000000" stroke="#000000" stroke-width="1.5" stroke-linecap="butt"/><path d="M255.35319,334.12488c-0.03701,0.07527 -0.07427,0.1506 -0.11178,0.22595c0,0 -1.63531,3.27059 -4.9059,1.63531c-3.27062,-1.63528 -1.63531,-4.9059 -1.63531,-4.9059c3.14255,-6.25412 4.84011,-12.29991 10.33386,-17.17384c15.57196,-13.81511 30.59084,0.38854 33.82522,16.65498c2.07692,10.4452 -2.3693,17.46374 -8.45496,25.3468c-2.66649,1.64836 -4.8242,4.4189 -7.87463,5.14157c-8.73912,2.07036 -16.80999,-11.94808 -19.26035,-19.15878c-1.30548,-3.8417 -0.39106,-5.52043 -1.91614,-7.76608zM259.57659,325.07359c0.43883,0.90167 0.43883,1.79135 0.43883,1.79135l-1.07099,0.33969c6.88084,7.30929 6.41493,19.64913 14.40757,27.10556c1.76713,1.64859 4.06125,-2.62457 6.15431,-3.83278c4.40386,-6.16084 7.78766,-10.52061 6.17163,-18.53297c-2.08092,-10.31742 -10.70488,-22.99162 -21.75582,-12.5982c-1.89148,1.77894 -3.23303,3.70111 -4.3455,5.72739z" fill="#000000" stroke="none" stroke-width="0.5" stroke-linecap="butt"/><path d="M263.852,319.21784c11.05094,-10.39342 19.88731,2.3753 21.96823,12.69269c1.61603,8.01236 -1.84959,12.53917 -6.25345,18.70004c-2.09306,1.20824 -4.44128,5.4943 -6.20843,3.84571c-7.99264,-7.45643 -7.65959,-20.01579 -14.54044,-27.32507l1.07529,-0.34659c0,0 0.00652,-0.8988 -0.4323,-1.8005c1.11247,-2.02628 2.49963,-3.98735 4.39114,-5.7663z" fill="#f10000" stroke="none" stroke-width="0.5" stroke-linecap="butt"/><path d="M331.544,335.36413c3.6539,10.57965 -4.25824,19.4655 -12.98692,23.35837c-5.89071,2.6272 -13.02234,3.60999 -17.10574,-2.98473c-0.45228,-0.73045 -0.66955,-1.55147 -0.79109,-2.40935c-4.64356,1.31827 -11.3782,0.59568 -15.0483,0.59568c0,0 -3.65665,0 -3.65665,-3.65665c0,-2.23175 1.36209,-3.10142 2.42366,-3.44029c0.0839,-0.24409 0.15636,-0.38898 0.15636,-0.38898c5.76279,-11.26195 -1.5204,-18.10125 -1.84868,-29.08056l4.94665,-4.73325c0,0 3.27062,-1.63528 4.9059,1.63531c0.03911,0.07822 0.07541,0.15551 0.10903,0.23186c7.78924,0.67979 13.82441,6.99318 16.37324,14.57019c7.19081,-6.05049 19.43923,-2.62509 22.52252,6.30242zM307.57061,348.83952c1.30177,10.19216 16.27761,0.89164 16.81958,-6.24567c0.14176,-1.867 0.94125,-7.41433 -1.79041,-8.87404c-1.20646,-0.64468 -2.71089,0.41235 -4.07801,0.4584c-3.85045,0.12965 -6.51416,1.95411 -8.25177,4.6533c-0.24113,2.9587 -1.07608,5.83987 -2.59672,8.41158c-0.04912,0.52939 -0.08308,1.06242 -0.10265,1.59643zM294.34069,331.39848c1.13927,5.20669 -0.0528,10.73875 -2.04243,15.59698c3.00632,0.10572 6.02703,-0.03326 7.18338,-1.09661c0.53984,-0.49643 0.94941,-1.2157 1.25988,-2.05644c0.17821,-1.04352 0.40741,-2.03239 0.69351,-2.98473c0.2662,-1.94993 0.27419,-3.95155 0.26617,-5.21678c-0.0497,-7.84989 -0.83635,-14.06309 -10.23861,-13.89526h-0.91972c0.93593,2.94328 2.81234,5.14909 3.79782,9.65288z" fill="#020000" stroke="none" stroke-width="0.5" stroke-linecap="butt"/><path d="M307.54004,347.30346c1.52064,-2.57171 2.37404,-5.60391 2.61518,-8.56264c1.73761,-2.69919 4.55329,-4.57441 8.40377,-4.70406c1.36712,-0.04604 2.91581,-1.0831 4.12227,-0.43842c2.73169,1.4597 1.99627,7.11388 1.85448,8.98087c-0.542,7.13731 -15.78683,16.53088 -17.0886,6.33872c0.01957,-0.53405 0.04379,-1.08509 0.09291,-1.61448z" fill="#ff0000" stroke="none" stroke-width="0.5" stroke-linecap="butt"/><path d="M290.4838,321.6118l0.92817,-0.00342c9.40226,-0.16783 10.38222,6.21478 10.43192,14.06466c0.00802,1.26523 -0.04988,3.34776 -0.31608,5.29769c-0.2861,0.95234 -0.54388,1.95958 -0.72211,3.0031c-0.31046,0.84074 -0.74326,1.56899 -1.2831,2.06542c-1.15635,1.06335 -4.26046,1.2019 -7.26678,1.09618c1.98963,-4.85819 3.14919,-10.65585 2.0099,-15.86251c-0.98548,-4.50379 -2.84598,-6.71785 -3.78191,-9.6611z" fill="#ff0000" stroke="none" stroke-width="0.5" stroke-linecap="butt"/><path d="M333.87969,549.18907l-24.8652,-5.85064l1.46266,-13.16393l38.76046,0.73133" fill="none" stroke="#ffa000" stroke-width="1.5" stroke-linecap="round"/><path d="M311.20848,536.75646l28.52185,2.92532" fill="none" stroke="#ffa000" stroke-width="1.5" stroke-linecap="round"/><path d="M202.97172,533.83115l27.05919,-6.58197l-0.73133,18.28324l-20.47722,2.92532" fill="none" stroke="#ffa000" stroke-width="1.5" stroke-linecap="round"/><path d="M230.76224,536.02514l-27.79052,5.11931" fill="none" stroke="#ffa000" stroke-width="1.5" stroke-linecap="round"/><path d="M326.6567,519.13461c-2.85537,2.28429 -5.13964,-0.57108 -5.13964,-0.57108l-3.22932,-4.09989c-4.75411,-11.58756 -4.36566,-21.16429 -2.64405,-33.14262c1.81613,-12.63597 1.68381,-25.70775 4.42785,-38.23665c0,0 0.79323,-3.56956 4.36282,-2.77633c3.56956,0.79323 2.77633,4.36282 2.77633,4.36282c-2.78999,12.354 -2.57375,25.32968 -4.3481,37.82161c-1.44794,10.19394 -2.10424,18.33507 1.74393,28.28905l2.62132,3.2134c0,0 2.28429,2.85537 -0.57108,5.13964z" fill="#000000" stroke="none" stroke-width="0.5" stroke-linecap="butt"/><path d="M212.08736,515.20822c-2.58563,-2.58563 0,-5.17129 0,-5.17129l2.58563,-2.53368c5.32393,-3.58527 4.38271,-11.48603 5.99646,-17.11159c1.38034,-4.81191 5.39625,-8.33683 6.53396,-12.98171c1.35466,-5.53058 -0.09782,-14.07186 -0.09782,-19.6371c0,0 0,-3.65665 3.65665,-3.65665c3.65665,0 3.65665,3.65665 3.65665,3.65665c0,6.13761 1.44057,15.24415 -0.09782,21.31735c-1.26827,5.0068 -5.21529,8.36969 -6.62997,13.34615c-2.30184,8.09728 -1.44572,15.19357 -8.63013,20.91754l-1.80235,1.8543c0,0 -2.58563,2.58563 -5.17129,0z" fill="#000000" stroke="none" stroke-width="0.5" stroke-linecap="butt"/><path d="M335.29675,426.38744c0.04479,-1.16764 0.65975,-2.09005 0.65975,-2.09005c3.67654,-5.46739 8.24121,-12.23894 14.93138,-14.56273c15.56369,-5.40596 26.24425,11.45824 23.29255,25.39855c6.66914,0.19509 13.06333,3.4424 14.43928,10.04943c1.47562,7.08565 -0.98276,13.58386 -5.3514,18.9101c4.00494,1.10363 6.82597,4.00049 6.92376,10.50075c0.02782,1.84895 0.40366,3.79224 -0.18766,5.5443c-3.2476,9.62275 -24.16368,16.45389 -33.1519,17.11445c-3.43052,0.2521 -8.99055,0.34174 -11.37416,-3.05681c-2.09833,-2.99181 -0.42057,-11.40932 0.25421,-14.79324c1.85544,-4.64105 5.6881,-8.55354 7.2944,-13.09805c0.55909,-1.58178 -1.3101,-5.46487 -1.48752,-6.18711c-1.92737,-7.84582 -5.70735,-21.47707 -12.54043,-26.47796l-2.92532,-2.19399c0,0 -2.88425,-2.16318 -0.77694,-5.05758zM372.31173,463.94288c4.63622,-2.64969 8.57004,-6.78469 9.91981,-12.06901c0.17651,-0.69108 -0.69789,-8.58332 -2.94609,-9.00591c-3.51149,-0.66007 -6.62198,0.24716 -9.70419,1.26675c-1.42638,1.75279 -2.99038,3.43359 -4.28404,4.88423l-0.85089,0.11739l0.12699,0.29628l-5.045,2.16213c-0.46153,0.21033 -0.97445,0.32749 -1.51473,0.32749c-0.42514,0 -0.83331,-0.07255 -1.21284,-0.20594c0.70977,2.33607 1.31636,4.58719 1.83634,6.63778c0.72346,2.85303 1.74627,4.40831 1.85816,6.63436c2.19861,-0.79419 4.80273,-0.09575 7.1579,-0.4173c1.51584,-0.20697 3.08551,-0.43619 4.6586,-0.6283zM352.74267,481.48604c-0.36692,1.82692 -1.71877,6.94146 -1.20845,8.6093c0.46004,1.5035 3.15016,0.02062 4.71509,-0.13149c6.48157,-0.63014 11.43255,-2.91186 16.74379,-6.09715c2.61193,-1.56645 9.29695,-2.49328 10.07333,-6.0416c1.53272,-7.00502 -2.18068,-7.69119 -7.11905,-7.11891c-3.46071,2.03193 -7.65591,2.9121 -11.61813,3.60858l-0.23958,-0.05263l0.0024,0.06869l-7.25883,0.25494c-1.50666,2.25767 -3.12623,4.49121 -4.09056,6.90024zM366.05351,436.45314c0.10806,-0.1778 0.18944,-0.32787 0.23838,-0.44383c3.46024,-8.19706 -2.05354,-23.44999 -12.85393,-19.4204c-4.70804,1.75657 -8.03994,6.66399 -10.70271,10.71067l0.6517,0.48879c5.22459,3.99081 8.93459,11.1999 11.58695,18.44389c0.08475,-0.12643 0.17716,-0.24725 0.27656,-0.36186l4.3747,-5.10383l0.06433,0.05514c0.16759,-0.20846 0.34317,-0.41133 0.5277,-0.60797c1.54664,-1.64836 3.57371,-2.90718 5.8363,-3.76058z" fill="#000000" stroke="none" stroke-width="0.5" stroke-linecap="butt"/><path d="M356.70633,474.51304l7.31765,-0.31163l-0.00187,-0.06898l0.24306,0.05087c3.96223,-0.69652 8.31668,-1.55621 11.77739,-3.58814c4.93838,-0.57228 8.70051,0.19889 7.16779,7.20392c-0.77638,3.54832 -7.47857,4.57417 -10.0905,6.14062c-5.31124,3.18529 -10.50134,5.48763 -16.9829,6.11778c-1.56493,0.15215 -4.26842,1.61609 -4.72845,0.1126c-0.51032,-1.66784 0.8212,-6.84884 1.18815,-8.67576c0.9643,-2.40903 2.60306,-4.7236 4.10972,-6.98127z" fill="#d88800" stroke="none" stroke-width="0.5" stroke-linecap="butt"/><path d="M367.62803,464.71525c-2.3552,0.32158 -5.02613,-0.40723 -7.22475,0.38696c-0.11189,-2.22605 -1.17776,-3.83881 -1.90122,-6.69184c-0.51998,-2.05059 -1.13587,-4.38178 -1.84564,-6.71788c0.37953,0.13339 0.7877,0.206 1.21284,0.206c0.54028,0 1.05475,-0.12515 1.51625,-0.33548l5.07826,-2.22737l-0.12503,-0.29844l0.86174,-0.12801c1.29366,-1.45067 2.95521,-3.168 4.3816,-4.92079c3.0822,-1.01959 6.2892,-1.88976 9.80069,-1.22966c2.24819,0.42262 3.16987,8.40192 2.99336,9.093c-1.34977,5.28432 -5.38937,9.58243 -10.02562,12.23213c-1.57306,0.19211 -3.20665,0.42441 -4.72249,0.63137z" fill="#d88800" stroke="none" stroke-width="0.5" stroke-linecap="butt"/><path d="M360.28946,440.34092c-0.1845,0.19664 -0.3692,0.40428 -0.5368,0.61274l-0.06477,-0.05494l-4.43522,5.11793c-0.09943,0.11458 -0.19456,0.23546 -0.27928,0.36186c-2.65236,-7.24399 -6.50257,-14.63911 -11.72719,-18.62992l-0.65077,-0.49198c2.66277,-4.04668 6.11854,-9.05655 10.82657,-10.81309c10.80036,-4.0296 16.46413,11.42737 13.00386,19.62447c-0.04894,0.11596 -0.13284,0.27147 -0.2409,0.44927c-2.26259,0.8534 -4.34887,2.1753 -5.89554,3.82368z" fill="#d88800" stroke="none" stroke-width="0.5" stroke-linecap="butt"/><text transform="translate(303.98499,535.84428) scale(1.96645,1.96645)" font-size="40" xml:space="preserve" fill="#ffffff" stroke="none" stroke-width="1" stroke-linecap="butt" font-family="Handwriting" font-weight="normal" text-anchor="start"><tspan x="0" dy="0">INDO PARA:FAZENDA</tspan></text><text transform="translate(389.46073,657.96844) scale(2.2233,2.2233)" font-size="40" xml:space="preserve" fill="#ffffff" stroke="none" stroke-width="1" stroke-linecap="butt" font-family="Handwriting" font-weight="normal" text-anchor="start"><tspan x="0" dy="0">CARREGANDO</tspan></text></g></g></svg>