<svg version="1.1" xmlns="http://www.w3.org/2000/svg" xmlns:xlink="http://www.w3.org/1999/xlink" width="2335.48555" height="1368.47441" viewBox="0,0,2335.48555,1368.47441"><g transform="translate(297.67434,236.11826)"><g stroke="none" stroke-miterlimit="10"><path d="M-54.46462,849.68307v-885.88589h1533.4436v885.88589z" fill="#6454d1" stroke-width="0"/><text transform="translate(409.16732,64.72276) scale(2.61786,2.61786)" font-size="40" xml:space="preserve" fill="#ffffff" stroke-width="1" font-family="Handwriting" font-weight="normal" text-anchor="start"><tspan x="0" dy="0">MINIGAMES</tspan></text><path d="M-79.67545,90.98577c0,-2.5 2.5,-2.5 2.5,-2.5l0.23223,0.73223c6.82917,-6.7534 16.01372,-10.98143 24.82758,-14.54871c5.70084,-2.30732 11.33669,-5.0849 17.15901,-7.05835c7.50249,-2.54292 15.63655,-3.91597 23.32413,-5.83786c19.16228,-4.78805 37.75776,-11.02316 56.00479,-18.50912c6.05189,-2.48283 12.4393,-4.62497 18.31123,-7.50263c6.78011,-3.32272 13.16868,-8.24098 19.57604,-12.24558c6.90091,-4.31004 14.24282,-7.75075 21.34274,-11.71085c10.0114,-5.58403 19.5532,-12.14131 30.07172,-16.79688c2.98673,-1.32195 6.32212,-1.83458 9.1921,-3.39385c2.87388,-1.56139 5.1131,-4.09806 7.86074,-5.87221c0.09205,-0.05944 8.69616,-4.83748 8.88358,-4.9416c0,0 2.18539,-1.21411 3.3995,0.97129c1.21411,2.18539 -0.97129,3.3995 -0.97129,3.3995c-2.86563,1.59202 -5.84561,2.99303 -8.59956,4.77126c-0.9252,0.5974 -7.42963,5.65427 -8.186,6.06521c-0.66516,0.36138 -8.63934,3.16712 -9.5554,3.57258c-10.3719,4.59068 -19.7789,11.07946 -29.65089,16.58641c-7.02904,3.92105 -14.30816,7.31786 -21.13724,11.58914c-6.53345,4.08341 -13.03459,9.05311 -19.94398,12.45443c-5.99233,2.94988 -12.51458,5.14386 -18.69551,7.67963c-18.46967,7.5773 -37.2961,13.88304 -56.68989,18.73399c-7.5668,1.8917 -15.59274,3.22844 -22.97445,5.73678c-5.71372,1.94155 -11.24456,4.67655 -16.84099,6.94165c-8.13446,3.29235 -16.93481,7.13074 -23.17242,13.45129l-3.76777,0.73223c0,0 -2.5,0 -2.5,-2.5z" fill="#fffd66" stroke-width="0.5"/><path d="M-295.26073,281.48432c-2.49854,-0.08529 -2.41326,-2.58383 -2.41326,-2.58383l0.04326,-1.26722c0.04254,-1.24616 0.28313,-10.4498 0.6504,-11.11594c0.98779,-1.79162 3.25485,-2.4806 4.91816,-3.67182c4.05956,-2.90735 8.27469,-5.62679 12.4039,-8.43465c6.89105,-4.68592 13.78211,-9.37183 20.67316,-14.05775c4.13288,-2.81036 8.26893,-6.17348 12.646,-8.57999c3.9045,-2.1467 8.7065,-3.40559 12.85358,-5.01959c32.61685,-12.69413 65.23371,-25.38825 97.85056,-38.08238c32.01367,-12.45938 64.0657,-24.82042 95.96152,-37.57875c19.66684,-7.86674 38.94955,-16.50218 58.29978,-25.11612c12.0816,-5.37824 24.56219,-10.27034 36.22089,-16.51311c8.70099,-4.65529 17.93812,-8.84916 26.30833,-14.0695c8.23025,-5.13305 16.48162,-11.34228 24.09755,-17.35224c7.3977,-5.83775 13.72703,-13.03593 21.01582,-19.01268c3.35846,-2.75391 7.25106,-5.05042 10.8144,-7.52926c11.90531,-8.28195 23.91398,-17.54045 33.74576,-28.31194c4.45391,-4.8796 7.84912,-10.77957 12.105,-15.83764c2.64971,-3.14916 6.70003,-5.66462 8.93848,-9.08584c1.01589,-1.55267 0.97585,-3.73614 2.23692,-5.09721c0.95616,-1.03197 2.61634,-1.03519 3.92451,-1.55278c0,0 2.37171,-0.79057 3.16228,1.58114c0.79057,2.37171 -1.58114,3.16228 -1.58114,3.16228c-0.69183,0.14907 -1.64496,-0.11447 -2.07549,0.44722c-0.90042,1.17475 -0.67219,2.94534 -1.47698,4.18756c-2.36027,3.6431 -6.55001,6.29717 -9.34762,9.62939c-2.11093,2.51432 -3.98485,5.21848 -5.97908,7.82633c-11.22148,14.67424 -25.68784,26.64509 -40.79731,37.15603c-3.47384,2.41659 -7.28804,4.6502 -10.55844,7.3388c-7.27116,5.97764 -13.59985,13.15106 -20.98418,18.98732c-7.7678,6.13933 -16.1948,12.4673 -24.59451,17.70604c-8.46525,5.27962 -17.79624,9.52777 -26.59553,14.23565c-11.77151,6.29323 -24.3521,11.24396 -36.54624,16.6723c-19.40855,8.6399 -38.75005,17.30018 -58.47624,25.19066c-31.9103,12.76412 -63.97683,25.13089 -96.00503,37.59592c-32.61685,12.69413 -65.23371,25.38825 -97.85056,38.08238c-3.96367,1.54262 -8.61434,2.72432 -12.33968,4.78536c-4.20913,2.3287 -8.18214,5.58314 -12.16179,8.28931c-6.89105,4.68592 -13.78211,9.37183 -20.67316,14.05775c-4.12609,2.80574 -8.19432,5.75629 -12.4039,8.43465c-1.09057,0.69388 -2.72701,0.81932 -3.35111,1.95128c-0.62409,1.13196 0.14332,2.58274 0.13867,3.87533c-0.00599,1.66666 -0.11372,3.33139 -0.17058,4.99709l-0.04326,1.26722c0,0 -0.08529,2.49854 -2.58383,2.41326z" fill="#fffd66" stroke-width="0.5"/><path d="M253.5639,852.2185c0,2.5 -2.5,2.5 -2.5,2.5l-3.26927,-0.73223c-7.91566,-7.91566 -17.23929,-13.4387 -25.89419,-20.45031c-16.82401,-13.64109 -34.24978,-26.78557 -50.57843,-41.01307c-9.52032,-8.29526 -18.20352,-17.82817 -27.22591,-26.66643c-15.45808,-15.14261 -31.74503,-29.77607 -46.52351,-45.57875c-8.76719,-9.37479 -16.53662,-19.94904 -24.72868,-29.83418c-21.80001,-26.3055 -43.24633,-53.25663 -67.52361,-77.31525c-6.96502,-6.90229 -13.6344,-14.68859 -21.15281,-20.97484c-8.78129,-7.34217 -19.10736,-13.39719 -28.48231,-19.97581c-4.07007,-2.85606 -8.10795,-5.49493 -12.33123,-8.1006c-1.08702,-0.67067 -1.91389,-1.92202 -3.17023,-2.15227c-0.7206,-0.13206 -1.2104,0.82569 -1.8156,1.23853c0,0 -2.23607,1.11803 -3.3541,-1.11803c-1.11803,-2.23607 1.11803,-3.3541 1.11803,-3.3541c1.3968,-0.58816 2.68353,-1.92671 4.1904,-1.76447c2.05039,0.22076 3.69573,1.83276 5.5122,2.80912c4.50647,2.42226 8.54463,5.41721 12.72258,8.34897c9.49188,6.66067 19.9257,12.79824 28.81749,20.2328c7.62864,6.37843 14.39877,14.25653 21.46509,21.2592c24.39385,24.17414 45.94934,51.24461 67.85393,77.6763c8.13565,9.81708 15.84701,20.33342 24.55816,29.63896c14.72791,15.73282 30.946,30.30975 46.34311,45.39263c8.9649,8.78194 17.58958,18.27077 27.05462,26.50633c16.28052,14.16574 33.63542,27.26842 50.39982,40.86118c8.7869,7.13074 18.23204,12.74989 26.28071,20.79856l-0.26627,-0.73223c0,0 2.5,0 2.5,2.5z" fill="#fffd66" stroke-width="0.5"/><path d="M240.55188,908.27255c-2,1.5 -3.5,-0.5 -3.5,-0.5l-1.5045,-2.00601c-4.71155,-6.2821 -9.44089,-12.54246 -13.63191,-19.19227c-7.74411,-12.28743 -14.05744,-25.22747 -22.77874,-36.88161c-6.99009,-9.34075 -13.98019,-18.68151 -20.97028,-28.02226c-3.84134,-5.13312 -7.4005,-11.13804 -11.79874,-15.79381c-3.26821,-3.45957 -7.62671,-6.39351 -11.27121,-9.45893c-8.88886,-7.47651 -17.78204,-14.9479 -26.6635,-22.4332c-29.27762,-18.94975 -58.50413,-37.70646 -88.52256,-55.46431c-30.12492,-17.82084 -60.26225,-35.62084 -90.35831,-53.49038c-9.96159,-5.91469 -19.77625,-12.3014 -29.97154,-17.80024c-6.62403,-3.57268 -13.91832,-6.25887 -20.78376,-9.34832c-3.00134,-1.3506 -5.94207,-2.84448 -9.00271,-4.05472c-4.34585,-1.71844 -9.91486,-2.32561 -13.91844,-4.70661c-1.38141,-0.82155 -2.30429,-2.24124 -3.45644,-3.36186c0,0 -1.76777,-1.76777 0,-3.53553c1.76777,-1.76777 3.53553,0 3.53553,0c3.40156,3.52775 6.88669,4.01761 11.51264,5.56134c4.62229,1.54251 8.93962,3.53905 13.38124,5.53778c6.95403,3.12932 14.32391,5.85935 21.03787,9.47141c10.2831,5.53223 20.17679,11.97533 30.2183,17.93748c30.09374,17.86816 60.22876,35.66679 90.35135,53.48626c30.16443,17.84421 59.56765,36.65026 88.95223,55.74938c8.97483,7.53458 17.93873,15.08218 26.90654,22.6251c3.79129,3.18889 8.28843,6.25382 11.68738,9.85177c4.53187,4.79722 8.21013,10.94374 12.1673,16.23164c6.99009,9.34075 13.98019,18.68151 20.97028,28.02226c8.81006,11.77275 15.19477,24.82311 23.01836,37.23187c4.11554,6.52754 8.76364,12.67049 13.38911,18.83776l1.5045,2.00601c0,0 1.5,2 -0.5,3.5z" fill="#fffd66" stroke-width="0.5"/><path d="M391.24468,883.68991c-1.44139,2.04265 -3.48403,0.60126 -3.48403,0.60126l-3.08236,-2.17506c-8.20794,-5.7919 -17.20709,-10.19319 -25.45743,-15.85096c-3.61578,-2.47956 -6.87229,-5.91678 -10.18796,-8.77818c-3.77802,-3.2604 -8.03316,-6.37536 -11.51347,-9.94839c-8.0834,-8.29879 -14.96721,-18.27978 -22.30647,-27.25063c-11.6146,-14.19664 -23.41186,-28.26523 -34.78763,-42.65386c-21.70625,-27.45612 -43.4125,-54.91225 -65.11875,-82.36837c-21.4007,-27.06963 -42.80385,-54.24943 -66.44929,-79.3815c-17.05022,-18.1222 -33.73177,-36.70031 -52.55176,-53.04044c-6.84527,-5.94329 -14.7059,-11.02492 -21.96085,-16.46613c-14.62891,-10.97168 -29.01812,-22.3967 -43.94393,-32.95915c-13.55738,-9.59407 -27.69607,-18.46289 -41.51612,-27.67626c-12.36731,-8.24487 -23.97897,-17.25439 -35.70912,-26.37857c-4.83542,-3.76118 -10.23276,-7.02403 -14.88433,-10.98817c-6.32052,-5.38644 -11.94944,-11.93824 -17.82387,-17.81267c0,0 -1.76777,-1.76777 0,-3.53553c1.76777,-1.76777 3.53553,0 3.53553,0c5.77973,5.77973 11.31344,12.24357 17.53147,17.54267c4.59245,3.91375 9.93593,7.13336 14.71091,10.84695c11.63503,9.04876 23.14702,17.98781 35.41292,26.16508c13.85861,9.23907 28.03521,18.13398 41.63048,27.75481c14.9637,10.58921 29.3901,22.04137 44.05607,33.04085c7.32955,5.49716 15.24777,10.63651 22.17128,16.63297c18.98786,16.44541 35.79955,35.18369 52.98293,53.44742c23.74385,25.23667 45.24032,52.52462 66.73,79.7068c21.70625,27.45612 43.4125,54.91225 65.11875,82.36837c11.35795,14.36713 23.1383,28.41367 34.73522,42.5887c7.24654,8.85752 14.03794,18.73495 22.01828,26.92794c3.37984,3.4699 7.52993,6.48591 11.19846,9.65182c3.19485,2.75713 6.338,6.11339 9.82656,8.4942c8.25619,5.63452 17.23177,10.04646 25.4349,15.83497l3.08236,2.17506c0,0 2.04265,1.44139 0.60126,3.48403z" fill="#fffd66" stroke-width="0.5"/><path d="M1820.01925,360.68038c0.35355,2.47487 -2.12132,2.82843 -2.12132,2.82843c-1.64992,0.2357 -3.91085,0.55869 -5.56076,0.79439c-19.29228,2.7522 -38.24121,7.80118 -57.42577,11.20547c-14.41569,2.55806 -28.91356,3.8567 -43.13775,7.41275c-2.03089,0.50772 -4.0867,0.98215 -6.15197,1.44957c-0.2734,0.24983 -0.54681,0.49967 -0.82021,0.7495c-13.53385,12.36714 -27.0677,24.73427 -40.60154,37.10141c-7.24345,6.61901 -15.33141,12.90012 -21.99935,20.09124c-4.42349,4.77056 -8.17983,10.45159 -12.19485,15.57486c-11.25451,14.36107 -22.3058,28.95819 -33.53884,43.40297c15.16719,-8.58977 30.27406,-17.39829 45.74732,-25.35661c11.86743,-6.10374 24.00979,-11.72668 36.00161,-17.58315c8.99175,-4.39132 17.89231,-9.15687 27.04269,-13.20491c22.83344,-10.10131 46.57154,-18.5338 69.77267,-27.76605c8.94473,-3.54867 17.30821,-8.8126 25.76726,-13.39458c3.9836,-2.15778 9.28372,-4.08731 12.82403,-6.90272c3.21341,-2.55545 5.08007,-6.80965 8.28393,-9.40392c1.379,-1.11662 2.945,-1.98013 4.41749,-2.9702l0.34425,-0.2295c0,0 2.08013,-1.38675 3.46688,0.69338c1.38675,2.08013 -0.69338,3.46688 -0.69338,3.46688l-0.34425,0.2295c-1.301,0.85893 -2.68471,1.60411 -3.90301,2.5768c-3.26616,2.60771 -5.17665,6.93957 -8.4598,9.55048c-3.76912,2.99737 -9.31016,5.08663 -13.55473,7.38577c-8.6393,4.67962 -17.17175,10.00131 -26.30005,13.64383c-23.14238,9.20888 -46.82295,17.61721 -69.59845,27.69288c-9.09254,4.02245 -17.93636,8.7616 -26.87136,13.12521c-11.95239,5.83721 -24.05428,11.4422 -35.88379,17.52367c-18.68512,9.6059 -36.83226,20.46336 -55.19941,30.66734c-0.29172,0.16207 -0.58345,0.32414 -0.87517,0.48621c-7.71119,9.75795 -15.54856,19.40294 -23.63314,28.81286c-22.80848,26.54757 -45.61695,53.09514 -68.42543,79.64271c-12.7884,14.88486 -25.67099,29.68182 -38.59349,44.45038c-9.54984,10.91411 -18.73002,21.69805 -29.59892,31.30935c-26.21907,23.18535 -52.43815,46.37069 -78.65722,69.55604c-19.12909,16.91573 -38.95384,32.9827 -58.8612,48.96148c-4.25599,5.20199 -8.45506,10.46884 -12.05937,15.98956c-3.55996,5.45279 -6.31542,11.68179 -9.41752,17.41113c-2.3803,4.39623 -4.72588,8.81398 -7.14195,13.19063c-0.70668,1.28013 -1.79655,2.40306 -2.15565,3.82052c-0.3591,1.41745 0.06464,2.92385 0.07656,4.38604c0.02719,3.33322 0,6.66667 0,10c0,0 0,2.5 -2.5,2.5c-2.5,0 -2.5,-2.5 -2.5,-2.5c0,-4.60943 -1.04933,-11.16984 0.07656,-15.61396c0.45961,-1.81418 1.72647,-3.3211 2.60565,-4.97323c2.34859,-4.41341 4.76157,-8.79426 7.14195,-13.19063c3.16771,-5.85052 5.99214,-12.19532 9.62767,-17.76387c0.10384,-0.15906 0.20817,-0.3179 0.31296,-0.47655c-2.10778,1.69254 -4.21466,3.38636 -6.31991,5.08236c-14.35739,11.56647 -29.20562,22.2264 -44.23893,32.8952c-7.704,5.46735 -18.7499,10.86737 -23.02845,19.66322c0,0 -1.11803,2.23607 -3.3541,1.11803c-2.23607,-1.11803 -1.11803,-3.3541 -1.11803,-3.3541c4.95587,-9.70248 15.98408,-15.3853 24.60685,-21.50468c14.95076,-10.61021 29.71755,-21.20854 43.99588,-32.71133c7.28473,-5.86866 14.58922,-11.71094 21.88311,-17.56446c2.99396,-3.65754 6.00525,-7.28717 8.85358,-10.95318c5.11737,-6.58644 9.99805,-13.48581 15.41064,-19.83037c5.41259,-6.34456 11.45686,-12.25127 17.15481,-18.34241c12.5243,-13.38854 25.0486,-26.77708 37.5729,-40.16562c23.39218,-25.00636 44.5762,-51.92329 66.32036,-78.36889c8.11744,-9.86837 17.59657,-18.54615 25.79699,-28.3305c5.34403,-6.37624 9.84245,-13.66653 15.52127,-19.74277c9.03563,-9.66798 20.03037,-18.06675 29.86448,-26.93074c9.90393,-8.92692 19.80786,-17.85385 29.71178,-26.78077c4.50761,-4.06295 8.9365,-9.11225 13.94002,-12.54331c4.12053,-2.82557 8.98152,-5.00805 13.35151,-7.43582c8.15929,-4.53294 16.31858,-9.06588 24.47787,-13.59882c13.80305,-17.49148 27.20919,-35.33742 40.91852,-52.8309c4.10077,-5.2327 7.94528,-11.01708 12.46358,-15.88997c6.76359,-7.29439 14.94663,-13.66975 22.29324,-20.38303c11.62222,-10.6203 23.24444,-21.24061 34.86666,-31.86091c-2.70275,0.67364 -5.37907,1.40795 -7.99384,2.2627c-9.04144,2.95557 -17.88744,7.46424 -26.52662,11.42387c-14.5298,6.65949 -29.06341,13.30587 -43.63888,19.86483c-31.02542,13.96144 -61.46471,29.28898 -91.86346,44.55996c-20.81282,10.45543 -41.28331,21.32657 -61.1571,33.50852c-9.30333,5.70262 -18.22808,12.1534 -27.30834,18.20691c-14.7331,9.81346 -26.7332,22.4121 -39.18665,34.86555c-11.32848,11.32848 -22.88868,22.34381 -34.57639,33.30103c-6.82655,6.3693 -11.80081,14.75621 -17.26892,22.30742c-5.79495,8.00255 -12.12834,15.82608 -17.48198,24.12746c-2.17984,3.38007 -3.7133,7.46273 -5.50727,11.05904c-4.46074,8.94227 -8.9214,17.88458 -13.38229,26.82678c-15.09332,31.55258 -30.38337,63.00682 -44.78386,94.88223c-8.87801,19.65142 -15.46207,40.15009 -20.82159,61.00046c-0.85494,3.32601 -1.92588,6.60377 -3.19965,9.79294c-1.50981,3.78018 -3.60827,7.25516 -3.5351,11.35929c0,0 0,2.5 -2.5,2.5c-2.5,0 -2.5,-2.5 -2.5,-2.5c0.09965,-7.67825 4.98454,-14.94333 6.89153,-22.39451c5.40806,-21.13089 12.11417,-41.90843 21.10823,-61.81673c14.42116,-31.92115 29.73189,-63.42123 44.84794,-95.01856c4.46673,-8.95466 8.93369,-17.90922 13.40057,-26.8638c1.85919,-3.72704 3.4554,-7.90736 5.70515,-11.41807c5.40151,-8.42903 11.8358,-16.359 17.70861,-24.46907c5.67213,-7.83294 10.84776,-16.38325 17.89893,-23.02255c11.64857,-10.92054 23.17004,-21.89836 34.46056,-33.18888c12.69054,-12.69054 24.94416,-25.47883 39.94868,-35.49027c9.1223,-6.08153 18.08946,-12.55622 27.43422,-18.28813c20.00052,-12.26797 40.61084,-23.21092 61.56023,-33.73496c30.46232,-15.30291 60.96582,-30.66101 92.05612,-44.65165c14.56497,-6.55424 29.08809,-13.19585 43.60743,-19.85054c8.80679,-4.03645 17.82068,-8.60892 27.0376,-11.6249c5.52503,-1.80791 11.31685,-3.08978 17.05949,-4.38667c6.58906,-6.18648 13.06168,-13.08275 20.11852,-18.72944l-0.01834,-0.01359c-3.99579,-2.96358 -8.72079,-5.44098 -12.49253,-8.6502c-3.50563,-2.98279 -6.47699,-7.30875 -9.52015,-10.75767c-16.55773,-18.76543 -31.75431,-38.60723 -48.03725,-57.60398c-6.25837,-7.30143 -12.16275,-15.3053 -19.35056,-21.69917c-25.97346,-23.16552 -51.85611,-46.27447 -78.75101,-68.36671c-26.73379,-21.9599 -54.52439,-42.61882 -81.98905,-63.65558c-27.01733,-20.69413 -53.98194,-41.33416 -81.73115,-61.03732c-17.00074,-13.46752 -33.99738,-26.94021 -50.9958,-40.41065c-10.06255,-7.9741 -19.87457,-17.03025 -30.78064,-23.80389c-29.68357,-18.4767 -59.12693,-37.42923 -89.29076,-55.11148c-9.96155,-5.83953 -19.77724,-12.37244 -30.05689,-17.62524c-5.63557,-2.87972 -11.78409,-5.04499 -17.60239,-7.53855c-10.56952,-4.5298 -21.16722,-8.98367 -31.78193,-13.40647c0,0 -2.30769,-0.96154 -1.34615,-3.26923c0.96154,-2.30769 3.26923,-1.34615 3.26923,-1.34615c10.63025,4.42927 21.24346,8.8897 31.82845,13.42613c5.91523,2.5351 12.15559,4.74484 17.88632,7.6709c10.37479,5.29729 20.28024,11.88273 30.33197,17.77512c30.20205,17.70465 59.68321,36.68003 89.40438,55.18013c11.06284,6.90026 21.02485,16.03195 31.24382,24.13c16.9639,13.44309 33.92964,26.88387 50.89116,40.32996c27.76937,19.70289 54.74074,40.36351 81.77077,61.06736c27.50974,21.07129 55.34466,41.76537 82.12236,63.76134c26.94727,22.13525 52.88142,45.28829 78.90539,68.49886c7.34768,6.56938 13.40697,14.69626 19.81876,22.17669c16.26738,18.97862 31.44841,38.80253 47.99015,57.54983c2.89519,3.28122 5.71941,7.46904 9.06002,10.29987c3.67678,3.11569 8.2907,5.51591 12.1814,8.39965l1.20959,0.89683c6.30664,-4.46762 13.18252,-8.34307 19.67196,-12.50611c12.62541,-8.09932 25.25082,-16.19864 37.87623,-24.29796c6.47959,-4.15672 12.88641,-9.00425 19.65469,-12.72171c-0.27945,-0.34822 -0.56432,-0.70458 -0.85654,-1.06986c-7.83755,-9.79693 -17.18545,-17.74134 -26.45158,-26.19054c-15.99926,-14.58871 -32.47569,-28.58118 -48.94269,-42.63838c-26.21571,-22.37926 -51.84251,-45.36469 -77.49223,-68.38951c-17.38422,-15.60518 -35.02585,-30.55922 -53.26767,-45.15267c-8.41136,-6.72909 -16.60059,-14.18277 -25.56268,-20.15663c-15.24614,-10.18167 -30.49228,-20.36333 -45.73842,-30.545c-13.99057,-9.34318 -27.88823,-18.42269 -40.89975,-29.09881c-15.41851,-12.65108 -30.54368,-25.81173 -46.32183,-38.00931c-11.60237,-8.96942 -23.89435,-17.17249 -35.80369,-25.73233c-16.10123,-11.57276 -33.56375,-20.68618 -50.86496,-30.35489c-12.85403,-7.18343 -25.64385,-15.70638 -39.27247,-21.27953c-13.90139,-5.69988 -27.78815,-11.39388 -41.55332,-17.41614c-7.57326,-3.3133 -15.20883,-6.3841 -22.9015,-9.40892c-3.01209,-1.18438 -5.90084,-2.74223 -9.03008,-3.56887c-3.12924,-0.82664 -6.41048,-0.8987 -9.61453,-1.35642c0,0 -2.47487,-0.35355 -2.12132,-2.82843c0.35355,-2.47487 2.82843,-2.12132 2.82843,-2.12132c0.36433,0.05205 9.9993,1.42309 10.18446,1.472c0.18515,0.04891 9.24022,3.61516 9.58273,3.74984c7.75115,3.04782 15.44503,6.14282 23.07592,9.48134c13.72959,6.00669 27.58061,11.68554 41.44608,17.3707c13.81602,5.6791 26.77475,14.25371 39.81479,21.54108c17.46795,9.76189 35.08647,18.97442 51.34396,30.65949c11.95286,8.59112 24.2862,16.82658 35.93195,25.82766c15.82152,12.22856 30.98734,25.42386 46.44697,38.10869c12.88378,10.57131 26.65084,19.55408 40.50498,28.80614c15.24614,10.18167 30.49228,20.36333 45.73842,30.545c9.07647,6.07195 17.3814,13.58797 25.90934,20.41033c18.31517,14.65213 36.03009,29.6683 53.48421,45.33623c25.61884,22.9971 51.2144,45.95517 77.39853,68.30747c16.50845,14.09258 33.02572,28.12109 49.06529,42.74655c9.4627,8.62843 18.98076,16.7539 26.98701,26.76171c0.53804,0.67254 1.0424,1.31058 1.52992,1.9201c3.47835,-1.55437 7.1299,-2.88271 10.58084,-4.36169c2.49343,-1.06861 4.87156,-2.46866 7.48596,-3.19258c6.43452,-1.78169 13.3419,-2.58043 19.90069,-3.84174c11.37909,-2.18829 22.50424,-4.585 33.68469,-7.63421c12.62447,-3.44304 25.14103,-7.38647 37.81445,-10.61797l1.80851,-0.46093c0,0 2.42256,-0.61743 3.03999,1.80513c0.61743,2.42256 -1.80513,3.03999 -1.80513,3.03999l-1.80851,0.46093c-12.64679,3.22175 -25.13637,7.16104 -37.73372,10.59668c-11.30217,3.08241 -22.55344,5.50839 -34.05604,7.72043c-6.38767,1.2284 -13.10688,2.00237 -19.37956,3.71216c-2.44483,0.6664 -4.65259,2.00965 -6.98173,3.00786c-2.96974,1.27275 -6.09703,2.42551 -9.12394,3.71875c1.24148,1.25305 2.62487,2.41922 4.40347,3.58855l0.34425,0.2295c0,0 2.08013,1.38675 0.69338,3.46688c-1.38675,2.08013 -3.46688,0.69338 -3.46688,0.69338l-0.34425,-0.2295c-2.62952,-1.77397 -4.54809,-3.53431 -6.35098,-5.51909c-6.99308,3.70835 -13.57726,8.74791 -20.23813,13.02092c-12.62541,8.09932 -25.25082,16.19864 -37.87623,24.29796c-6.8492,4.39382 -14.13139,8.46017 -20.70454,13.25671c-0.19421,0.19323 -0.39379,0.33701 -0.59376,0.44117c-3.18117,2.42364 -6.04671,5.60913 -8.98256,8.29189c-2.1172,1.93468 -4.2344,3.86937 -6.3516,5.80405c13.49057,-3.116 27.19647,-4.42831 40.83717,-6.84991c19.23629,-3.41497 38.23502,-8.46261 57.57883,-11.22976c1.64992,-0.2357 3.29983,-0.4714 4.94975,-0.70711l0.61102,-0.08729c0,0 2.47487,-0.35355 2.82843,2.12132zM1346.23124,761.54702c26.21907,-23.18535 52.43815,-46.37069 78.65722,-69.55604c10.70779,-9.46882 19.73843,-20.10223 29.14823,-30.85629c12.91257,-14.75722 25.78528,-29.54278 38.56386,-44.41621c22.80848,-26.54757 45.61695,-53.09514 68.42543,-79.64271c5.40947,-6.29627 10.70789,-12.69822 15.93174,-19.169c-4.61855,2.56586 -9.23709,5.13172 -13.85564,7.69758c-4.20784,2.33769 -8.89761,4.42344 -12.87321,7.13347c-4.84321,3.30146 -9.14113,8.26093 -13.49894,12.18885c-9.90393,8.92692 -19.80786,17.85385 -29.71178,26.78077c-6.18996,5.57933 -12.37991,11.15866 -18.56987,16.73798c-3.60123,3.24598 -7.68002,6.35203 -10.98923,9.89283c-5.62409,6.01769 -10.0735,13.25905 -15.36981,19.57314c-8.18547,9.75846 -17.64528,18.41323 -25.7393,28.26161c-21.81203,26.52814 -43.06575,53.52454 -66.53106,78.60908c-12.5243,13.38854 -25.0486,26.77708 -37.5729,40.16562c-5.64569,6.03527 -11.63953,11.88554 -17.00237,18.17179c-3.65064,4.27924 -7.05571,8.81539 -10.4573,13.33431c14.01885,-11.38992 27.90678,-22.93508 41.44494,-34.90679z" fill="#fffd66" stroke-width="0.5"/><path d="M2037.49816,424.48046c1.11803,2.23607 -1.11803,3.3541 -1.11803,3.3541l-0.06474,0.03237c-4.12479,2.0624 -8.1853,4.1653 -12.45092,5.92053c-12.33259,5.06805 -24.66517,10.1361 -36.99776,15.20415c-6.08064,2.49883 -12.44307,4.68829 -18.36373,7.5418c-13.38314,6.4501 -26.19767,14.60086 -39.17921,21.83343c-30.37355,16.92241 -60.80177,33.64389 -90.53063,51.67834c-29.92436,18.15304 -59.84871,36.30608 -89.77307,54.45912c-15.67466,9.50874 -31.34933,19.01747 -47.02399,28.52621c-7.04496,4.27369 -14.46437,8.22865 -21.25651,12.89024c-6.79214,4.66159 -13.15047,10.16259 -19.67157,15.19958c-27.69918,21.39523 -55.39835,42.79045 -83.09753,64.18568c-27.69918,21.39523 -55.39835,42.79045 -83.09753,64.18568c-10.4617,8.08076 -21.5433,15.72862 -31.54851,24.36361c-4.92402,4.24968 -9.43188,9.13301 -14.10682,13.65715c-10.7892,10.44116 -21.57791,20.88284 -32.36786,31.32323c-5.69432,5.14909 -11.21739,10.63877 -17.15391,15.50422c-5.16433,4.23258 -10.79606,8.00985 -16.16021,11.98781c-3.68588,2.73339 -8.37087,7.53622 -12.60138,9.24495c-1.73987,0.70275 -3.71215,0.55185 -5.57111,0.80738c-2.68405,0.36896 -9.00098,1.44089 -11.47957,0.36149c-1.38834,-0.60461 -1.86339,-2.39069 -2.70714,-3.64812c-1.05961,-1.57911 -2.46224,-3.02919 -2.99783,-4.85387c-0.53559,-1.82469 -0.06747,-3.80274 -0.1012,-5.70411c0,0 0,-2.5 2.5,-2.5c2.5,0 2.5,2.5 2.5,2.5c-0.03373,1.43196 -0.50462,2.92151 -0.1012,4.29589c0.40342,1.37438 1.67157,2.33053 2.40701,3.55967c0.36928,0.61718 0.22168,1.715 0.89702,1.96237c1.14311,0.41869 2.4297,-0.16708 3.63973,-0.30066c3.05134,-0.33685 6.29529,0.03356 9.14174,-1.11615c1.35127,-0.54579 2.30019,-1.79026 3.46328,-2.66835c2.66032,-2.00843 5.35489,-3.9711 8.03233,-5.95665c5.29911,-3.92974 10.86747,-7.65759 15.96911,-11.83879c5.8521,-4.79626 11.29304,-10.214 16.90775,-15.28863c10.7681,-10.42226 21.53747,-20.84322 32.30634,-31.2647c4.74189,-4.58892 9.31771,-9.53398 14.31208,-13.84501c10.07539,-8.69686 21.22843,-16.40202 31.7639,-24.53976c27.69918,-21.39523 55.39835,-42.79045 83.09753,-64.18568c27.69918,-21.39523 55.39835,-42.79045 83.09753,-64.18568c6.59557,-5.09451 13.02874,-10.65004 19.89868,-15.36503c6.86994,-4.71499 14.36715,-8.72017 21.49257,-13.04267c15.67466,-9.50874 31.34933,-19.01747 47.02399,-28.52621c29.92436,-18.15304 59.84871,-36.30608 89.77307,-54.45912c29.78161,-18.06645 60.26302,-34.81887 90.69041,-51.77127c13.06843,-7.28098 25.96875,-15.47628 39.44191,-21.96976c6.01,-2.89656 12.46182,-5.12589 18.63403,-7.66235c12.33259,-5.06805 24.66517,-10.1361 36.99776,-15.20415c4.15281,-1.70424 8.10109,-3.76081 12.11537,-5.76795l0.06474,-0.03237c0,0 2.23607,-1.11803 3.3541,1.11803z" fill="#fffd66" stroke-width="0.5"/><path d="M1613.34017,350.02042c-2.00177,0 -2.40071,-1.60283 -2.48021,-2.2417c-2.60622,-0.951 -5.2039,-1.92557 -7.79717,-2.91128c-2.93277,-3.63881 -5.86203,-8.79623 -9.3256,-11.93019c-2.98294,-2.69907 -8.41253,-3.67385 -11.80991,-5.85665c-3.79395,-2.4376 -7.50001,-6.22696 -10.82627,-9.25741c-14.32785,-13.05365 -27.52376,-27.57449 -40.25497,-42.15102c-9.8689,-11.29934 -20.11647,-22.36562 -29.64946,-33.94862c-12.7055,-15.43774 -24.55163,-31.67777 -36.80002,-47.48215c-11.96335,-15.43658 -23.55199,-31.37286 -36.14239,-46.30069c-9.383,-11.12498 -19.90266,-21.47073 -29.79722,-32.14644c-9.98753,-10.77601 -20.18436,-21.39615 -29.90548,-32.41296c-6.49019,-7.35525 -12.62785,-15.5431 -19.69616,-22.33691c-6.90612,-6.63792 -15.35573,-12.20244 -22.85721,-18.16953c-14.23896,-11.32645 -28.10613,-23.59273 -42.92119,-34.14777c-13.11789,-9.34588 -27.80704,-17.05298 -41.54107,-25.47821c-9.94456,-6.10056 -19.88912,-12.20111 -29.83369,-18.30167c-4.11875,-2.52667 -8.25492,-5.5943 -12.58559,-7.73299c-4.33067,-2.1387 -9.28072,-3.55829 -13.79064,-5.29288c-7.77788,-2.99149 -15.55576,-5.98298 -23.33364,-8.97448c0,0 -2.33336,-0.89745 -1.43592,-3.23081c0.89745,-2.33336 3.23081,-1.43592 3.23081,-1.43592c7.77788,2.99149 15.55576,5.98298 23.33364,8.97448c4.65273,1.78951 9.74255,3.27038 14.20973,5.47649c4.46718,2.20611 8.73697,5.34747 12.98614,7.95415c9.94456,6.10056 19.88912,12.20111 29.83369,18.30167c13.82308,8.47986 28.58694,16.24514 41.79542,25.64511c14.90285,10.60578 28.84726,22.94077 43.16493,34.32982c7.61924,6.06076 16.16965,11.7183 23.1888,18.45798c7.17865,6.89282 13.41396,15.18758 20.00114,22.65336c9.69363,10.98657 19.86369,21.57619 29.82344,32.32224c9.9424,10.72732 20.50462,21.12551 29.93572,32.30226c12.64363,14.9839 24.27827,30.98335 36.28882,46.48083c12.21841,15.76569 24.03422,31.96775 36.70857,47.36766c9.50185,11.54517 19.71799,22.57437 29.55469,33.83685c12.61463,14.44306 25.68464,28.84287 39.88636,41.77153c3.13588,2.85478 6.61575,6.47248 10.19475,8.76061c3.64931,2.33307 8.96006,3.27867 12.21412,6.15536c3.4643,3.06255 6.33009,8.02541 9.09261,11.75038c2.74012,0.91714 5.46969,1.86637 8.18806,2.84607l1.65237,3.85342c0,0 0,2.5 -2.5,2.5z" fill="#ff6666" stroke-width="0.5"/><path d="M1094.08692,1131.57047c-1.76777,1.76777 -3.53553,0 -3.53553,0l-2.23373,-3.26927c0,-16.05248 -4.50601,-31.73975 -6.85582,-47.59409c-1.70218,-11.4897 -4.46309,-23.32613 -5.15513,-34.91548c-0.44279,-7.41536 1.37216,-15.63273 2.03047,-23.03867c1.34128,-15.08939 2.61087,-30.18724 4.06435,-45.26624c9.02912,-19.2498 18.43559,-38.33008 27.66976,-57.48245c5.66149,-11.74235 10.54976,-23.84868 18.45845,-34.24076c21.19611,-27.85184 42.39221,-55.70368 63.58832,-83.55552c21.236,-27.90426 43.80397,-54.63987 66.25079,-81.57606c8.34519,-10.004 18.3379,-18.55533 27.32343,-27.97641c14.456,-15.15672 27.82509,-31.53694 41.68441,-47.24417c8.65292,-9.80419 16.61658,-20.25561 24.82518,-30.43427c13.6013,-16.86562 27.20261,-33.73123 40.80391,-50.59685c11.50879,-14.27091 23.01759,-28.54181 34.52638,-42.81272c5.1708,-6.41179 10.78304,-12.65293 15.59814,-19.33367c4.55565,-6.32074 8.27941,-13.46365 12.36421,-20.10146c11.20978,-18.2159 22.42278,-36.38678 33.07424,-54.93453c2.54913,-4.43889 4.67429,-6.81119 8.35701,-10.34211c0.97393,-0.93378 2.44306,-1.49265 2.9936,-2.72448c0.48324,-1.08122 -0.12687,-2.3652 -0.1903,-3.5478c0,0 0,-2.5 2.5,-2.5c2.5,0 2.5,2.5 2.5,2.5c-0.06343,1.8204 0.53648,3.79098 -0.1903,5.46121c-0.79265,1.8216 -2.69735,2.91768 -4.07747,4.34659c-3.42453,3.54559 -5.12437,5.01744 -7.55133,9.28727c-10.59515,18.64038 -21.9209,36.81539 -33.15716,55.07433c-4.14147,6.72988 -7.92403,13.95438 -12.53909,20.36641c-4.87252,6.76974 -10.55247,13.09309 -15.78948,19.58699c-11.50879,14.27091 -23.01759,28.54181 -34.52638,42.81272c-13.6013,16.86562 -27.20261,33.73123 -40.80391,50.59685c-8.2553,10.23658 -16.26831,20.74149 -24.96805,30.60361c-13.89437,15.74695 -27.30117,32.16026 -41.78946,47.35955c-8.91168,9.34901 -18.85805,17.82115 -27.12646,27.75385c-22.39962,26.87955 -44.92177,53.55764 -66.11306,81.40315c-21.19611,27.85184 -42.39221,55.70368 -63.58832,83.55552c-7.69484,10.11107 -12.42265,21.95445 -17.93345,33.38424c-9.1033,18.88093 -17.98708,37.88792 -27.35337,56.63959c-1.18304,14.8024 -2.58945,29.58901 -3.90423,44.3803c-0.4427,4.98036 -0.8854,9.96073 -1.3281,14.94109c-0.22253,2.50347 -0.84715,5.00075 -0.68487,7.50884c0.73759,11.39942 3.4282,23.02198 5.10328,34.32877c2.3858,16.11128 6.9098,32.00826 6.9098,48.32683l0.76927,-0.26627c0,0 1.76777,1.76777 0,3.53553z" fill="#ff6666" stroke-width="0.5"/><path d="M408.166,866.04144c2.5,0 2.5,2.5 2.5,2.5v0.51051c0,1.66667 0.17158,3.34219 0,5c-0.24983,2.4139 0.7249,5.77377 -1.2596,7.17058c-3.08168,2.16907 -8.90962,-5.01795 -9.81024,-6.45196c-3.0623,-4.87595 -3.41554,-11.13142 -6.95569,-15.75616c-11.85356,-15.80475 -23.21944,-31.77588 -37.28073,-45.74979c-10.4545,-10.38953 -22.32515,-19.32583 -32.75732,-29.75423c-24.33591,-24.33591 -48.09526,-49.10289 -71.68836,-74.15904c-11.42765,-12.1363 -23.19612,-24.03219 -34.31855,-36.44785c-12.23331,-13.65568 -23.82047,-27.95505 -35.7116,-41.91075c-14.04585,-16.48453 -28.67722,-32.62536 -42.2056,-49.53529c-8.33131,-10.4138 -16.0519,-21.38621 -24.05765,-32.05341c-6.97407,-9.29253 -13.68845,-18.86824 -20.95933,-27.92926c-14.14059,-17.62208 -29.41823,-34.53308 -44.37059,-51.47095c-4.34878,-4.92626 -8.49527,-10.23013 -13.13259,-14.88337c-4.63733,-4.65324 -9.92697,-8.81786 -14.8383,-13.18349c-3.48367,-3.0966 -7.03909,-7.17791 -10.92371,-9.74507c-2.63996,-1.74463 -5.74603,-2.65253 -8.61351,-3.99068c-4.29967,-2.00651 -8.79823,-4.74176 -13.30053,-6.22866c-7.39819,-2.44328 -16.08017,-2.99489 -23.74841,-4.43295c-6.131,-1.29822 -12.34614,-3.55365 -18.49953,-4.51061c-6.33754,-0.9856 -13.28923,-0.5455 -19.7035,-0.81637c-15.13798,-0.63927 -30.24199,-0.63066 -45.39167,-0.63066c0,0 -2.5,0 -2.5,-2.5c0,-2.5 2.5,-2.5 2.5,-2.5c15.22,0 30.39431,-0.00714 45.60263,0.63511c6.60319,0.27885 13.73533,-0.14352 20.26088,0.87131c6.22688,0.96839 12.5089,3.23437 18.70995,4.54796c7.86538,1.47448 16.70502,2.07634 24.29963,4.57606c4.70081,1.54724 9.39597,4.36304 13.88496,6.4579c0.33073,0.15434 9.04882,4.21353 9.24604,4.34377c4.08622,2.6985 7.83313,6.92768 11.49857,10.18585c4.98692,4.43282 10.34922,8.66606 15.05807,13.39106c4.70884,4.725 8.9237,10.10177 13.33941,15.10384c15.00417,16.99657 30.33224,33.96746 44.5219,51.65069c7.3048,9.10328 14.05211,18.72142 21.05866,28.05724c7.97475,10.62588 15.66392,21.55775 23.96291,31.93116c13.49605,16.86952 28.0948,32.97084 42.10713,49.41603c11.86426,13.92416 23.4243,28.19249 35.62994,41.81729c11.09477,12.38477 22.83536,24.25031 34.2346,36.35644c23.55881,25.01975 47.28314,49.75064 71.58368,74.05117c10.41994,10.42381 22.28345,19.34956 32.7322,29.72929c14.24095,14.14688 25.76795,30.30711 37.77032,46.31027c3.59609,4.8712 4.15547,11.04157 7.21306,16.13418c0.46813,0.77971 1.18264,1.3768 1.83351,2.0224c-0.29302,-1.57623 -0.02105,-3.21661 -0.02105,-5.11905v-0.51051c0,0 0,-2.5 2.5,-2.5z" fill="#ff6666" stroke-width="0.5"/><path d="M432.14162,-235.595c2.03433,1.4531 0.58124,3.48743 0.58124,3.48743l-1.69513,2.37318c-12.57039,17.59854 -27.77973,33.09039 -41.30537,49.9424c-8.31982,10.36592 -16.09061,21.22929 -24.12027,31.82251c-5.12552,6.7397 -11.65885,12.2366 -17.7908,18.06195c-10.6046,10.07437 -21.24334,20.74101 -33.19071,29.2579c-9.46073,6.74425 -20.12041,12.25472 -30.0484,18.29776c-29.53094,17.97499 -59.32368,35.4511 -88.49288,54.01333c-29.36299,18.68554 -59.33595,36.2955 -89.26727,54.05386c-29.6535,17.59353 -59.00293,35.75073 -88.93909,52.8571c-10.12216,5.78409 -20.10211,12.1932 -30.51447,17.43214c-10.20195,5.13307 -21.24731,8.60189 -31.55374,13.52444c-5.59376,2.67169 -10.96885,5.98619 -16.41157,8.95494c0,0 -2.19474,1.19713 -3.39187,-0.99761c-1.19713,-2.19474 0.99761,-3.39187 0.99761,-3.39187c5.51244,-3.00679 10.95676,-6.35513 16.62146,-9.06308c10.28936,-4.91871 21.32498,-8.37503 31.50932,-13.50259c10.32559,-5.19868 20.22312,-11.56077 30.26255,-17.29758c29.91249,-17.09285 59.23845,-35.23638 88.86851,-52.81601c29.88652,-17.73178 59.81515,-35.3145 89.13416,-53.97205c29.1973,-18.5801 59.01829,-36.0736 88.57755,-54.06603c9.82364,-5.97952 20.38509,-11.42524 29.74574,-18.09814c11.75448,-8.37939 22.21593,-18.89978 32.64933,-28.8115c5.92353,-5.62736 12.32074,-10.93121 17.2499,-17.45732c8.05763,-10.63011 15.85672,-21.52977 24.20555,-31.93183c13.46601,-16.77771 28.62169,-32.19877 41.13607,-49.7189l1.69513,-2.37318c0,0 1.4531,-2.03433 3.48743,-0.58124z" fill="#ff6666" stroke-width="0.5"/></g></g></svg>