<svg version="1.1" xmlns="http://www.w3.org/2000/svg" xmlns:xlink="http://www.w3.org/1999/xlink" width="106" height="201.51558" viewBox="0,0,106,201.51558"><g transform="translate(-708.82455,-249.6886)"><g stroke="none" stroke-miterlimit="10"><path d="M814.82455,303.1886c0,29.54723 -23.72891,53.5 -53,53.5c-29.27109,0 -53,-23.95277 -53,-53.5c0,-29.54723 23.72891,-53.5 53,-53.5c29.27109,0 53,23.95277 53,53.5z" fill="#ab00ff" stroke-width="0"/><path d="M803.32455,441.6886c0,2.5 -2.5,2.5 -2.5,2.5h-2c-0.6811,-0.06343 -1.41893,-0.46975 -2.04329,-0.1903c-0.86055,0.38516 -1.11512,1.67463 -2,2c-2.43206,0.89428 -7.31397,0.26259 -9.95671,0.1903c-1.31993,-0.03611 -2.71741,0.26539 -3.95671,-0.1903c-0.88488,-0.32537 -1.12462,-1.64985 -2,-2c-0.92848,-0.37139 -2.10581,0.44769 -3,0c-1.37902,-0.69043 -2.07453,-2.32745 -3.35762,-3.18307c-1.02921,-0.68632 -2.56937,-0.49357 -3.45344,-1.35886c-0.75331,-0.73731 -0.27574,-2.23413 -1,-3c-0.54701,-0.57843 -1.62369,-0.15582 -2.33061,-0.52198c-0.79948,-0.4141 -1.15661,-1.74879 -2.05696,-1.75062c-1.07833,-0.00219 -1.81775,1.1606 -2.72662,1.7409c0,0 -0.18905,0.09452 -0.48469,0.17363c-0.58989,0.99554 -1.28969,1.87536 -2.11586,2.57707c-0.90818,0.77136 -2.32409,0.63402 -3.35722,1.22768c-1.44507,0.83038 -2.54963,2.17889 -4,3c-5.68755,3.21993 -12.29164,3.19031 -17.77352,6.86568l-2.26872,1.15594c0,0 -2.23607,1.11803 -3.3541,-1.11803c-1.11803,-2.23607 1.11803,-3.3541 1.11803,-3.3541l1.73128,-0.84406c2.12059,-1.4066 3.63156,-2.66395 6.08053,-3.39686c3.89378,-1.16529 8.54868,-1.66114 12.14595,-3.73747c1.44347,-0.83316 2.55072,-2.17698 4,-3c0.79807,-0.45321 1.89868,-0.23509 2.64278,-0.77232c2.43561,-1.75846 3.05166,-8.2609 3.01748,-11.01323c0,-14 0,-28 0,-42c0,-6.57497 -1.02505,-14.05144 0.05106,-20.50266c0.44526,-2.66932 2.08506,-4.99474 3.15108,-7.48213c0,0 0.9848,-2.29786 3.28266,-1.31306c2.29786,0.9848 1.31306,3.28266 1.31306,3.28266c-0.93402,2.17938 -2.4907,4.17398 -2.84892,6.51787c-0.93808,6.13799 0.05106,13.24393 0.05106,19.49734c0,14 0,28 0,42c-0.01602,1.68766 -0.17102,3.68083 -0.54078,5.69232c0.38748,-0.11708 0.78465,-0.18705 1.19613,-0.18749c1.51317,-0.0016 2.58403,1.58395 3.94304,2.24938c1.18428,0.57988 2.71768,0.56532 3.66939,1.47802c0.76078,0.7296 0.26452,2.2449 1,3c0.61076,0.62705 1.81815,0.15571 2.54656,0.64114c1.07132,0.71396 1.49052,2.24187 2.64238,2.81693c0.8947,0.44667 2.07152,-0.37139 3,0c0.87538,0.35015 1.13945,1.61484 2,2c1.53551,0.68726 3.361,-0.1903 5.04329,-0.1903c1.68229,0 3.50778,0.87756 5.04329,0.1903c0.86055,-0.38516 1.11512,-1.67463 2,-2c1.2393,-0.4557 2.63781,-0.12687 3.95671,-0.1903h2c0,0 2.5,0 2.5,2.5z" fill="#986e00" stroke-width="0.5"/></g></g></svg>