<svg version="1.1" xmlns="http://www.w3.org/2000/svg" xmlns:xlink="http://www.w3.org/1999/xlink" width="2277.77778" height="1127.62763" viewBox="0,0,2277.77778,1127.62763"><g transform="translate(71.57358,36.14714)"><g stroke-miterlimit="10"><path d="M-71.57358,1091.48049v-1127.62763h2277.77778v1127.62763z" fill="#40d400" stroke="none" stroke-width="0" stroke-linecap="butt"/><path d="M145.90845,734.62465v-603.6036h524.02402v603.6036z" fill="#a2a2a2" stroke="#000000" stroke-width="10" stroke-linecap="butt"/><path d="M172.93549,706.09614v-548.04805h462.46246v548.04805z" fill="#a2a2a2" stroke="#000000" stroke-width="10" stroke-linecap="butt"/><path d="M261.52405,72.46248l1.5015,54.05405" fill="none" stroke="#000000" stroke-width="10" stroke-linecap="round"/><path d="M506.26882,126.51653l1.5015,-63.06306" fill="none" stroke="#000000" stroke-width="10" stroke-linecap="round"/><path d="M293.05557,64.95496c0,6.63405 -13.78102,12.01201 -30.78078,12.01201c-16.99976,0 -30.78078,-5.37796 -30.78078,-12.01201c0,-6.63405 13.78102,-12.01201 30.78078,-12.01201c16.99976,0 30.78078,5.37796 30.78078,12.01201z" fill="#a2a2a2" stroke="#000000" stroke-width="10" stroke-linecap="butt"/><path d="M548.3108,63.45346c0,6.63405 -12.77266,12.01201 -28.52853,12.01201c-15.75587,0 -28.52853,-5.37796 -28.52853,-12.01201c0,-6.63405 12.77266,-12.01201 28.52853,-12.01201c15.75587,0 28.52853,5.37796 28.52853,12.01201z" fill="#a2a2a2" stroke="#000000" stroke-width="10" stroke-linecap="butt"/><path d="M542.30481,73.96397l25.52553,22.52252" fill="none" stroke="#000000" stroke-width="10" stroke-linecap="round"/><path d="M497.25981,12.40242l16.51652,33.03303" fill="none" stroke="#000000" stroke-width="10" stroke-linecap="round"/><path d="M461.22378,81.47147l33.03303,-12.01201" fill="none" stroke="#000000" stroke-width="10" stroke-linecap="round"/><path d="M561.82436,25.91593l-12.01201,30.03003" fill="none" stroke="#000000" stroke-width="10" stroke-linecap="round"/><path d="M229.99253,67.95797l-21.02102,7.50751" fill="none" stroke="#000000" stroke-width="10" stroke-linecap="round"/><path d="M281.04355,73.96397l27.02703,16.51652" fill="none" stroke="#000000" stroke-width="10" stroke-linecap="round"/><path d="M245.00756,55.94596v-25.52553" fill="none" stroke="#000000" stroke-width="10" stroke-linecap="round"/><path d="M284.04654,51.44145l31.53153,-6.00601" fill="none" stroke="#000000" stroke-width="10" stroke-linecap="round"/><text transform="translate(665.81233,106.99701) scale(1.67127,1.67127)" font-size="40" xml:space="preserve" fill="#ffffff" stroke="none" stroke-width="1" stroke-linecap="butt" font-family="Handwriting" font-weight="normal" text-anchor="start"><tspan x="0" dy="0">COMPRAR PLANTAS</tspan></text><path d="M173.43694,264.65466v-106.60661h459.45946v106.60661z" fill="#c1c1c1" stroke="#000000" stroke-width="10" stroke-linecap="butt"/><text transform="translate(200.46396,240.25528) scale(1.7038,1.7038)" font-size="40" xml:space="preserve" fill="#ffffff" stroke="none" stroke-width="1" stroke-linecap="butt" font-family="Handwriting" font-weight="normal" text-anchor="start"><tspan x="0" dy="0">COMUM</tspan></text><text transform="translate(490.2538,233.47818) scale(1.38404,1.38404)" font-size="40" xml:space="preserve" fill="#ffffff" stroke="none" stroke-width="1" stroke-linecap="butt" font-family="Handwriting" font-weight="normal" text-anchor="start"><tspan x="0" dy="0">99%</tspan></text><path d="M174.43694,478.65469v-106.60661h459.45946v106.60661z" fill="#c800ff" stroke="#000000" stroke-width="10" stroke-linecap="butt"/><path d="M174.93246,590.26132v-106.60661h459.45946v106.60661z" fill="#e2ff00" stroke="#000000" stroke-width="10" stroke-linecap="butt"/><path d="M175.42797,701.86792v-106.60661h459.45946v106.60661z" fill="#ff1700" stroke="#000000" stroke-width="10" stroke-linecap="butt"/><text transform="translate(195.82455,562.79146) scale(1.47508,1.47508)" font-size="40" xml:space="preserve" fill="#ffffff" stroke="none" stroke-width="1" stroke-linecap="butt" font-family="Handwriting" font-weight="normal" text-anchor="start"><tspan x="0" dy="0">LENDÁRIO</tspan></text><text transform="translate(516.82455,562.29917) scale(1.43197,1.43197)" font-size="40" xml:space="preserve" fill="#ffffff" stroke="none" stroke-width="1" stroke-linecap="butt" font-family="Handwriting" font-weight="normal" text-anchor="start"><tspan x="0" dy="0">1%</tspan></text></g></g></svg>