<svg version="1.1" xmlns="http://www.w3.org/2000/svg" xmlns:xlink="http://www.w3.org/1999/xlink" width="2155.71697" height="1096.59459" viewBox="0,0,2155.71697,1096.59459"><g transform="translate(181.2133,132.61269)"><g stroke-miterlimit="10"><path d="M-94.06391,962.9819v-1094.59459h2067.56757v1094.59459z" fill="#819ade" stroke="#000000" stroke-width="2" stroke-linecap="butt"/><path d="M78.53134,467.72056l-7.50751,-94.59459l37.53754,-21.02102v-34.53453l39.03904,-58.55856l42.04204,45.04505l-19.51952,19.51952l15.01502,24.02402l4.5045,129.12913l-51.05105,7.50751l-34.53453,-10.51051z" fill="#00b5ff" stroke="#0084ff" stroke-width="0.5" stroke-linecap="round"/><path d="M781.72954,256.50433l1.5015,-85.58559l28.52853,-30.03003v-34.53453l39.03904,-58.55856l42.04204,45.04505l-19.51952,19.51952l28.52853,16.51652l-9.00901,120.12012l-51.05105,24.02403l-34.53454,-10.51051z" fill="#00b5ff" stroke="#0084ff" stroke-width="0.5" stroke-linecap="round"/><path d="M1193.63645,633.87672l1.5015,-85.58559l28.52853,-30.03003v-34.53453l39.03904,-58.55856l42.04204,45.04505l-19.51952,19.51952l28.52853,16.51652l-9.00901,120.12012l-51.05105,24.02402l-34.53453,-10.51051z" fill="#00b5ff" stroke="#0084ff" stroke-width="0.5" stroke-linecap="round"/><path d="M277.72053,173.25663c0,21.97529 -17.47837,39.78979 -39.03904,39.78979c-21.56067,0 -39.03904,-17.8145 -39.03904,-39.78979c0,-21.97529 17.47837,-39.78979 39.03904,-39.78979c21.56067,0 39.03904,17.8145 39.03904,39.78979z" fill="#ffffff" stroke="#000000" stroke-width="2" stroke-linecap="butt"/><path d="M273.21603,247.58095c0,19.0729 -15.12552,34.53453 -33.78378,34.53453c-18.65827,0 -33.78378,-15.46164 -33.78378,-34.53453c0,-19.0729 15.12552,-34.53453 33.78378,-34.53453c18.65827,0 33.78378,15.46164 33.78378,34.53453z" fill="#ffffff" stroke="#000000" stroke-width="2" stroke-linecap="butt"/><path d="M245.1905,174.00739c0,-1.38071 1.11929,-2.5 2.5,-2.5c1.38071,0 2.5,1.11929 2.5,2.5c0,1.38071 -1.11929,2.5 -2.5,2.5c-1.38071,0 -2.5,-1.11929 -2.5,-2.5z" fill="#000000" stroke="none" stroke-width="0.5" stroke-linecap="butt"/><path d="M227.17248,175.50888c0,-1.38071 1.11929,-2.5 2.5,-2.5c1.38071,0 2.5,1.11929 2.5,2.5c0,1.38071 -1.11929,2.5 -2.5,2.5c-1.38071,0 -2.5,-1.11929 -2.5,-2.5z" fill="#000000" stroke="none" stroke-width="0.5" stroke-linecap="butt"/><path d="M221.16648,198.0314c0,-1.38071 1.11929,-2.5 2.5,-2.5c1.38071,0 2.5,1.11929 2.5,2.5c0,1.38071 -1.11929,2.5 -2.5,2.5c-1.38071,0 -2.5,-1.11929 -2.5,-2.5z" fill="#000000" stroke="none" stroke-width="0.5" stroke-linecap="butt"/><path d="M234.67999,205.53891c0,-1.38071 1.11929,-2.5 2.5,-2.5c1.38071,0 2.5,1.11929 2.5,2.5c0,1.38071 -1.11929,2.5 -2.5,2.5c-1.38071,0 -2.5,-1.11929 -2.5,-2.5z" fill="#000000" stroke="none" stroke-width="0.5" stroke-linecap="butt"/><path d="M246.692,201.03441c0,-1.38071 1.11929,-2.5 2.5,-2.5c1.38071,0 2.5,1.11929 2.5,2.5c0,1.38071 -1.11929,2.5 -2.5,2.5c-1.38071,0 -2.5,-1.11929 -2.5,-2.5z" fill="#000000" stroke="none" stroke-width="0.5" stroke-linecap="butt"/><path d="M260.20552,196.52991c0,-1.38071 1.11929,-2.5 2.5,-2.5c1.38071,0 2.5,1.11929 2.5,2.5c0,1.38071 -1.11929,2.5 -2.5,2.5c-1.38071,0 -2.5,-1.11929 -2.5,-2.5z" fill="#000000" stroke="none" stroke-width="0.5" stroke-linecap="butt"/><path d="M231.67699,253.58696c0,-0.23308 0.02173,-0.44443 0.06114,-0.63608c-2.77062,-4.19992 1.63618,-5.49455 3.31524,-8.18576c0.99692,-1.59788 0.73707,-3.99182 2.16635,-5.21828c1.33182,-1.14284 8.54873,-0.62363 10.47078,-0.47189c2.09843,0.16566 4.61704,-0.56818 6.27227,0.73223c1.26514,0.99394 0.60561,3.16688 0.73223,4.77077c0.0918,1.16289 0.12942,8.3249 -0.73223,9.27527c-0.95128,1.04923 -2.84021,0.25718 -4.19639,0.66536c-1.07167,0.32255 -1.90435,1.2883 -3.003,1.5015c-0.41254,0.08006 -6.73638,0.06688 -8.08189,0.06688h-4.5045c0,0 -2.5,0 -2.5,-2.5z" fill="#000000" stroke="none" stroke-width="0.5" stroke-linecap="butt"/><path d="M289.22954,237.07044c0,2.5 -2.5,2.5 -2.5,2.5c-3.5035,0 -8.50851,0 -12.01201,0c0,0 -2.5,0 -2.5,-2.5c0,-2.5 2.5,-2.5 2.5,-2.5c3.5035,0 7.00701,0 10.51051,0h1.5015c0,0 2.5,0 2.5,2.5z" fill="#000000" stroke="none" stroke-width="0.5" stroke-linecap="butt"/><path d="M185.13044,241.57494c0,-2.5 2.5,-2.5 2.5,-2.5l2.29207,0.12829c6.40079,2.18653 13.06443,2.39769 19.51952,4.5045c0,0 2.37171,0.79057 1.58114,3.16228c-0.79057,2.37171 -3.16228,1.58114 -3.16228,1.58114c-6.40079,-2.18653 -13.06443,-2.39769 -19.51952,-4.5045l-0.71093,0.12829c0,0 -2.5,0 -2.5,-2.5z" fill="#000000" stroke="none" stroke-width="0.5" stroke-linecap="butt"/><path d="M284.59675,192.81596c-0.79057,2.37171 -3.16228,1.58114 -3.16228,1.58114l-4.11439,-1.40549c-4.89078,0.06066 -9.86237,0.23936 -14.74985,0.02862c-2.60625,-0.11238 -5.10109,-1.10867 -7.67767,-1.51657c-3.11058,-0.49244 -7.10422,0.01873 -10.20505,0.01873c0,0 -2.5,0 -2.5,-2.5c0,-2.5 2.5,-2.5 2.5,-2.5c3.33908,0 7.48146,-0.48451 10.81597,0.01873c2.46752,0.3724 4.8436,1.39372 7.33734,1.48643c5.07824,0.18881 10.19778,-0.01959 15.28018,0.02862l4.89462,1.59751c0,0 2.37171,0.79057 1.58114,3.16228z" fill="#ffad00" stroke="none" stroke-width="0.5" stroke-linecap="butt"/><path d="M898.10501,170.44381c1.14838,2.22063 -1.07225,3.36901 -1.07225,3.36901l-3.22612,1.66405c-2.36099,1.57656 -4.45261,3.76025 -7.16143,4.61003c-1.63013,0.51138 -3.44688,0.17302 -5.08139,0.67024c-1.60142,0.48716 -2.91301,1.69015 -4.49317,2.24236c-4.06845,1.42179 -8.96939,1.58823 -13.22831,1.60319c-8.67368,0 -17.34734,0 -26.02102,0c-4.52136,0 -9.94698,0.69513 -14.40947,-0.03228c-1.5621,-0.25463 -2.94508,-1.23096 -4.5045,-1.50151c-1.6629,-0.2885 -3.49216,0.46487 -5.06075,-0.15802c-1.43465,-0.56969 -2.0496,-2.37123 -3.36063,-3.18607c-2.53197,-1.5737 -5.99145,-0.54036 -8.81977,-1.48271c-1.68756,-0.56226 -2.88099,-2.11891 -4.4778,-2.90264c-0.86569,-0.42489 -1.77048,-0.76873 -2.68367,-1.09396c-0.04311,0.07727 -0.09095,0.15559 -0.14383,0.23492c-1.38675,2.08013 -3.46688,0.69338 -3.46688,0.69338c-1.18478,-0.82623 -2.18021,-2.03356 -3.55434,-2.47869c-1.61374,-0.52276 -3.50991,0.32657 -5.07898,-0.318c-1.21218,-0.49796 -1.87966,-1.80907 -2.76869,-2.78943h-2.22627v0c-1.38071,0 -2.5,-1.11929 -2.5,-2.5c0,-1.38071 1.11929,-2.5 2.5,-2.5h5c4.77485,-1.17378 5.55257,0.81775 9.43877,3.11982c2.37975,1.40969 5.2028,1.91125 7.68063,3.1404c1.39292,0.69097 2.36769,2.15242 3.84271,2.64435c1.43212,0.47762 3.04632,-0.14947 4.52661,0.14688c1.8515,0.37067 3.72757,0.88368 5.36014,1.83244c1.11433,0.64759 1.45026,2.33745 2.64539,2.81993c1.22136,0.49308 2.64744,-0.36477 3.94825,-0.15802c1.5631,0.24844 2.94434,1.23523 4.5045,1.5015c2.82863,0.48277 5.73901,-0.03228 8.60856,-0.03228c10.34034,0 20.68068,0 31.02102,0c3.78863,0.01504 8.22178,-0.11053 11.81674,-1.3998c1.56204,-0.5602 2.86316,-1.74784 4.45109,-2.22978c1.55488,-0.4719 3.27651,-0.14346 4.83893,-0.58974c2.43423,-0.69531 4.21111,-2.81111 6.31852,-4.21386l3.46839,-1.79796c0,0 2.22064,-1.14838 3.36901,1.07226z" fill="#ff0000" stroke="none" stroke-width="0.5" stroke-linecap="butt"/><path d="M1317.30329,536.45706c0,2.5 -2.5,2.5 -2.5,2.5l-0.71093,-0.12829c-1.32692,0.41881 -2.79216,0.53299 -3.98075,1.25642c-2.35928,1.43597 -4.04856,4.21752 -6.74596,4.811c-2.44404,0.53773 -5.08798,-0.63905 -7.50751,0c-1.08205,0.2858 -1.90435,1.2883 -3.003,1.5015c-1.6621,0.32255 -3.38751,0.14347 -5.07889,0.06687c-0.57589,-0.02608 -1.24602,-0.74269 -1.68867,-0.37337c-0.76923,0.6418 -0.35721,2.19038 -1.17782,2.76501c-1.66759,1.16772 -3.74519,1.68441 -5.74206,2.08059c-1.29195,0.25632 -2.72925,-0.65693 -3.94825,-0.15802c-1.31014,0.53621 -1.73433,2.37495 -3.00301,3.00301c-0.9633,0.47688 -2.19912,-0.24565 -3.22364,0.07948c-0.91888,0.29161 -1.56527,1.12578 -2.34791,1.68867c-1.83106,0.48875 -3.62165,1.1679 -5.49319,1.46625c-1.51496,0.24151 -3.14146,-0.33258 -4.60003,0.14278c-1.46999,0.47907 -2.45459,1.91332 -3.83648,2.60671c-1.48726,0.74626 -3.21208,0.93589 -4.70168,1.67746c-1.61721,0.80509 -2.83261,2.39638 -4.55785,2.93218c-1.66491,0.51707 -3.48576,0.08456 -5.22897,0.10727c-4.50287,0.05867 -9.01032,0 -13.51352,0c-3.4785,0 -8.37585,0.89222 -11.66068,-0.36297c-1.65361,-0.63187 -2.86967,-2.10198 -4.45271,-2.89425c-1.60242,-0.80196 -3.60588,-0.78986 -5.04413,-1.85865c-0.80409,-0.59754 -0.37328,-2.16808 -1.17782,-2.76501c-0.56666,-0.42043 -1.39468,0.46602 -2.08913,0.34109c-1.68913,-0.30389 -3.26307,-1.065 -4.89461,-1.59751c0,0 -2.37171,-0.79057 -1.58114,-3.16228c0.79057,-2.37171 3.16227,-1.58114 3.16227,-1.58114c1.37146,0.46849 2.69822,1.09751 4.1144,1.40549c1.28064,0.2785 2.80493,-0.35258 3.91687,0.34109c1.05195,0.65625 0.83681,2.49241 1.82518,3.24099c1.09656,0.83052 2.72708,0.5443 3.96488,1.14435c1.40677,0.68197 2.42818,2.04313 3.86779,2.65275c2.61694,1.10817 7.1951,0.09604 10.04885,0.09604c4.50257,0 9.01142,-0.0712 13.51352,0c1.26037,0.01993 2.58389,0.50493 3.78004,0.10727c1.44934,-0.48183 2.40045,-1.92406 3.76265,-2.61482c1.48887,-0.75499 3.22002,-0.94425 4.71617,-1.68471c1.60211,-0.7929 2.81956,-2.33432 4.5198,-2.88624c3.06586,-0.99521 6.44566,-0.60192 9.56746,-1.40459c0.98261,-0.63887 1.83175,-1.55878 2.94783,-1.9166c0.88353,-0.28327 1.95426,0.49795 2.78237,0.07948c1.26347,-0.63847 1.68502,-2.48635 3.003,-3.003c2.26545,-0.88806 6.06895,0.76637 8.32772,-1.08044c0.95987,-0.78481 0.75659,-2.61221 1.82518,-3.24099c1.70293,-1.00203 6.42851,0.06988 8.24745,-0.3065c1.09594,-0.22677 1.91435,-1.24203 3.00301,-1.5015c1.94745,-0.46416 5.61461,0.32236 7.50751,0c2.46097,-0.41911 3.33624,-3.05407 5.26606,-4.19801c1.52632,-0.90476 3.35218,-1.16439 5.02827,-1.74659l2.29207,-0.12829c0,0 2.5,0 2.5,2.5z" fill="#ff0000" stroke="none" stroke-width="0.5" stroke-linecap="butt"/><path d="M898.22468,211.25355c0.87919,2.34031 -1.46113,3.21949 -1.46113,3.21949l-1.35776,0.51007c-3.21578,1.20551 -6.12192,3.26986 -9.45755,4.08725c-0.35359,0.08665 -8.90778,0.06688 -9.58339,0.06688c-7.50751,0 -15.01502,0 -22.52253,0c-8.00801,0 -16.01601,0 -24.02402,0c-3.05693,0 -8.70763,0.76397 -11.66068,-0.36297c-1.53152,-0.58445 -2.55184,-2.15102 -4.0788,-2.74731c-0.88591,-0.34596 -1.93015,0.27063 -2.85293,0.04039c-1.08587,-0.27094 -1.90568,-1.28154 -3.003,-1.5015c-2.56767,-0.51469 -5.40616,0.12385 -7.80007,-0.93776c-1.51432,-0.67154 -2.76542,-1.8676 -4.30008,-2.49124c-1.52082,-0.61801 -3.23887,-0.62387 -4.77702,-1.19738c-0.16885,-0.06295 -8.88322,-4.4253 -9.192,-4.57969c0,0 -2.23607,-1.11803 -1.11803,-3.35411c1.11803,-2.23607 3.35411,-1.11803 3.35411,-1.11803c5.99648,2.99824 11.99269,5.28849 17.97159,8.13154c2.12024,1.00821 4.70794,0.22093 7.01028,0.68042c1.09751,0.21903 1.91738,1.22959 3.003,1.5015c1.01962,0.25538 2.17185,-0.33647 3.15308,0.04039c1.58149,0.60739 2.68077,2.14128 4.24171,2.79969c2.193,0.92502 7.91611,0.09604 10.04885,0.09604c8.00801,0 16.01601,0 24.02402,0c7.50751,0 15.01502,0 22.52253,0c2.81163,0 5.70963,0.75946 8.43462,0.06687c3.12401,-0.794 5.83126,-2.76605 8.84795,-3.90161l1.35776,-0.51007c0,0 2.34031,-0.87919 3.21949,1.46112z" fill="#e2ff00" stroke="none" stroke-width="0.5" stroke-linecap="butt"/><path d="M1321.67951,510.14096c0.79057,2.37171 -1.58114,3.16227 -1.58114,3.16227l-3.74073,1.08786c-0.74455,1.18021 -1.0403,2.81735 -2.23365,3.54064c-1.78168,1.07988 -3.9929,1.32396 -6.06951,1.4919c-1.18562,0.09589 -2.48069,-1.33898 -3.49543,-0.71834c-0.77049,0.47126 0.93624,2.09794 0.26034,2.69702c-1.65261,1.46479 -4.08811,1.67163 -6.13216,2.50744c-3.59462,-0.04396 -5.72054,1.50325 -9.40946,1.53378c-9.49928,0.07861 -19.3098,0.65369 -28.77487,-0.01216c-2.54577,-0.17909 -4.96914,-1.23753 -7.50751,-1.5015c-1.56607,-0.16286 -3.17393,0.24803 -4.72343,-0.03152c-1.36355,-0.246 -2.50527,-1.27541 -3.8693,-1.51875c-3.96114,-0.70665 -6.20827,0.99431 -10.29075,-0.28932c-1.70115,-0.53489 -2.89158,-2.11852 -4.49107,-2.90697c-1.32042,-0.65089 -2.7978,-0.91706 -4.1967,-1.37559c0,0 -2.37171,-0.79057 -1.58114,-3.16228c0.79057,-2.37171 3.16228,-1.58114 3.16228,-1.58114c1.6041,0.54247 3.294,0.87765 4.81231,1.62742c1.39016,0.68649 2.35838,2.15033 3.82943,2.64004c3.06892,1.02162 6.51473,-0.4095 9.7025,0.13831c1.36018,0.23374 2.49525,1.26804 3.85298,1.51563c1.40539,0.25628 2.86474,-0.17995 4.28557,-0.03151c2.53824,0.26518 4.96105,1.33242 7.50751,1.5015c5.85658,0.38886 11.89596,-0.01217 17.77167,-0.01217c3.90271,0 9.25011,1.04124 12.93913,0.06688c1.08205,-0.2858 1.9169,-1.23154 3.00301,-1.5015c1.02777,-0.25546 2.11796,-0.02306 3.17693,-0.03459c0.95895,-0.16518 2.25779,0.25519 2.87685,-0.49556c0.70389,-0.85362 -0.69035,-2.74302 0.26033,-3.30899c2.94966,-1.75601 7.39465,0.63896 10.2134,-1.32029c1.07535,-0.74745 1.34136,-2.24967 2.01203,-3.37451l5.26828,-1.91514c0,0 2.37171,-0.79057 3.16228,1.58114z" fill="#e2ff00" stroke="none" stroke-width="0.5" stroke-linecap="butt"/><path d="M1311.29729,598.01861c0,2.5 -2.5,2.5 -2.5,2.5l-2.42862,-0.06687c-2.89368,1.52163 -4.01814,2.29855 -7.68143,3.0376c-1.94292,0.39197 -4.11786,-0.64035 -5.9448,0.12832c-2.63467,1.10851 -4.62393,3.63971 -7.39479,4.34159c-2.88379,0.73049 -8.76206,0.68895 -11.65685,0.00057c-1.09315,-0.25995 -1.91469,-1.28884 -3.01802,-1.5015c-1.4495,-0.27939 -2.95203,0.04421 -4.42804,0.06631c-7.62849,0 -16.25059,0.99278 -23.82209,-0.01912c-2.75898,-0.36873 -5.10735,-2.2504 -7.77332,-3.05076c-0.92631,-0.2781 -1.95341,0.21343 -2.90139,0.02177c-0.64902,-0.13121 -7.41424,-2.9797 -7.50751,-3.003c-2.5848,-0.64579 -5.50321,0.80713 -7.99145,-0.14519c-1.44164,-0.55176 -2.0518,-2.36769 -3.36062,-3.18607c-2.01642,-1.26083 -4.84191,-0.31589 -7.0207,-1.26906c-0.65026,-0.28448 -7.52683,-5.84099 -8.24173,-6.4129c0,0 -1.95217,-1.56174 -0.39043,-3.51391c1.56174,-1.95217 3.51391,-0.39044 3.51391,-0.39044c2.2874,1.82992 4.08685,4.43127 6.77328,5.59911c0.78816,0.34262 1.73606,-0.29082 2.57594,-0.10865c1.86435,0.40437 3.76688,0.88768 5.41838,1.84259c1.11576,0.64514 1.45904,2.31621 2.64538,2.81993c2.15544,0.9152 4.74523,-0.68616 7.02357,-0.14519c2.62237,0.62265 4.85841,2.50619 7.50751,3.00301c1.01716,0.19076 2.11287,-0.27394 3.10462,0.02176c2.49846,0.74495 4.65254,2.64936 7.24169,2.95524c7.43181,0.878 15.72932,-0.01912 23.20494,-0.01912c1.85732,0.0221 3.74469,-0.2672 5.57196,0.06631c1.10537,0.20175 1.93144,1.21532 3.01802,1.5015c2.33182,0.61416 7.01713,0.57546 9.36417,0.00057c2.62546,-0.64309 4.40901,-3.23755 6.93172,-4.20841c2.10416,-0.80979 4.54398,0.1068 6.75572,-0.33069c2.54155,-0.50271 5.02847,-1.86197 7.33358,-2.9684l3.57739,-0.06688c0,0 2.5,0 2.5,2.5z" fill="#00ff22" stroke="none" stroke-width="0.5" stroke-linecap="butt"/><path d="M888.64313,246.401c1.76777,1.76776 0,3.53553 0,3.53553l-2.4787,2.10544c-8.62748,2.81585 -18.27301,1.6298 -27.3221,1.6298c-6.67167,0 -13.34334,0 -20.01501,0c-0.44161,0 -6.19102,0.00949 -6.40646,-0.03228c-1.55812,-0.30213 -2.95295,-1.23833 -4.51776,-1.50369c-1.53499,-0.2603 -3.14228,0.24362 -4.67039,-0.05443c-4.72947,-0.92247 -9.01531,-4.02346 -13.04619,-6.49293c-1.25492,-0.76881 -2.24237,-2.00412 -3.6152,-2.53445c-0.87808,-0.3392 -1.91485,0.29274 -2.82357,0.04713c-3.17758,-0.85884 -6.13507,-2.39833 -9.12268,-3.77991c-1.37898,-0.6377 -2.49694,-1.8619 -3.96757,-2.24336c-1.41434,-0.36686 -2.92183,0.0516 -4.38274,0.0774c0,0 -2.5,0 -2.5,-2.5c0,-2.5 2.5,-2.5 2.5,-2.5c1.87242,0.0258 3.80105,-0.37868 5.61726,0.07739c4.36233,1.09543 8.51387,4.82068 12.94578,5.98874c1.0259,0.27039 2.19333,-0.33655 3.18245,0.04714c5.61708,2.17889 9.96088,7.82731 16.09197,8.8908c1.51685,0.26311 3.10046,-0.21198 4.61829,0.0454c1.55609,0.26387 2.94565,1.17968 4.49125,1.49931c2.89944,0.59962 7.22982,-0.03228 10.11005,-0.03228c5.17017,0 10.34034,0 15.51051,0c8.40139,0 17.77934,1.34651 25.74096,-1.37321l0.5243,-0.89756c0,0 1.76777,-1.76776 3.53554,0z" fill="#00ff22" stroke="none" stroke-width="0.5" stroke-linecap="butt"/><path d="M90.60393,452.24206c-1.11804,2.23607 -3.35411,1.11804 -3.35411,1.11804l-3.65273,-1.96981c-0.72228,-1.3988 -1.7321,-2.68334 -2.16686,-4.19639c-0.74401,-2.58928 -0.06688,-5.38783 -0.06688,-8.08189c0,-5.42304 -0.97401,-11.39184 1.87488,-16.32934c0.73648,-1.27642 2.19534,-1.98835 3.10152,-3.15045c0.8783,-1.12635 1.04731,-2.84572 2.21528,-3.66785c0.77882,-0.54821 2.12235,0.70641 2.85555,0.09852c0.7491,-0.62106 0.33038,-1.9179 0.49556,-2.87685c0.01153,-1.05897 -0.22087,-2.14917 0.0346,-3.17693c0.26996,-1.0861 1.2157,-1.92096 1.5015,-3.003c0.42021,-1.59097 -0.06687,-3.2906 -0.06687,-4.93613c0,-3.16817 0,-6.33634 0,-9.5045c0,-2.41572 -0.82435,-8.31211 0.37337,-10.32334c0.66327,-1.11378 2.45009,-1.03347 3.36187,-1.95494c0.69607,-0.70346 0.64724,-1.90541 1.24116,-2.69701c0.29969,-0.39943 6.41169,-6.45738 6.7505,-6.67193c1.33841,-0.84755 3.21753,-0.67207 4.45094,-1.66626c1.26901,-1.02289 1.51936,-2.94764 2.68568,-4.08624c1.82823,-1.78478 6.2194,-2.53259 6.75244,-5.80409c0.6483,-3.97888 -0.09596,-8.72303 0.09988,-12.79794c1.001,-1.001 2.32728,-1.75907 3.00301,-3.00301c0.81851,-1.50678 -0.19552,-3.46027 0.13742,-5.14237c0.62792,-3.17241 2.05541,-6.14888 2.70756,-9.31639c0.40859,-1.98449 -0.37482,-4.08964 0.01283,-6.07832c0.68103,-3.49376 2.81929,-6.5805 3.52736,-10.12964c1.0949,-5.488 -0.01856,-11.82184 5.25539,-15.6258c1.1336,-0.81763 2.78613,-0.23833 4.18265,-0.29582c3.40004,-0.13997 7.57881,-0.614 10.91097,0.03228c1.55376,0.30136 2.95387,1.18444 4.5045,1.5015c2.2089,0.45166 4.65157,-0.4791 6.75573,0.33069c1.70707,0.65697 3.07277,1.98517 4.60915,2.97776c1.21228,0.67525 2.81425,0.90821 3.63682,2.02577c2.02228,2.74752 2.81732,8.30545 1.93761,11.56656c-0.28197,1.04525 -1.45263,1.61017 -2.09722,2.47997c-1.81187,2.44491 -3.29071,4.42962 -3.7658,7.51144c-0.23245,1.5078 0.23358,3.07124 -0.01283,4.57682c-0.43534,2.65989 -2.47833,4.86379 -3.00301,7.5075c-0.29889,1.50602 0.27963,3.1006 -0.02176,4.60612c-0.21968,1.09738 -1.21571,1.92096 -1.50151,3.003c-0.68354,2.58795 0.06688,7.38676 0.06688,9.93613c0,4.07362 -0.85837,9.11701 -0.03228,13.11306c0.32041,1.54995 1.24185,2.94322 1.5015,4.5045c0.35856,2.15603 0.04588,4.51628 1.00733,6.47909c1.85956,4.0675 2.90137,5.5737 3.51072,10.13242c0.39211,2.93349 -0.84743,6.08199 0.12317,8.87788c0.53181,1.53192 2.07948,2.54209 2.72629,4.02911c1.09992,2.52871 0.72771,5.55042 1.87751,8.05685c0.69364,1.51205 2.00663,2.6878 2.6856,4.2065c1.44529,3.23277 1.35463,6.95389 1.87667,10.45634c0.54881,3.68203 1.99735,5.13428 1.17312,8.7967c-0.24572,1.09184 -1.27473,1.90707 -1.5015,3.003c-0.76637,3.70362 1.31399,5.46751 -0.12342,9.39134c-0.33504,0.91459 -7.21729,7.28973 -7.28052,7.32491c-1.046,0.58187 -2.46385,-0.12075 -3.57653,0.32043c-1.39869,0.55458 -2.42201,1.79367 -3.71135,2.56924c-3.06625,1.84442 -4.7636,2.1285 -8.36187,3.30844c-0.84591,-0.0408 -1.77307,-0.48641 -2.53775,-0.12239c-1.39109,0.6622 -2.05338,2.51143 -3.51352,3.00301c-1.85369,0.62408 -3.90999,0.12683 -5.86571,0.15467c-4.16508,0.05929 -8.34178,0 -12.5075,0c-3.50351,0 -7.00701,0.00084 -10.51051,0c-1.49024,-0.00036 -5.97614,0.08736 -7.15618,-0.36297c-1.53152,-0.58445 -2.58414,-2.07414 -4.07879,-2.7473c-2.06184,-0.92861 -4.52175,0.10727 -6.78305,0.10727c-5.005,0 -10.01001,0 -15.01502,0c0,0 -2.5,0 -2.5,-2.5c0,-2.5 2.5,-2.5 2.5,-2.5c5.005,0 10.01001,0 15.01502,0c2.74422,0 5.67441,-0.88752 8.23197,0.10727c1.57889,0.61413 2.68077,2.14128 4.24171,2.79969c2.04758,0.86368 6.35484,0.09604 8.54734,0.09604c5.005,0 10.01001,0 15.01502,0c1.66666,0 3.33357,-0.02822 5,0c1.37886,0.02335 2.84195,0.63599 4.13429,0.15468c1.44378,-0.53772 2.10731,-2.37352 3.51352,-3.00301c1.05585,-0.47265 2.31217,-0.08159 3.46826,-0.12239c2.92282,-0.99455 4.1412,-1.20983 6.65314,-2.69756c1.57381,-0.93211 2.91279,-2.29362 4.60915,-2.97776c0.96484,-0.38912 2.20057,0.35202 3.11799,-0.13858c1.2128,-0.64855 1.82588,-2.05979 2.80295,-3.02769c0.60249,-0.59684 1.66001,-0.85498 1.92854,-1.65941c0.91061,-2.72788 -0.67129,-5.80349 -0.12342,-8.62668c0.2132,-1.09866 1.19624,-1.92629 1.50151,-3.00301c0.47025,-1.65862 -1.16724,-6.34065 -1.25223,-6.91072c-0.454,-3.04508 -0.17597,-6.32783 -1.47968,-9.11692c-0.70707,-1.51267 -2.0132,-2.69864 -2.69337,-4.22361c-1.1575,-2.59517 -0.82098,-5.69653 -1.97683,-8.29242c-0.69629,-1.56379 -2.29618,-2.66193 -2.82071,-4.29139c-0.99141,-3.07984 0.05596,-6.69065 -0.33585,-9.82864c-0.457,-3.66003 -1.55684,-5.33688 -3.09121,-8.65505c-0.45808,-1.04266 -1.17224,-2.0072 -1.37424,-3.12799c-0.27425,-1.52166 0.2292,-3.11342 -0.02551,-4.63848c-0.26073,-1.5611 -1.20015,-2.95074 -1.50151,-4.5045c-1.10321,-5.68797 -0.03228,-12.62004 -0.03228,-18.41847c0,-0.65459 -0.01871,-6.22129 0.06688,-6.58038c0.25947,-1.08866 1.28222,-1.90555 1.5015,-3.00301c0.28756,-1.4392 -0.31959,-2.96577 -0.02177,-4.40289c0.54692,-2.63921 2.61337,-4.84055 3.00301,-7.50751c0.21357,-1.46188 -0.2711,-2.97753 -0.01283,-4.43219c0.73008,-4.11201 2.30432,-6.55277 4.7842,-9.81806c0.36792,-0.48444 1.20189,-0.62544 1.36478,-1.21154c0.93476,-3.36327 -0.54447,-6.23659 -3.43458,-7.42869c-1.23712,-0.85642 -2.32448,-1.98573 -3.71135,-2.56924c-1.82694,-0.76866 -3.99971,0.2527 -5.94479,-0.12832c-1.5532,-0.30426 -2.95456,-1.18108 -4.50451,-1.5015c-2.31999,-0.4796 -4.73801,0.03228 -7.10705,0.03228c-1.001,0 -2.00388,0.06124 -3.00301,0c-0.61458,-0.03767 -1.32311,-0.65481 -1.82336,-0.29582c-2.39223,1.71675 -1.43009,4.84608 -1.70134,7.10992c-0.2057,1.71687 -0.6706,3.39267 -1.01044,5.0881c-0.70842,3.53429 -2.84705,6.65538 -3.52049,10.09459c-0.38008,1.94104 0.3916,3.99239 0.01283,5.93369c-0.62431,3.1997 -2.07406,6.1988 -2.7208,9.39405c-0.40952,2.02326 0.43352,4.30696 -0.44023,6.17722c-0.59919,1.28256 -2.002,2.002 -3.003,3.003c0.33621,3.61522 0.87981,8.74246 0.09988,12.21708c-0.51443,2.29181 -3.87691,5.66612 -5.45231,6.87234c-0.82487,0.63157 -2.06983,0.61887 -2.81027,1.3476c-1.2141,1.19488 -1.53272,3.16814 -2.86132,4.23426c-1.36444,1.09487 -3.37898,1.04471 -4.86594,1.96634c-2.16602,1.34252 -3.88402,3.36006 -5.41265,5.399c-0.74958,0.99982 -0.87332,2.43034 -1.76184,3.30899c-0.67414,0.66665 -2.03874,0.31843 -2.64414,1.04806c-0.36812,0.44365 0.32764,1.114 0.37337,1.68867c0.15882,1.99569 0,4.00401 0,6.00601c0,4.72377 1.04273,10.93387 -0.06688,15.58939c-0.25947,1.08866 -1.22851,1.91766 -1.5015,3.00301c-0.23005,0.91461 0.02307,1.88605 0.03459,2.82907c-0.83581,2.04405 -1.02287,4.49729 -2.50744,6.13216c-0.70632,0.77783 -2.25698,-0.4543 -3.15045,0.09852c-0.69938,0.43273 -0.31121,1.66785 -0.78772,2.33815c-0.78666,1.10658 -2.18029,1.70712 -2.90448,2.85555c-1.60814,2.55021 -1.14091,4.88029 -1.12813,7.69468c0.02109,4.6427 -1.17961,10.5309 0.76927,14.74875l2.35327,1.0332c0,0 2.23607,1.11803 1.11804,3.3541z" fill="#00fff4" stroke="none" stroke-width="0.5" stroke-linecap="butt"/><path d="M223.37868,164.92467l-0.35027,0.5317c0,0 -1.67799,1.67799 -3.39914,0.1295c-2.58329,0.55717 -4.69393,0.9859 -7.66821,0.58472c-1.6855,-0.22735 -3.46444,-0.44722 -4.93217,-1.30648c-6.73316,-3.94182 -5.26825,-11.69261 -5.26825,-18.1755c0,-3.90906 -0.47766,-8.56327 0.03229,-12.40046c0.34205,-2.57382 2.38845,-4.65916 3.03459,-7.17393c0.56625,-2.20381 -0.3969,-4.57971 -0.03459,-6.82607c0.55692,-3.45309 1.26423,-7.01996 2.123,-10.46691c0.63719,-1.23567 1.51112,-2.37566 1.91159,-3.70702c0.61293,-2.03765 -0.83275,-4.48142 0.12342,-6.38232c2.00895,-3.99386 4.64066,-4.25421 8.05488,-6.20557c4.84301,-2.76797 10.94661,-5.28822 16.48656,-2.01323c1.68624,0.99684 2.92723,2.61908 4.21291,4.09695c1.05662,1.21458 2.01457,2.53231 2.78423,3.94627c0.47132,0.86586 0.35424,1.99546 0.89774,2.81795c0.85022,1.28666 2.52075,1.96488 3.18307,3.35762c1.10969,2.33346 -0.16145,5.33881 0.8861,7.70081c0.36346,0.81954 1.4684,1.11594 1.90419,1.89942c0.95793,1.72217 1.75726,3.56647 2.20377,5.48588c0.52218,2.24469 -0.88639,4.78902 0.00594,6.91389c0.28187,0.67119 1.23025,0.83118 1.66081,1.41818c1.08864,1.48416 1.89933,3.15342 2.84898,4.73014c0.95191,2.46759 1.16421,5.21554 2.356,7.57664c0.46855,0.92825 1.91748,1.25808 2.1342,2.27504c0.44635,2.09452 0.69654,4.51335 -0.28159,6.41849c-0.65705,1.27975 -2.66712,1.09456 -3.92972,1.78401c-2.0873,1.13978 -4.11339,2.49875 -6.39941,3.15452c-1.44971,0.41586 -2.89667,0.8964 -4.39351,1.08097c-0.70923,0.08746 -1.52939,-0.6707 -2.12581,-0.27708c-1.00309,0.66201 -0.89588,2.52528 -2,3c-1.59974,0.68781 -3.59186,-0.50427 -5.22294,0.10551c-1.23471,0.46159 -1.81664,1.91054 -2.72496,2.8658l-4.33575,1.17158c-1.25932,0.62966 -2.51864,1.25932 -3.77796,1.88898z" fill="#d500ff" stroke="none" stroke-width="0.5" stroke-linecap="butt"/><path d="M241.34078,110.30185c1.38675,2.08012 -0.69338,3.46688 -0.69338,3.46688l-3.66229,2.3126c-1.5067,0.03399 -3.94266,-0.22101 -5.41013,0.7339c-1.89617,1.23387 -3.67742,2.96286 -5.90802,3.34014c-2.84252,0.48078 -5.87301,-0.02997 -8.60171,0.90022c-3.09565,1.05528 -6.10981,2.4303 -9.3143,3.08447c0,0 -2.45145,0.49029 -2.94174,-1.96116c-0.49029,-2.45145 1.96116,-2.94174 1.96116,-2.94174c2.99737,-0.58536 5.78266,-1.96726 8.6857,-2.91553c2.99824,-0.97937 6.26278,-0.75749 9.39829,-1.09978c1.61722,-0.17654 2.67556,-1.85965 4.09197,-2.65986c2.97426,-1.68033 3.68954,-1.34738 6.58987,-1.2661l2.33771,-1.68739c0,0 2.08013,-1.38675 3.46688,0.69338z" fill="#d7ff00" stroke="none" stroke-width="0.5" stroke-linecap="butt"/><path d="M251.76065,137.6886c0,2.5 -2.5,2.5 -2.5,2.5l-2.59955,-0.03229c-3.50173,1.20883 -7.00429,1.68693 -10.18578,3.7411c-1.50551,0.97206 -2.62909,2.55283 -4.27665,3.25782c-5.03822,2.15588 -12.5624,1.03337 -17.93803,1.03337c-3,0 -6.01041,0.24967 -9,0c-1.60231,-0.13381 -3.63081,0.40472 -4.76776,-0.73224c-1.13695,-1.13695 -0.48816,-3.17851 -0.73224,-4.76776c0,0 0,-2.5 2.5,-2.5c2.5,0 2.5,2.5 2.5,2.5c-0.24408,0.41074 -1.07008,0.89438 -0.73223,1.23223c0.33785,0.33785 0.75905,-0.66601 1.23223,-0.73223c2.97105,-0.41579 6,0 9,0c4.35356,0 11.8498,1.24283 15.92591,-0.61063c1.4033,-0.6381 2.30416,-2.06926 3.60373,-2.89844c3.80398,-2.42711 7.87267,-3.1004 12.0699,-4.45865l3.40046,-0.03228c0,0 2.5,0 2.5,2.5z" fill="#d7ff00" stroke="none" stroke-width="0.5" stroke-linecap="butt"/><path d="M256.76065,146.6886c0,2.5 -2.5,2.5 -2.5,2.5l0.5,-0.5c-0.95672,0.71725 -6.28495,4.8729 -7.72477,5.37677c-1.13708,0.39792 -2.43682,-0.07191 -3.60793,0.21055c-1.4001,0.33769 -2.72163,0.9685 -4.00343,1.62524c-1.19609,0.61282 -2.12998,1.72669 -3.3995,2.16773c-0.97619,0.33913 -2.14751,-0.31346 -3.09898,0.08988c-1.47374,0.62473 -2.38831,2.22514 -3.85802,2.85928c-1.69349,0.73069 -3.60713,0.77212 -5.41417,1.14143c-7.07626,1.4462 -14.19213,1.02913 -21.39319,1.02913c0,0 -2.5,0 -2.5,-2.5c0,-2.5 2.5,-2.5 2.5,-2.5c6.87602,0 13.65612,0.38478 20.41261,-0.93204c1.46166,-0.28487 3.03032,-0.21606 4.39163,-0.81974c1.58406,-0.70245 2.6428,-2.33557 4.23987,-3.00792c0.9812,-0.41307 2.18272,0.21955 3.19152,-0.12059c1.00481,-0.33879 1.6511,-1.35998 2.6005,-1.83228c1.69497,-0.84319 3.44824,-1.61575 5.28133,-2.08867c1.00322,-0.25883 2.12049,0.24011 3.1073,-0.07554c2.47463,-0.79155 4.19703,-3.06394 6.27523,-4.62323l2.5,-0.5c0,0 2.5,0 2.5,2.5z" fill="#d7ff00" stroke="none" stroke-width="0.5" stroke-linecap="butt"/><path d="M265.37868,220.45253c2.23607,1.11803 1.11804,3.35411 1.11804,3.35411l-2.62973,3.30732c-2.42231,0.6044 -4.73172,1.70864 -7.20589,2.04236c-1.13881,0.1536 -2.35126,-0.51434 -3.44374,-0.15802c-0.77616,0.25315 -0.94441,1.39341 -1.64238,1.81693c-0.90117,0.54682 -2.09378,0.46159 -3,1c-0.92079,0.54706 -1.36177,1.78885 -2.35762,2.18307c-1.10328,0.43675 -2.38775,-0.04837 -3.55625,0.15802c-3.56919,0.63042 -6.93908,1.58423 -10.70591,1.01355c-2.7493,-0.41652 -5.15008,-2.09963 -7.70592,-3.19499c-1.26325,-0.54139 -2.73696,-0.45812 -4,-1c-1.98274,-0.85064 -3.72713,-2.24833 -5.77919,-2.91458c0,0 -2.37171,-0.79056 -1.58114,-3.16227c0.79057,-2.37171 3.16228,-1.58114 3.16228,-1.58114c2.19119,0.74585 4.09296,2.17447 6.22081,3.08542c1.26345,0.5409 2.73675,0.45861 4,1c2.11122,0.90481 4.01668,2.506 6.29407,2.80502c3.36428,0.44172 6.12062,-0.49562 9.29408,-0.98645c0.80669,-0.12477 1.68742,0.46508 2.44375,0.15802c0.75644,-0.30711 0.94441,-1.39341 1.64238,-1.81693c0.90117,-0.54682 2.09378,-0.46159 3,-1c0.92079,-0.54706 1.34316,-1.83957 2.35762,-2.18307c1.43938,-0.48738 3.05346,0.0678 4.55625,-0.15802c2.33067,-0.35022 4.5079,-1.38502 6.79412,-1.95764l-0.62973,-0.69268c0,0 1.11803,-2.23607 3.3541,-1.11803z" fill="#ff1800" stroke="none" stroke-width="0.5" stroke-linecap="butt"/><path d="M687.26065,525.1886c2.5,0 2.5,2.5 2.5,2.5v3c0,0.66457 -0.01189,1.32801 -0.02728,1.98972c3.71864,0.89858 7.80624,0.51028 11.52728,0.51028c2.23152,0 4.48201,0.30923 6.69454,0.01873c1.04229,-0.13685 2.02303,-0.61052 3.05919,-0.77373c-3.64206,-1.24803 -3.61289,-6.76868 -4.8574,-9.94938c-1.47862,-3.77902 -4.60832,-7.07707 -6.17174,-10.76002c-0.50914,-1.19938 -0.31725,-2.63852 -0.90008,-3.80386c-0.43025,-0.86027 -1.64883,-1.16842 -2.02869,-2.0521c-0.73356,-1.7065 -0.7955,-3.62879 -1.19326,-5.44319c-1.28668,-3.87225 -2.31734,-8.02039 -3.91226,-11.77975c-0.63396,-1.49431 -1.68023,-2.82078 -2.12342,-4.38233c-0.59631,-2.10102 0.18714,-4.56424 -0.82422,-6.49995c-0.75723,-1.44931 -2.14549,-2.49459 -2.9571,-3.91416c-0.66684,-1.16634 -0.95392,-4.17956 -2.30304,-5.1735c-0.7389,-0.54437 -1.84472,-0.31911 -2.64278,-0.77232c-0.97226,-0.55213 -1.78897,-1.34148 -2.65817,-2.05093c-1.36523,1.23751 -2.8177,2.32303 -4.21306,3.09882c-7.37306,4.09926 -15.81342,1.52379 -23.8153,2.24452c-0.62534,0.05632 -1.20552,0.15452 -1.75279,0.28472c-0.09139,3.01891 -0.17609,6.0678 0.09106,9.00222c0.40004,4.39409 2.06786,8.39926 2.95127,12.67428c0.59788,2.8933 0.00854,6.01213 0.95137,8.81208c0.51727,1.53617 1.89653,2.66111 2.52818,4.15389c0.69363,1.63926 0.32719,4.77204 1.2532,6.33421c0.67584,1.14014 2.0819,1.69169 2.85261,2.76997c1.42569,1.99466 1.56982,4.94969 3.48938,6.47501c1.52569,1.21234 3.83933,0.86666 5.58089,1.74098c0.95747,0.48068 1.61044,1.51209 2.62608,1.85306c1.09347,0.3671 2.30346,0.1257 3.45518,0.18854c0.66667,1 0.99691,2.33799 2,3c0.59642,0.39362 1.41736,-0.37059 2.12581,-0.27708c1.5851,0.20921 3.17654,0.55388 4.65125,1.17157c0.54543,0.22846 1.0503,0.53697 1.54329,0.86894v-2.55924c0,0 0,-2.5 2.5,-2.5zM691.34775,545.31238c0.52627,1.07744 2.30022,0.68707 3.47242,0.93964c1.00741,0.21707 1.85912,0.89151 2.8083,1.29282c2.76517,1.16909 5.31884,2.88967 8.20657,3.71064c1.08519,0.30852 2.33549,-0.29723 3.38233,0.12342c0.99381,0.39934 1.46681,1.58843 2.35762,2.18307c1.22157,0.81543 2.61449,1.33906 3.92174,2.00859c-1.01609,5.9754 1.38366,14.17606 -5.27936,17.42773c-1.48595,0.72517 -3.30373,0.15077 -4.95671,0.1903c-3.6584,0.0875 -7.34232,0 -11,0c-5.33333,0 -10.66667,0 -16,0c-4.29904,0 -9.18996,0.6258 -13.23175,-1.3245c-0.92941,-0.44847 -1.37101,-1.57554 -2.23003,-2.14739c-2.65269,-1.76592 -5.84809,-3.09565 -7.66485,-5.71378c-0.53983,-0.77795 -0.186,-2.00658 -0.80302,-2.72484c-0.82351,-0.95864 -2.6575,-0.85248 -3.23551,-1.97634c-0.85467,-1.66179 -0.43003,-3.71256 -0.64505,-5.56884c-0.86583,-1.45709 -2.10549,-2.74932 -2.59749,-4.37126c-0.43726,-1.44147 0.07168,-3.02127 -0.09896,-4.5179c-0.18135,-1.59054 -0.66317,-3.13264 -0.95285,-4.70706c-0.88151,-4.7909 -2.57136,-9.37184 -3.03197,-14.24189c-0.12243,-1.29448 0.16037,-2.60919 0.01021,-3.90074c-0.31041,-2.66991 -2.01481,-4.98641 -2.89423,-7.52636c-0.93289,-2.69436 -0.77436,-5.66134 -1.46811,-8.42694c-0.42265,-1.68488 -1.28619,-3.2478 -1.6241,-4.9517c-0.54472,-2.74668 -0.03228,-5.60028 -0.03228,-8.40046c0,-5.70089 -0.22674,-11.14342 -0.77906,-16.76023c-0.46747,0.10662 -0.93863,0.19189 -1.41548,0.2415c-1.44293,0.1501 -2.94398,-0.53377 -4.34875,-0.17157c-0.70313,0.18129 -0.8419,1.2098 -1.41372,1.65732c-2.21565,1.73404 -4.67922,3.13752 -6.87569,4.8958c-0.78587,0.69796 -1.86987,1.16284 -2.3576,2.09389c-0.31743,0.60594 0.16877,1.35959 0.1903,2.04329c0.09442,2.99851 0.00859,6.00001 0,9c-0.02443,8.527 4.91197,16.0914 8.61724,23.36091c0.782,1.53424 4.82262,7.64714 5.29204,8.97176c0.3638,1.02658 -0.12295,2.19295 0.05843,3.26688c0.35989,2.13088 1.02892,4.2394 1.03228,6.40046c0.00642,4.12488 0.38829,6.15283 -1.21371,10.01138c-0.47297,1.13919 -1.48437,1.986 -2.0405,3.08699c-0.53758,1.06428 -0.42621,2.47162 -1.21768,3.3634c-1.44618,1.62946 -3.22604,3.07298 -5.23754,3.90993c-1.35141,0.5623 -2.92674,0.06401 -4.39011,0.09601c-2.34548,0.80812 -4.44066,2.28414 -6.82607,2.9654c-2.84369,0.81214 -6.63199,0.28675 -9.48264,1.36149c-1.60294,0.60434 -2.80627,2.05229 -4.42441,2.61467c-1.02877,0.35755 -2.19295,-0.12295 -3.26688,0.05843c-1.03937,0.17554 -1.95963,0.83045 -3,1c-0.88073,0.14353 -1.83049,-0.36031 -2.676,-0.07499c-1.04495,0.35262 -1.69494,1.4697 -2.71308,1.89356c-4.27917,1.78142 -4.59838,0.97932 -8.85604,1.20888c-3.74866,0.20212 -7.37669,1.00228 -11.15534,1.00483c-3.33254,0.00225 -6.6675,0.02715 -10,0c-1.51714,-0.01236 -3.09245,0.35569 -4.55115,-0.06151c-1.67561,-0.47924 -3.73477,-1.0147 -4.56649,-2.54624c-1.02077,-1.87965 -0.19817,-4.27328 -0.29725,-6.40993c0.15095,-2.56038 0.30656,-8.05707 1.14673,-10.5003c0.38456,-1.11832 1.99183,-1.7476 2.00022,-2.93016c0.00469,-0.66116 -1.3787,0.38867 -1.98023,0.11425c-2.4702,-1.12691 -3.96092,-3.73094 -6.13157,-5.36191c-2.71747,-2.04184 -5.73073,-3.70165 -8.28756,-5.94139c-1.95908,-1.71612 -3.22342,-4.23525 -5.43107,-5.61703c-0.63715,-0.39879 -1.50287,-0.06542 -2.25032,-0.14492c-2.00529,-0.21329 -5.99327,-0.97386 -8.25085,-0.63315c-1.04229,0.1573 -1.95203,0.88654 -3,1c-1.02896,0.1114 -2.17203,-0.82648 -3.08613,-0.34109c-1.4277,0.75811 -0.81477,6.81708 -0.81433,6.87337c0.04497,5.66573 0,11.33403 0,17c0,4.03844 1.06992,10.78414 -1.41729,14.38287c-2.01708,2.9185 -8.0857,6.43768 -11.68225,7.08485c-0.87824,0.15803 -1.83093,-0.36159 -2.676,-0.07499c-1.13817,0.38601 -1.84052,1.68369 -3,2c-1.51969,0.41458 -3.14933,0.08989 -4.72446,0.10727c-5.54623,0.06118 -12.44841,0.8989 -17.86311,-0.19468c-1.62296,-0.32778 -3.00152,-1.45629 -4.60966,-1.85043c-2.5459,-0.62398 -5.41224,-0.11158 -7.75898,-1.27939c-1.04357,-0.51932 -1.71184,-1.58344 -2.53602,-2.40773c-1.1579,-1.15806 -2.60843,-2.10918 -3.4088,-3.5379c-2.28203,-4.07361 -1.87336,-10.6081 -2.32033,-15.10533c0.04465,-4.3036 -0.41659,-10.77192 -5.29367,-12.75283c-1.91808,-0.77906 -4.13918,0.12829 -6.20943,0.12829c-5,0 -10,0 -15,0c-4.28023,0 -8.56478,-0.04476 -12.84486,0.00666c-1.07417,0.01291 -2.28547,-0.4483 -3.22179,0.07831c-0.44285,0.24907 0.50196,0.91107 0.56664,1.41503c0.2862,2.22992 -0.23154,4.50704 -0.01308,6.74461c0.45278,4.63757 3.20154,8.18709 4.85779,12.38803c1.07888,2.73649 1.43322,5.70574 2.13656,8.56191c0.00391,1.10761 0.09973,10.48493 -0.17157,11.26217c-1.17789,3.37453 -6.84438,5.00176 -9.90924,5.51101c-1.91579,0.31832 -3.96557,-0.59147 -5.82607,-0.0346c-4.09594,1.22597 -7.85257,3.98075 -12.10161,5.02177c-0.95658,0.23436 -1.9997,-0.25028 -2.9546,-0.00918c-1.31382,0.33172 -2.52309,1.01331 -3.69776,1.68881c-3.2671,1.87878 -5.38628,4.3712 -9.24603,5.2986c-0.32826,0.07887 -7.07735,0.06688 -8.57438,0.06688c-8.24125,0 -16.48518,0.0798 -24.72446,-0.10727c-2.01694,-1.28345 -4.33244,-2.02982 -6.43066,-3.17559c-1.18679,-0.64807 -2.05522,-1.79822 -3.25658,-2.41886c-1.69635,-0.87635 -3.88598,-0.81213 -5.35607,-2.03051c-0.99753,-0.82673 -0.79783,-2.4861 -1.44668,-3.6075c-1.34596,-2.32619 -4.25275,-3.69949 -5.08891,-6.25361c-1.08613,-3.31767 -0.48949,-6.98133 -1.14677,-10.40983c-0.78395,-4.08926 -2.35458,-7.956 -3.27797,-11.9816c-1.09858,-4.78938 -0.7719,-9.65189 -0.7719,-14.51522c0,-5.11775 0.05326,-9.45598 1.04855,-14.49029c0,0 0.12867,-0.64335 0.58376,-1.20498c-0.77412,-2.30197 -1.54204,-4.61482 -1.60002,-4.90428c-0.74614,-3.72497 0.38992,-7.27078 1,-10.80091c0.92485,-5.35148 -0.38611,-11.07541 -1.01355,-16.29409c-0.14253,-1.18549 0.41504,-2.43247 0.08854,-3.581c-0.56852,-1.9999 -2.17023,-3.58835 -2.82108,-5.56299c-0.79608,-1.08459 -1.92687,-1.98995 -2.38825,-3.25376c-1.33323,-3.65195 -0.89793,-8.07786 -0.89793,-11.90772c0,-6.54138 -1.28508,-15.02711 1.29581,-21.17964c0.38409,-0.91563 1.56579,-1.2838 2.07756,-2.13468c0.50168,-0.83411 0.44184,-1.91531 0.88084,-2.78405c0.48319,-0.9562 1.51242,-1.61033 1.85306,-2.62608c0.28372,-0.84604 -0.24336,-1.79967 -0.07499,-2.676c0.42719,-2.22347 2.10621,-4.01614 3.34109,-5.91387c1.34246,-2.06305 0.15039,-4.01555 0.71038,-6.32734c0.35655,-1.47192 3.60331,-5.80123 4,-7c0.32284,-0.9756 -0.30086,-2.1077 0.02352,-3.08279c0.37937,-1.1404 1.33333,-2 2,-3c-0.18011,-3.82067 -0.92355,-8.13728 1.2661,-11.58987c0.68952,-1.08722 2.30152,-1.46262 2.81693,-2.64238c0.46004,-1.05302 -0.33075,-2.30768 -0.15802,-3.44375c0.19858,-1.30605 0.6147,-2.60333 1.25327,-3.75981c2.51913,-4.56228 6.244,-7.75689 10.00206,-11.15842c4.50381,-4.07654 8.85293,-9.15026 13.75061,-12.70941c1.05679,-0.76797 2.65381,-0.68179 3.57314,-1.6099c0.78904,-0.79658 0.28663,-2.44722 1.1519,-3.16026c0.78145,-0.64397 8.55126,-2.79911 9.48713,-3.0948c6.32678,-1.999 12.71701,-4.6427 18.67522,-7.54005c3.42888,-0.04114 6.87799,0.31818 10.28725,-0.05033c4.64302,-0.50187 9.28131,-2.40809 13.87493,-3.26629c3.35247,-0.62632 6.80362,-0.48615 10.20451,-0.74161c3.0031,-0.22558 5.84975,-1.43473 8.77555,-2.14833c7.86736,-1.91884 16.02061,-2.40614 23.97388,-3.81795c4.40032,-0.78112 8.73814,-2.52095 13.17537,-3.0263c6.52273,-0.74286 12.58577,0.69425 18.98085,-1.17266c4.47909,-1.27974 9.34994,-3.302 13.99658,-3.82467c4.16521,-0.46851 9.10585,-0.01873 13.30546,-0.01873c1.22106,0 9.05526,-0.01363 9.52862,0.05653c0.95269,0.1412 1.72452,0.88272 2.64821,1.15539c5.96215,1.76003 12.86223,3.17461 19.04768,3.79818c6.55394,0.66072 13.46074,-0.01824 19.83442,-1.0984c4.57063,-0.77459 8.24134,-2.86709 12.94106,-2.9117c6.66667,0 13.33333,0 20,0c0.35887,0 9.20906,-0.03783 9.72446,0.10727c2.03293,0.57234 3.48449,2.54179 5.5171,3.1153c3.35337,0.94617 6.93638,1.40779 9.98326,3.09802c1.43626,0.79675 2.5166,2.13762 3.93545,2.96496c3.29232,1.91977 8.22961,2.44637 11.79644,3.90475c4.80121,1.96309 10.06874,3.36902 14.76901,5.45173c3.87802,1.71837 7.44169,3.92484 11.3909,5.62119c3.85461,2.20746 7.78864,5.15958 11.84009,6.92708c1.43192,0.62469 3.24465,0.36389 4.50761,1.28343c1.30456,0.94982 1.85148,2.64406 2.73836,3.99221c2.6571,4.03908 4.7283,8.05042 6.41218,12.57279c1.54292,4.14381 2.41097,5.7221 2.87297,10.21493c0.16847,1.63832 -0.18844,3.304 -0.00656,4.94089c0.15177,1.36596 0.83268,2.63585 1,4c0.86461,7.04892 0.28914,14.25991 -0.28316,21.41714l1.96215,0.67387c3.81346,2.8601 8.16963,4.06375 11.6075,7.44668c4.13292,4.06688 6.53935,10.34841 11.54656,13.64114c0.94691,0.62269 2.31755,0.43269 3.20316,1.13986c0.89236,0.71256 0.92907,2.20241 1.84185,2.88862c0.61438,0.46188 1.58646,-0.07586 2.29522,0.22155c1.54836,0.64973 2.77321,1.95128 4.33748,2.56168c1.72005,0.6712 3.80522,0.30563 5.39907,1.23769c1.91521,1.11999 2.59703,3.88086 4.62041,4.79099c2.31084,1.03943 5.03572,0.86558 7.37667,1.83529c3.16549,1.31127 6.39214,3.34892 9.55361,5.30121l3.42363,0.71185c1.15975,0.21693 2.03749,1.23461 2.03749,2.4573c0,1.22888 -0.88665,2.25067 -2.05512,2.46053l-4.50162,0.90032c-4.03274,2.5507 -9.01733,3.09236 -13.84616,3.11972c-4.95414,0 -10.48393,0.65352 -15.40046,-0.03228c-1.04398,-0.14562 -1.9604,-0.82579 -3,-1c-1.04349,-0.17486 -2.15657,0.25596 -3.17393,-0.0346c-1.56082,-0.44576 -2.88802,-1.48947 -4.38233,-2.12342c-0.89705,-0.38056 -5.55023,-1.72555 -6.20356,-2.09525c-1.21758,-0.689 -5.17041,-4.05374 -6.93811,-4.96866c-1.17107,-0.60612 -2.72128,-0.56158 -3.66939,-1.47802c-0.67736,-0.65474 0.0474,-2.15845 -0.69401,-2.73966c-0.63248,-0.49582 -1.63312,0.59472 -2.38929,0.32257c-2.4496,-0.88162 -3.59975,-3.99174 -6,-5c-1.57059,-0.65975 -3.36086,-0.12005 -5.09753,0.08135c-0.43418,0.70901 -0.94871,1.43776 -1.52276,2.16345c0.51856,0.43513 1.04755,0.85444 1.63162,1.19007c1.03313,0.59367 2.44515,0.46091 3.35722,1.22768c1.98078,1.66524 2.41359,4.5794 3.69696,6.8265c0.84218,1.4746 2.30574,2.55603 3.0429,4.08584c1.0985,2.27969 0.47545,5.06833 1.17578,7.50005c0.37596,1.30542 1.33661,2.37112 1.87658,3.61767c1.70625,3.93902 2.78279,8.34485 4.12658,12.41445c0.25597,1.45421 0.17997,3.00816 0.76791,4.36262c0.36783,0.84739 1.55827,1.1216 1.97131,1.9479c0.64652,1.29338 0.53739,2.86407 1.09992,4.19614c1.57683,3.73398 4.74153,7.126 6.25892,10.96338c0.60989,1.54238 0.59714,3.28417 1.20293,4.82817c0.49717,1.26715 1.22464,2.4536 2.07205,3.51884c1.0882,1.36792 3.86392,1.98586 3.69068,3.72521c-0.51293,5.14992 -9.0898,5.49126 -12.5,5.5c-5.02332,0.01288 -10.50418,0.53321 -15.57212,-0.43188c0.08929,2.58211 0.46611,5.11299 1.65922,7.55565zM642.76065,492.6886c0,2.5332 -0.55543,5.12095 -0.03228,7.59954c0.32966,1.56188 1.1492,2.98696 1.53818,4.53514c0.66616,2.65139 0.45212,5.51098 1.36961,8.08623c1.0096,2.83381 2.7109,5.49137 3.10577,8.47364c0.17935,1.3546 -0.11135,2.73825 0.01021,4.09926c0.41808,4.68079 2.12401,9.14324 2.96803,13.75811c0.31169,1.70423 0.82219,3.37628 1.00831,5.09875c0.13166,1.2185 -0.42905,2.50754 -0.06012,3.67629c0.49319,1.56245 1.69831,2.80245 2.54747,4.20367c0.03375,1.46776 -0.56147,3.09322 0.10125,4.40327c0.48608,0.96087 2.17272,0.6588 2.87323,1.47661c0.75615,0.88277 0.57381,2.29398 1.19698,3.27516c1.83971,2.89664 3.4965,2.39086 6.33515,4.28622c0.71029,0.47426 1.01403,1.45513 1.76997,1.85261c2.70895,1.42438 8.03967,0.6755 10.76825,0.6755c5.33333,0 10.66667,0 16,0c3.65112,0 7.34765,-0.11501 11,0c1.01591,0.03199 2.07262,0.49177 3.04329,0.1903c2.71007,-0.84169 1.4941,-3.92895 1.45671,-5.6903c-0.03568,-1.6806 0.18931,-3.58934 1.26393,-4.88197c-0.69275,0.00286 -1.45519,0.31142 -2.07826,0.00859c-0.73427,-0.35688 -0.88372,-1.51534 -1.64238,-1.81693c-0.81174,-0.32269 -1.77807,0.36448 -2.61767,0.12342c-3.68286,-1.05737 -7.22807,-4.2031 -10.98514,-4.99654c-1.10873,-0.23415 -2.37117,0.35415 -3.39719,-0.12688c-1.29478,-0.60704 -2.36503,-1.72551 -3.13039,-2.93347c-2.3136,-3.65149 -2.57492,-7.80055 -2.5204,-11.96421c-1.13329,-0.66503 -2.14733,-1.56704 -3.34921,-2.10231c-2.22499,-0.99094 -5.09587,0.08113 -7.22294,-1.10551c-1.04957,-0.58553 -1.33333,-2 -2,-3c-0.84827,0.06285 -1.73728,0.45574 -2.54482,0.18854c-1.26555,-0.41875 -2.18068,-1.55269 -3.37392,-2.14694c-1.55555,-0.77469 -5.17497,-1.2599 -6.41911,-2.25902c-2.84541,-2.28505 -2.53931,-4.76337 -4.51062,-7.52499c-0.8734,-1.22355 -2.41763,-1.91574 -3.14739,-3.23003c-1.17631,-2.11852 -0.63645,-4.86829 -1.60185,-7.09086c-0.68225,-1.5707 -2.09096,-2.79129 -2.61678,-4.42104c-0.94649,-2.93362 -0.41887,-6.17042 -1.04863,-9.18792c-0.93946,-4.50144 -2.61826,-8.69227 -3.04873,-13.32572c-0.22139,-2.38294 -0.21744,-4.83969 -0.16132,-7.29686c-0.56323,0.28215 -1.14076,0.5608 -1.75412,0.81862c0.64325,6.13956 0.90691,12.06717 0.90691,18.27205zM690.11171,455.33792c2.41688,0.96771 3.53287,4.16872 6,5c1.14511,0.38584 2.63414,-0.38908 3.61071,0.32257c0.94616,0.68949 0.49458,2.41641 1.30599,3.26034c0.55178,0.57389 1.61301,0.17723 2.33061,0.52198c3.80917,1.82999 3.25649,2.83135 7.06189,5.03134c1.76073,1.01792 3.93022,1.09635 5.79644,1.90475c1.24655,0.53997 2.31152,1.5032 3.61767,1.87658c0.90581,0.25893 1.89665,-0.18861 2.82607,-0.0346c1.03991,0.17232 1.95706,0.84707 3,1c4.62863,0.67871 9.92914,-0.03228 14.59954,-0.03228c3.29345,0.02289 6.71506,-0.26961 9.67219,-1.51689c-2.31325,-1.43073 -5.4949,-3.52362 -6.19756,-3.8147c-4.27226,-1.76981 -7.65009,-0.92224 -11.2424,-4.40064c-0.75249,-0.72863 -0.71184,-2.17449 -1.62333,-2.69055c-1.29537,-0.7334 -3.01326,-0.19994 -4.40674,-0.72347c-1.5485,-0.58178 -2.74689,-1.88083 -4.26623,-2.53499c-1.03272,-0.44464 -2.37529,-0.07417 -3.29526,-0.72061c-1.03273,-0.72568 -1.17327,-2.32198 -2.15815,-3.11138c-0.76107,-0.61001 -1.98841,-0.31444 -2.79684,-0.86014c-5.39948,-3.6447 -8.05334,-9.86927 -12.45344,-14.35886c-1.70641,-1.74112 -4.27581,-2.34378 -6.3925,-3.55332c-1.44707,-0.8269 -2.66667,-2 -4,-3l-0.0299,-0.00958c-0.18687,2.71954 -0.3232,5.42374 -0.32856,8.10059c-0.59374,2.37494 -0.35764,4.92029 -1.04815,7.26892c-0.76049,2.58668 -2.60169,4.6884 -4.15768,6.92669c2.05907,0.00898 4.30958,0.04173 4.57562,0.14825zM669.02458,457.57057c1.11803,-2.23607 3.3541,-1.11803 3.3541,-1.11803l2.64973,1.4683c0.70617,0.74935 1.63379,1.22073 2.58301,1.66399c0.56715,-0.68161 1.05851,-1.37516 1.43478,-2.05649c0.50958,-0.92273 0.47704,-2.08478 1,-3c1.45339,-2.54357 3.97101,-4.46358 4.78133,-7.41412c0.6001,-2.18511 0.40226,-4.53272 0.95185,-6.73108c-0.02277,-10.9241 2.40097,-22.40347 1,-33.38908c-0.17386,-1.36333 -0.84823,-2.63404 -1,-4c-0.18623,-1.67606 0.15276,-3.38028 -0.00656,-5.05911c-0.35712,-3.76289 -1.26633,-5.43763 -2.58218,-8.96062c-1.58357,-4.23978 -3.62358,-7.77704 -5.95235,-11.64601c-0.51309,-0.85245 -0.61725,-2.05687 -1.44196,-2.61344c-0.98505,-0.66477 -2.39893,-0.25117 -3.49239,-0.71657c-4.15777,-1.76964 -8.22186,-4.80631 -12.15991,-7.07292c-3.88163,-1.65956 -7.38146,-3.82819 -11.18403,-5.52377c-4.6565,-2.07635 -9.89406,-3.44768 -14.65606,-5.40331c-3.80788,-1.5638 -8.64148,-2.0957 -12.20356,-4.09525c-1.47447,-0.82768 -2.59554,-2.19769 -4.06455,-3.03504c-3.82713,-2.18149 -4.82244,-1.42785 -9.08141,-2.70243c-1.99095,-0.59583 -3.42316,-2.50241 -5.41824,-3.08425c-2.64842,-0.77238 -5.51679,0.10727 -8.27554,0.10727c-6.66667,0 -13.33333,0 -20,0c-4.36166,-0.05416 -7.90875,2.10952 -12.20025,2.85652c-6.73642,1.17257 -14.09641,1.82476 -21.02426,1.13338c-6.55817,-0.65448 -13.85267,-2.16612 -20.17238,-4.0321c-0.7547,-0.22284 -1.35296,-0.90136 -2.13173,-1.01433c-2.79461,-0.40537 -5.64753,0.05653 -8.47138,0.05653c-3.99712,0 -8.71624,-0.45446 -12.69454,-0.01873c-4.3744,0.47912 -9.02057,2.46594 -13.23389,3.66975c-6.75266,1.89341 -12.96093,0.55532 -19.78867,1.33292c-4.31177,0.49106 -8.54495,2.2121 -12.82463,2.9737c-9.59475,1.70745 -19.0208,2.98164 -28.49739,5.23881c-4.82801,1.14996 -9.58703,0.54509 -14.44817,1.46751c-4.71431,0.89456 -9.45604,2.7998 -14.22558,3.3195c-0.99419,0.10833 -8.35386,-0.0298 -9.71275,-0.05033c-5.75884,2.97259 -12.12506,5.47558 -18.31425,7.44043c-1.60426,0.5093 -3.21225,1.0124 -4.84289,1.42957c-0.88027,0.2252 -2.02015,-0.12896 -2.68051,0.49515c-0.71798,0.67856 -0.14656,2.1442 -0.8481,2.83974c-1.19087,1.18068 -3.08019,1.39077 -4.42686,2.3901c-4.73358,3.5127 -8.92966,8.39441 -13.32045,12.36165c-3.39087,3.06377 -6.52602,5.75599 -8.92687,9.77051c-1.17304,1.96146 -0.01584,4.69093 -0.90475,6.79644c-0.59983,1.42078 -2.29381,2.09762 -3.18307,3.35762c-1.78039,2.52265 -0.64961,7.48349 -0.7339,10.41013c-0.66667,1 -1.61923,1.86006 -2,3c-0.30808,0.92234 0.33984,1.99766 0.02352,2.91721c-0.87419,2.54126 -3.44759,4.36997 -4,7c-0.53309,2.53805 -0.01395,5.41467 -1.28962,7.67266c-0.46375,0.82087 -1.48578,1.20977 -2,2c-0.99259,1.52538 -0.16088,3.6828 -0.7339,5.41013c-0.41972,1.26523 -1.55498,2.17954 -2.14694,3.37392c-0.50404,1.01698 -0.5362,2.24206 -1.11916,3.21595c-0.45859,0.76612 -1.55701,1.05064 -1.92244,1.86532c-0.9121,2.03339 -0.70211,5.68917 -0.70419,7.82628c-0.00357,3.66468 0.00001,7.32939 0.00001,10.99408c0,2.97 -0.56744,7.19661 0.51628,9.99178c0.43334,1.11769 1.46502,1.89783 2.19753,2.84675c0.76404,2.26781 2.51905,4.13673 3.17892,6.43701c0.40625,1.41618 -0.10038,2.95787 0.08854,4.419c0.17623,1.36302 0.85043,2.63379 1,4c0.43891,4.00915 0.63654,9.67518 -0.01355,13.70591c-0.4869,3.01894 -1.66976,5.99382 -1,9.19909c0.59688,2.85649 1.87001,5.52877 2.77807,8.30208l1.83434,2.71163c0,0 1.38675,2.08013 -0.69338,3.46688c-2.08013,1.38675 -3.46688,-0.69338 -3.46688,-0.69338l-0.22675,-0.3443c-0.19417,2.57948 -0.19312,5.12763 -0.19312,7.95755c0,4.43222 -0.38418,9.02261 0.64231,13.38427c0.9573,4.06764 2.52242,7.98005 3.30782,12.1189c0.32624,1.71922 0.70286,3.436 0.85934,5.17889c0.12725,1.41732 -0.39436,2.89861 -0.01111,4.26906c0.19273,0.68915 1.14539,0.87751 1.60399,1.42683c1.18705,1.42188 2.40224,2.8484 3.31209,4.46178c0.40208,0.71299 -0.10077,1.90037 0.55332,2.3925c1.14082,0.85835 2.84401,0.5133 4.13077,1.13177c1.21875,0.58577 2.07017,1.7701 3.25658,2.41886c1.82631,0.99867 3.8686,1.62431 5.56934,2.82441c7.75081,-0.25383 15.52079,-0.10727 23.27554,-0.10727c2.47531,0 5.01359,0.623 7.42562,0.06688c2.38288,-0.5494 6.04531,-3.75631 7.96404,-4.80173c4.24916,-2.31516 7.9673,-2.28887 12.38535,-3.96681c2.58799,-0.9829 4.98162,-2.4964 7.65061,-3.23146c3.0086,-0.82859 5.69988,0.06728 8.78381,-0.93859c1.21207,-0.39533 3.27075,-0.32752 3.48087,-1.585c0.48013,-2.87333 -0.18319,-5.82468 -0.17157,-8.73783c-0.62981,-2.47718 -0.91533,-5.06445 -1.86344,-7.43809c-2.56052,-6.41039 -5.14249,-10.76928 -5.15529,-17.86737c-0.00238,-1.32085 -0.11899,-6.96481 0.56664,-7.58497c1.69288,-1.53122 4.33563,-1.48882 6.58402,-1.88285c4.0659,-0.71255 9.23796,-0.03218 13.34934,-0.03218c5,0 10,0 15,0c0.27567,0 7.39753,-0.0451 7.79057,0.12829c7.12467,3.14307 8.6454,10.41434 8.70633,17.24717c0.55967,5.56093 -0.29027,13.91303 5.73485,16.94903c1.87016,0.94235 4.20514,0.23 6.24102,0.72061c1.63092,0.39302 3.03377,1.51653 4.6751,1.86348c3.6094,0.76297 8.14269,0.09141 11.85213,0.09141c2.75874,0 5.63431,0.90388 8.27554,0.10727c1.15065,-0.34704 1.85805,-1.62531 3,-2c1.05305,-0.34552 2.22825,0.09116 3.324,-0.07499c2.31532,-0.35106 7.00882,-3.17617 8.31775,-4.91515c1.67568,-2.22624 0.58271,-9.2711 0.58271,-11.61713c0,-5.66613 -0.03958,-11.33406 0,-17c0.02765,-3.95832 -0.76929,-8.22498 3.18567,-11.12663c1.32382,-0.97125 3.29505,-0.06677 4.91387,-0.34109c1.03928,-0.17612 1.95552,-0.85797 3,-1c2.98421,-0.4058 6.77163,0.20201 9.67193,0.6072c1.27956,0.17876 2.70747,-0.03033 3.8269,0.61473c1.39061,0.80133 4.92153,4.93499 6.56893,6.38297c2.44697,2.15075 5.35754,3.7112 7.95933,5.67183c2.00721,1.51257 3.50944,3.6626 5.62154,5.02488c1.27227,0.8206 3.622,0.65348 4.01977,2.11425c0.57641,2.1168 -1.24071,4.21233 -1.71369,6.35461c-0.78575,3.55893 -0.76109,5.72071 -0.97255,9.36409c-0.15032,1.1963 -0.7422,2.41889 -0.45097,3.58889c0.11698,0.46998 0.9367,0.28152 1.42041,0.30579c1.14836,0.05761 2.2991,-0.05054 3.44885,-0.06151c4.24843,-0.04052 8.61351,0.33711 12.84466,0.00483c2.67917,-0.2104 5.31649,-0.85507 8,-1c3.09072,-0.16693 4.26755,0.48142 7.14396,-0.79112c1.19006,-0.52649 2.05114,-1.69867 3.28692,-2.10644c1.05247,-0.34729 2.23139,0.11074 3.324,-0.07499c1.03919,-0.17665 1.95984,-0.82917 3,-1c0.8992,-0.14768 1.87549,0.3664 2.73312,0.05843c1.52499,-0.54761 2.63239,-1.96395 4.15052,-2.53029c1.25145,-0.46685 2.6697,-0.22072 3.97563,-0.50115c1.07691,-0.23125 2.0542,-0.84628 3.14073,-1.027c0.92933,-0.15457 1.92026,0.29353 2.82607,0.0346c2.49646,-0.71363 4.70507,-2.23066 7.17393,-3.0346c1.2033,0.032 2.4611,0.45549 3.60989,0.09601c1.87953,-0.58815 2.67244,-2.96101 3.54478,-4.72667c0.51835,-1.04918 1.48338,-1.84399 1.9595,-2.91301c1.30625,-2.93288 1.35692,-7.47307 0.81857,-10.58816c-0.17951,-1.0387 -0.82917,-1.95984 -1,-3c-0.14768,-0.8992 0.36041,-1.87336 0.05843,-2.73312c-1.82444,-5.19437 -6.42233,-9.69702 -8.82984,-14.55545c-0.77212,-1.55816 -0.8266,-3.38918 -1.4623,-5.00779c-1.27431,-3.24461 -3.22308,-6.31089 -3.77379,-9.753c-0.49244,-3.0779 -0.02478,-6.23405 -0.02478,-9.35109c0,-0.50715 -0.06405,-7.4349 0.1903,-7.95671c0.78005,-1.60029 2.42826,-2.60407 3.6424,-3.90611c2.28169,-1.82434 4.77893,-3.36252 7.12431,-5.1042c0.93385,-0.69348 1.47376,-2.00312 2.58628,-2.34268c2.97191,-0.90708 6.26891,-0.24095 9.25774,-1.0906c2.08543,-0.59284 3.62093,-1.41209 5.18716,-2.16889c0.00742,-0.47927 0.01181,-0.95639 0.01181,-1.43081c0,0 0,-2.5 2.5,-2.5c1.96049,0 2.38357,1.53741 2.47487,2.20097c0.37389,-0.06706 0.76543,-0.12391 1.17772,-0.16898c6.76954,-0.74014 15.51601,2.13382 21.66366,-1.50822c0.6009,-0.35599 1.23476,-0.77924 1.87328,-1.25236c-0.71635,-0.58525 -1.28686,-1.35903 -1.9573,-2.00363l-1.35027,-0.5317c0,0 -2.23607,-1.11803 -1.11803,-3.3541z" fill="#00feff" stroke="none" stroke-width="0.5" stroke-linecap="butt"/><path d="M634.81431,414.58108c0.61678,0.4148 1.1096,0.69492 1.1708,0.71478c0.72225,0.23448 1.51703,-0.07151 2.27554,-0.10727c0,0 2.5,0 2.5,2.5c0,2.5 -2.5,2.5 -2.5,2.5c-5.75007,-0.16561 -13.70764,-4.51744 -10.02811,-11.96178c0.60112,-1.21618 2.60887,-0.87769 3.71378,-1.66485c1.20162,-0.85606 2.0477,-2.12464 3.08209,-3.17667c0.86795,-0.88275 5.82742,-5.86542 6.27552,-6.0064c6.93789,-2.18275 7.41676,2.62679 6.26641,8.26641c-0.31789,1.55846 -5.17418,4.85602 -6.29831,5.32958c-1.03147,0.43452 -2.39068,-0.08642 -3.31276,0.54802c-0.54466,0.37475 -0.21794,1.30418 -0.32692,1.95626zM638.98176,406.50791c0.09055,-0.03234 0.1798,-0.06739 0.2675,-0.10559c2.44155,-1.06366 3.85251,-2.40091 4.24362,-4.94595c0.03078,-0.2003 -0.14689,0.38534 -0.27552,0.54193c-0.69643,0.84777 -1.43524,1.66078 -2.18894,2.45807c-0.28128,0.29755 -1.0913,1.10637 -2.04665,2.05154zM633.20442,410.92949c-0.03482,-0.00216 -0.06943,-0.00393 -0.10376,-0.00514l-0.21173,0.97369c0.12704,-0.30705 0.22575,-0.63456 0.31548,-0.96855z" fill="#00feff" stroke="none" stroke-width="0.5" stroke-linecap="butt"/><path d="M673.34077,402.30185c1.38675,2.08013 -0.69338,3.46688 -0.69338,3.46688l-2.33605,1.47513c0.02478,0.04355 0.05008,0.08703 0.07592,0.13042c0.38465,0.6458 1.20482,0.93448 1.64114,1.54656l3,3c0.45241,0.45241 0.73223,1.07741 0.73223,1.76777c0,1.38071 -1.11929,2.5 -2.5,2.5h-3c-2.6814,-0.02546 -5.48785,0.34905 -7.76777,-1.73223c-0.95685,-0.87349 -0.81219,-2.47791 -1.44668,-3.6075c-0.77547,-1.38056 -2.17595,-2.44911 -2.89691,-3.82762c-2.70892,-1.11834 -4.42175,-3.31319 -3.06414,-7.5644c0.63929,-2.00186 4.08583,-1.04594 6.1755,-1.26825c1.31302,-0.13969 2.75124,-0.34856 3.95671,0.1903c2.21036,0.98805 3.00699,2.43996 3.50818,4.05848l1.14836,-0.8289c0,0 2.08013,-1.38675 3.46688,0.69338zM667.51396,411.49422c-0.95114,-0.77547 -1.51268,-1.89128 -2.05218,-3.35452c-0.0846,-0.00073 -0.16973,-0.00169 -0.25535,-0.00292c0.09817,0.12494 0.18861,0.25491 0.26866,0.39155c0.41378,0.70626 0.03739,1.75702 0.55332,2.3925c0.36001,0.44343 0.8893,0.5751 1.48555,0.57339z" fill="#00feff" stroke="none" stroke-width="0.5" stroke-linecap="butt"/><path d="M901.05122,526.06031c-2.37171,0.79057 -3.16228,-1.58114 -3.16228,-1.58114l-0.52954,-2.16723c-0.80629,-0.41886 -1.91326,-0.50166 -2.41886,-1.25658c-0.99527,-1.48606 -0.87602,-3.52498 -1.80652,-5.05243c-1.78317,-2.92715 -5.51976,-4.36074 -7.18307,-7.35762c-0.48528,-0.87436 0.36446,-2.06878 0,-3c-0.29755,-0.76025 -1.41351,-0.93261 -1.81693,-1.64238c-0.68145,-1.19896 -1.09025,-2.55779 -1.34109,-3.91387c-0.14672,-0.79319 0.49949,-1.67737 0.1706,-2.41392c-0.38211,-0.85574 -1.72715,-1.01734 -2.08881,-1.88192c-0.74545,-1.78209 -0.72004,-3.79574 -1.08006,-5.69361c0,0 -0.411,-2.46598 2.05499,-2.87698c2.46598,-0.411 2.87698,2.05499 2.87698,2.05499c0.18798,1.39011 -0.00175,2.88668 0.56393,4.17033c0.42975,0.9752 1.85669,1.27068 2.2672,2.25414c0.73607,1.76339 -0.20002,4.06242 0.82951,5.6722c0.57706,0.90229 1.77892,1.36576 2.18307,2.35762c0.37735,0.92607 -0.46341,2.11385 0,3c1.47023,2.81143 5.14498,3.94603 6.81693,6.64238c0.81455,1.31363 0.50141,3.1463 1.35576,4.4344c0.50221,0.75718 1.61257,0.83772 2.41886,1.25658l1.47046,3.83277c0,0 0.79057,2.37171 -1.58114,3.16228z" fill="#00feff" stroke="none" stroke-width="0.5" stroke-linecap="butt"/><path d="M1016.02841,672.45638c-1.76777,1.76777 -3.53553,0 -3.53553,0l-3.12087,-3.12976c-4.05907,-5.41102 -7.1064,-10.62089 -9.06919,-17.1305c-0.31108,-1.03171 -0.76295,-2.24076 -0.91966,-3.3801c-1.3626,0.34241 -2.79674,0.49974 -4.04809,1.12994c-1.49518,0.753 -2.52676,2.25395 -4.02056,3.00967c-3.88371,1.96478 -9.0909,1.16382 -13,3c-1.5912,0.74741 -2.58971,2.56652 -4.2633,3.10469c-1.83797,0.59103 -3.86038,0.08553 -5.79057,0.12829c0,0 -2.5,0 -2.5,-2.5c0,-2.5 2.5,-2.5 2.5,-2.5c1.40314,0.04276 2.88371,0.58994 4.20943,0.12829c1.48807,-0.51818 2.30533,-2.2365 3.7367,-2.89531c3.88599,-1.78858 9.25392,-1.01538 13,-3c1.4662,-0.77677 2.493,-2.25303 3.97944,-2.99033c1.0394,-0.51556 2.25593,-0.52518 3.40087,-0.73926l1.57192,-2.35788c0.44514,-0.68925 1.2201,-1.14551 2.10163,-1.14551c1.1246,0 2.07576,0.74256 2.38994,1.76412l0.98177,2.94531l-0.00462,0.00154c0.00546,0.01148 0.0109,0.02297 0.01632,0.03447c0.45927,0.97465 2.32418,8.24936 2.79326,9.36054c1.61192,3.81841 4.24825,7.47031 6.71197,10.75601l2.87913,2.87024c0,0 1.76777,1.76777 0,3.53553z" fill="#00feff" stroke="none" stroke-width="0.5" stroke-linecap="butt"/><path d="M1099.34077,675.07536c-1.38675,2.08013 -3.46688,0.69338 -3.46688,0.69338l-2.37773,-1.69988c-1.37187,-0.02673 -2.77929,0.23122 -4.11561,-0.0802c-5.62457,-1.31079 -8.83813,-5.23877 -13.47303,-8.19705c-1.28436,-0.81976 -7.8042,-4.0212 -8.9022,-4.79254c-1.8405,-1.29294 -5.39054,-5.07162 -7.25836,-6.56837c-0.73005,-0.58501 -1.43725,-1.59757 -2.36829,-1.50602c-0.57413,0.05645 0.3668,1.17026 0.19192,1.72002c-0.97244,3.05709 -2.57318,5.87869 -3.95406,8.77431c-2.01776,4.2311 -2.86641,6.5508 -2.85589,11.26961c0,0 0,2.5 -2.5,2.5c-2.5,0 -2.5,-2.5 -2.5,-2.5c0.00596,-3.01192 -0.14256,-5.73647 0.83414,-8.73654c0.54743,-1.68152 1.74931,-3.07774 2.50459,-4.67672c1.3341,-2.82438 2.43972,-5.75636 3.85131,-8.54282c0.72435,-1.42986 0.64914,-3.84522 2.19192,-4.27998c6.56634,-1.85042 10.48405,5.46757 14.73688,8.45517c2.69749,1.89498 5.9393,2.89561 8.7181,4.66921c3.91182,2.49676 7.05922,6.51532 11.81176,7.51872c1.507,0.31817 3.07718,0.14181 4.61577,0.21272l3.62227,2.30012c0,0 2.08013,1.38675 0.69338,3.46688z" fill="#00feff" stroke="none" stroke-width="0.5" stroke-linecap="butt"/><path d="M1061.76065,541.6886c0,2.5 -2.5,2.5 -2.5,2.5h-4c-3.54533,0 -9.08825,0.88816 -12.57438,-0.06688c-2.66045,-0.72884 -4.99712,-2.58485 -7.73108,-2.95185c-2.30297,-0.30915 -4.8188,-0.14704 -6.85481,-1.26682c-2.6159,-1.43871 -4.66776,-3.80057 -7.33913,-5.13346c-1.57148,-0.78409 -3.40545,-1.03505 -4.87684,-1.99389c-2.69587,-1.75677 -4.00038,-4.16248 -5.7039,-6.70035c0,0 -1.38675,-2.08013 0.69338,-3.46688c2.08013,-1.38675 3.46688,0.69338 3.46688,0.69338c1.08772,1.64445 2.53475,4.21522 4.2961,5.29965c1.34307,0.8269 2.99782,1.0135 4.40793,1.72002c2.68145,1.3435 4.80456,3.60917 7.37611,5.15264c2.31925,1.39204 2.48597,0.33324 5.14519,0.73318c2.90495,0.4369 5.45582,2.20196 8.26892,3.04815c2.94274,0.88518 8.44615,-0.06688 11.42562,-0.06688h4c0,0 2.5,0 2.5,2.5z" fill="#00feff" stroke="none" stroke-width="0.5" stroke-linecap="butt"/><path d="M1028.76065,511.6886c0,-1.38071 1.11929,-2.5 2.5,-2.5c1.38071,0 2.5,1.11929 2.5,2.5c0,1.38071 -1.11929,2.5 -2.5,2.5c-1.38071,0 -2.5,-1.11929 -2.5,-2.5z" fill="#00feff" stroke="none" stroke-width="0.5" stroke-linecap="butt"/><path d="M1052.76065,516.6886c0,-1.38071 1.11929,-2.5 2.5,-2.5c1.38071,0 2.5,1.11929 2.5,2.5c0,1.38071 -1.11929,2.5 -2.5,2.5c-1.38071,0 -2.5,-1.11929 -2.5,-2.5z" fill="#00feff" stroke="none" stroke-width="0.5" stroke-linecap="butt"/><path d="M1279.4847,-19.47643c-0.72405,-0.74061 -0.72405,-1.83497 -0.72405,-1.83497v-4c0,-4.32046 -0.94512,-10.38893 0.06525,-14.56744c0.37688,-1.55862 1.5798,-2.8131 2.08718,-4.33425c0.85673,-2.56848 0.85645,-6.6848 2.09022,-9.17274c0.14647,-0.29535 6.29782,-8.51162 6.55748,-8.75873c2.2628,-2.15344 5.6358,-2.70911 8.34339,-4.26684c0.90554,-0.52097 1.33635,-1.71892 2.29478,-2.13464c1.59537,-0.692 3.47841,-0.46001 5.10499,-1.07506c1.07639,-0.40701 1.82874,-1.42207 2.85833,-1.93609c0.87086,-0.43477 1.97577,-0.33852 2.78405,-0.88084c1.17437,-0.78795 2,-2 3,-3c1,-0.33333 2.12293,-0.41532 3,-1c1.12852,-0.7523 1.74376,-2.12039 2.85255,-2.90148c2.18256,-1.53751 4.95165,-2.01208 7.33961,-3.20589c2.5752,-1.28742 4.7434,-3.54758 7.54779,-4.19913c6.73466,-1.56468 11.7933,2.21325 17.62384,4.4488c4.65495,1.78481 9.69306,2.57154 14.35171,4.35058c12.43393,4.74823 23.85004,11.69977 36.39192,16.26288c11.73802,3.58777 23.58169,6.69297 35.64837,8.91015c4.71926,0.86714 9.62165,0.73897 14.34608,1.58512c3.27688,0.58689 6.41018,1.84758 9.69006,2.41746c3.25524,0.5656 6.58681,0.55615 9.86333,0.98149c8.84563,1.14828 17.67228,2.94727 26.49255,4.32886c4.92775,1.11021 9.99014,2.01459 14.84367,3.42112c6.32132,1.83189 12.3526,4.7035 18.52925,6.96066c4.41024,1.61164 9.41289,1.63197 13.51174,3.95308c5.99746,3.39626 11.55332,8.36969 15.69841,13.78633c4.16172,5.43837 8.75029,9.44973 10.04335,16.58054c0.61376,3.38467 0.04012,7.91497 0.04012,11.44606c-0.02058,1.51738 0.2522,3.06744 -0.06173,4.55214c-0.2729,1.29063 -1.23422,2.34391 -1.66037,3.59235c-0.63379,1.85675 -1.79832,8.116 -2.45752,9.78602c-0.57049,1.44531 -1.80126,2.57831 -2.32073,4.04273c-1.63109,4.59815 -2.21144,11.746 -1.53193,16.62631c0.73717,5.29445 5.08253,8.99645 7.78744,13.30424c6.37837,10.15807 11.95436,20.7292 17.17796,31.52184c0.05868,3.34882 0.26579,7.12835 1.15603,10.36337c0.91782,3.33525 2.51133,6.52718 2.89868,9.96466c0.62074,5.50865 0.43523,12.45871 -0.32397,17.96574c-0.45748,3.31844 -2.16412,6.37375 -2.69615,9.68106c-0.27012,1.67916 0.23392,3.42034 -0.01877,5.10221c-0.39219,2.61033 -2.19241,4.80945 -3.07977,7.29545c-1.00674,2.82046 -0.77179,5.42905 -2.11183,8.27631c-0.72963,1.55029 -2.2004,2.64722 -3.06475,4.12663c-1.57642,2.69817 -1.17572,6.70336 -3.77289,8.85672c-0.97858,0.81136 -9.645,0.24133 -10.37298,0.21273c-7.87847,-3.0909 -15.62049,-6.51404 -23.53525,-9.51552c-2.9709,-1.12664 -5.84714,-2.58762 -8.94523,-3.29291c-3.96664,-0.90302 -8.54837,1.05116 -12.52295,-0.15238c-1.15573,-0.34997 -1.76598,-1.64894 -2.68889,-2.42767c-3.10741,-2.62199 -6.3894,-4.73953 -9.91232,-6.75003c-9.56324,-5.45765 -19.4601,-9.98158 -29.43747,-14.63768c-31.75551,-14.81924 -64.17119,-28.25817 -96.26157,-42.33328c-3.84659,-2.89361 -5.69054,-3.61532 -8.00039,-8.0866c-0.61508,-1.19064 -0.37981,-2.69437 -0.95273,-3.90586c-1.14574,-2.42275 -3.94779,-3.71067 -5.37577,-5.97855c-0.90307,-1.43423 -1.09493,-3.23122 -1.94271,-4.6988c-0.80239,-1.389 -2.05593,-2.46901 -2.96246,-3.79239c-2.28761,-3.3395 -4.17854,-7.3716 -7.05238,-10.3108c-2.30771,-2.36019 -5.70662,-3.3948 -8.1818,-5.57871c-0.8699,-0.76753 -1.06969,-2.10726 -1.90413,-2.91321c-2.70378,-2.61146 -7.72895,-2.69052 -11.04566,-3.48896c-2.50961,-0.60415 -4.68313,-2.1956 -7.12312,-3.03797c-4.36297,-1.50626 -8.11324,-3.28677 -12.6406,-4.38297c-4.32171,-3.06931 -9.14269,-4.43819 -13.47901,-7.30756c-1.4363,-0.95041 -2.45826,-2.42566 -3.82549,-3.473c-4.39445,-3.36627 -8.33207,-6.03828 -11.39364,-10.90804c-4.56275,-7.25754 -4.76003,-15.2259 -6.69485,-23.21483c-1.38543,-5.7205 -4.0893,-11.8241 -1.94424,-17.24781z" fill="#ffffff" stroke="none" stroke-width="0.5" stroke-linecap="butt"/><path d="M1547.76014,512.15504c0.01796,0.51161 0.03094,1.0231 0.00051,1.53357c-0.03659,0.61365 -0.65306,1.32007 -0.29581,1.82036c0.62785,0.87925 2.11563,0.81219 2.78258,1.66216c0.52148,0.66459 -0.20295,1.9854 0.47501,2.48938c0.67167,0.4993 1.7515,-0.66597 2.49493,-0.28159c0.47636,0.24629 6.72295,6.3139 7.14333,6.95329c3.36903,5.12424 4.14488,12.13479 7.35624,17.47898c5.65947,9.41819 15.36375,17.37343 24.04372,23.87743c1.45807,1.11516 3.09994,2.0242 4.3742,3.34549c1.9714,2.04419 2.81708,4.93238 4.27152,7.37158c0.49791,0.83504 4.93878,7.83991 5.13957,8.26928c1.89156,4.04504 2.63977,9.23581 3.81104,13.53203c2.76484,10.14147 6.58501,19.68093 7.3964,30.29099c0.73391,9.597 0.00728,19.5603 0.00728,29.19063c0,11.15275 0.14749,22.75779 -2.46111,33.70246c-1.54256,6.47196 -4.73822,12.61056 -6.6365,18.9893c-1.75176,5.8864 -1.76178,12.94694 -4.27082,18.5411c-0.1319,0.29409 -5.70016,8.08226 -6.04889,8.57137c-1.8955,2.6586 -3.64775,5.41839 -5.36648,8.19455c-1.0282,1.66078 -1.64299,3.69517 -3.14407,4.94503c-1.38739,1.1552 -3.38203,1.26461 -5.07305,1.89691c-11.30094,3.82569 -23.69826,2.65929 -35.49909,2.65929c-12.50089,0 -26.19442,1.39991 -38.53961,-1.05893c-2.91322,-0.58024 -5.54776,-2.12802 -8.35368,-3.1029c-6.22053,-2.16124 -12.55178,-4.12981 -18.92745,-5.76691c-8.95955,-2.31877 -17.98773,-2.07126 -27.17926,-2.07126c-7.96496,0 -16.31545,-0.69306 -24.24556,0.07804c-1.6657,0.16197 -3.27033,0.76475 -4.93762,0.90947c-14.38834,1.24896 -29.34592,-2.02865 -42.86398,-6.53467c-1.70437,-0.57947 -3.51855,-0.90292 -5.11311,-1.7384c-1.36141,-0.71331 -2.19005,-2.30614 -3.6303,-2.84274c-1.30147,-0.48489 -2.8967,0.50143 -4.16614,-0.06201c-1.53112,-0.67959 -2.40645,-2.33435 -3.6813,-3.42106c-1.43603,-1.22411 -3.35887,-1.96252 -4.4447,-3.50577c-0.9333,-1.32646 -0.843,-3.13299 -1.31759,-4.6839c-0.2874,-0.93918 -2.99325,-8.84149 -3.06742,-9.29851c-0.04224,-0.26032 -0.03228,-9.9022 -0.03228,-10.40046c0,-3.15801 -0.59011,-6.38051 0.04533,-9.47393c0.65172,-3.17267 2.58067,-5.98698 3.2579,-9.1543c1.03559,-4.84332 0.8345,-9.96734 1.74093,-14.83962c1.17777,-6.33078 3.10095,-12.5782 4.35283,-18.92076c1.65413,-8.38056 3.72418,-15.9901 7.89727,-23.52553c0.94599,-1.7082 1.45228,-3.77742 2.89623,-5.09189c1.36304,-1.24082 3.48108,-1.26457 5.08469,-2.17338c1.54113,-0.8734 2.68082,-2.39454 4.2884,-3.13859c2.55904,-1.18442 5.63414,-0.5006 8.38503,-1.12044c1.52259,-0.34307 2.95946,-0.99273 4.4402,-1.48609c4.78067,-1.59284 9.60603,-3.20789 14.48042,-4.49459c2.88964,-0.76278 5.92123,-0.98018 8.75714,-1.92327c6.73377,-2.23932 12.6049,-8.18261 18.11022,-12.42973c5.48635,-7.09027 10.88909,-13.94596 15.64341,-21.55288c1.5977,-2.55632 3.56956,-4.90929 4.81909,-7.65267c3.26991,-7.17916 -1.58718,-16.35569 1.3786,-23.58829c0.64615,-1.57575 1.93178,-2.82968 2.6126,-4.39075c0.61572,-1.4118 0.38798,-3.16931 1.24321,-4.45028c0.82711,-1.23885 2.34675,-1.83588 3.54473,-2.72116c3.6842,-2.72254 6.99354,-4.86008 10.29002,-8.04736c3.35835,-0.9077 8.5049,-1.64411 11.66939,-3.0973c3.09676,-1.42209 5.6324,-3.99826 8.85264,-5.11285c1.59647,-0.55257 3.33822,-0.5577 4.96818,-1.00184c3.13708,-0.85481 6.16207,-2.65556 9.16101,-3.94077c5.76475,-2.47051 11.61105,-5.61803 17.95344,-6.14449c3.86174,-0.32055 7.74363,0.14357 11.46248,1.20246c0.47792,-0.26553 1.11806,-0.38045 1.95517,-0.10141c0.84949,0.28316 1.29329,0.76917 1.51303,1.27638c3.29813,1.29773 6.41064,3.04493 9.1964,5.09532c0,0 2,1.5 0.5,3.5c-1.5,2 -3.5,0.5 -3.5,0.5c-1.19148,-0.91422 -2.22911,-2.07518 -3.57443,-2.74266c-1.04938,-0.52065 -2.30017,-0.46762 -3.42608,-0.79091z" fill="#ffffff" stroke="none" stroke-width="0.5" stroke-linecap="butt"/><path d="M152.9526,-13.15384c-0.13369,0.5557 -0.23606,1.11265 -0.19759,1.67471c0.30293,4.42643 4.17644,7.46962 4.9384,11.59183c0.33785,1.8278 0.05418,3.71717 0.06724,5.5759c0.05754,8.19565 -0.69472,16.6846 -3.59251,24.47303c-2.16774,5.82625 -5.96999,11.51094 -8.89236,17.00658c-5.38355,5.4416 -10.64095,11.52376 -16.46322,16.49302c-3.43642,2.93295 -7.47665,5.16459 -11.0031,7.98982c-0.21257,0.1703 -7.01549,6.05553 -7.35014,6.23145c-4.29777,2.2592 -9.83016,2.60737 -14.39523,4.17348c-7.94544,2.72579 -15.30127,7.56535 -23.43702,9.76023c-1.43354,0.38674 -6.32403,0.91556 -8.32976,1.14733c-10.42244,9.35354 -22.68707,16.09645 -32.26964,26.49067c-13.21838,14.33799 -24.54156,30.19091 -39.18615,43.17111c-2.19644,1.64442 -3.89307,4.01555 -6.34911,5.23878c-2.04319,1.0176 -7.80046,1.80447 -9.93212,2.01914c-7.24103,0.72921 -15.18126,0.70344 -22.43787,0.30154c-0.00162,-0.00009 -9.32497,-1.00629 -9.6613,-1.12748c-0.53511,-0.19282 -8.21558,-4.89841 -8.98927,-5.32814c-3.62663,-2.01432 -7.44451,-4.09533 -11.24663,-5.76507c-0.59034,-0.25925 -9.05016,-3.58287 -9.4272,-3.78427c-2.70049,-1.44249 -4.75421,-3.99364 -7.56322,-5.2114c-1.39394,-0.6043 -2.95412,-0.71143 -4.43118,-1.06715c-8.99204,-2.28858 -17.55008,-7.87687 -26.14655,-11.49285c-8.66406,-3.64441 -18.37604,-5.94786 -26.6056,-10.53171c-2.48063,-1.38171 -4.36321,-3.73614 -6.92525,-4.96033c-1.60098,-0.76498 -3.57319,-0.73306 -5.02714,-1.75009c-2.35498,-1.64729 -3.32566,-4.76624 -5.51731,-6.62532c-1.33534,-1.13271 -3.18101,-1.64581 -4.34224,-2.95642c-2.69814,-3.04524 -4.43555,-8.34165 -6.31655,-12.00985c-1.67676,-6.59892 -3.44149,-12.88541 -3.09151,-19.8044c0.60512,-11.96311 5.99196,-23.49532 11.38245,-33.94064c3.68705,-7.14452 6.88477,-14.0159 13.02849,-19.48281c6.14705,-5.46986 13.96879,-9.7878 20.71786,-14.50673c6.83074,-4.77604 13.84244,-8.29303 21.08816,-12.33796c7.28327,-4.06589 14.17143,-8.92491 21.5866,-12.75489c1.89938,-0.98104 7.1732,-3.13105 9.13033,-4.12373c12.50034,-6.34031 24.38246,-12.48802 37.83842,-16.71989c3.09865,-0.90473 6.10311,-2.26471 9.30301,-2.68989c2.64579,-0.35155 5.38082,0.47471 8.00712,-0.00101c1.6123,-0.29205 3.10924,-1.08002 4.72361,-1.36038c2.44357,-0.42436 6.6969,-0.28729 9.29232,-0.6418c4.73949,-0.64737 8.4658,-2.85957 13.26646,-3.02116c8.99882,-0.3029 18.05924,-0.00083 27.06436,-0.00083c3.777,0 7.96492,0.56322 11.69454,0.01873c2.80941,-0.41015 5.54549,-1.23973 8.35062,-1.67816c1.40539,-0.88289 2.70176,-1.96957 4.21618,-2.64866c0.91204,-0.40897 2.00756,-0.21679 2.94533,-0.5627c3.39904,-1.25378 6.6766,-3.61994 10.39287,-4.09693c6.37,-0.81761 11.94285,0.69726 17.92452,2.61054c6.34777,2.03038 13.02728,3.68291 19.21417,6.15504c4.53378,1.81159 8.69658,4.54102 13.21418,6.39066c7.6188,3.11937 15.71499,5.39731 23.50246,8.07425c3.02437,1.03963 6.20432,2.33645 9.42693,3.532c0.1512,-0.29857 0.2567,-0.58423 0.0901,-0.83301c-0.32733,-0.48877 -1.17498,-0.06004 -1.76246,-0.09007c0,0 -2.37171,-0.79057 -1.58114,-3.16228c0.79057,-2.37171 3.16228,-1.58114 3.16228,-1.58114c1.41251,0.63664 3.28763,0.68593 4.23754,1.90993c0.84901,1.09399 0.18216,2.77126 0.44977,4.12994c0.05585,0.28353 0.17578,0.74723 0.33524,1.32381c2.20493,0.68124 4.40304,1.23095 6.55862,1.53582c1.5986,0.22609 8.10755,-0.72119 8.83245,1.29256c1.87288,5.20284 -5.06109,7.31887 -7.6298,8.61277l-4.57438,0.06688c0,0 -0.66431,0 -1.30804,-0.34244zM152.69558,-18.68525c0.11811,0.42136 0.22742,0.82029 0.32273,1.18253c0.62243,-0.30868 1.24234,-0.30868 1.24234,-0.30868l3.30783,0.06458c-0.22785,-0.02877 -0.4546,-0.06019 -0.67957,-0.09237c-1.38705,-0.1984 -2.78727,-0.48905 -4.19332,-0.84606z" fill="#ffffff" stroke="none" stroke-width="0.5" stroke-linecap="butt"/><path d="M-83.88878,636.1886c1.76464,0 2.2837,1.24558 2.43638,1.97835c6.04633,-0.10927 12.12833,-0.64608 18.05123,-1.92527c6.07131,-1.31125 11.90858,-3.78447 18,-5c4.55,-0.90795 9.4243,-0.83197 13.9167,-1.98106c8.852,-2.26423 17.60565,-6.21056 26.29196,-9.10599c5.22418,-1.70919 9.281,-5.65809 14.30775,-7.75905c0.14454,-0.06041 9.8347,-2.97847 10.04768,-3.02436c2.66842,-0.57494 5.58982,-0.02381 8.12237,-1.04223c1.53747,-0.61827 2.73722,-1.909 4.25997,-2.56268c0.82328,-0.35341 1.8317,-0.05758 2.65688,-0.40655c1.16507,-0.49272 1.95177,-1.78063 3.18462,-2.06387c5.47188,-1.25716 10.73563,1.46849 15.91302,2.70878c10.80541,2.58855 21.66465,4.90642 32.51773,7.28579c8.74045,3.26509 17.9063,6.16021 26.34751,10.13111c6.85014,3.22243 13.33937,7.41942 19.77303,11.37888c5.26257,3.23873 11.11273,5.93171 15.81118,9.99954c3.88577,3.36423 5.51505,7.61468 8.0133,11.9895c1.91835,3.35933 4.21853,6.41551 6.46194,9.56339c0.17612,0.31644 4.95908,8.89486 5.06044,9.13905c0.53704,1.2939 0.40966,2.82526 1.05688,4.06771c1.49001,2.86032 3.84837,5.17943 5.64906,7.85507c1.78884,2.65803 3.88778,5.10012 6.00201,7.50742c0.82432,0.93858 2.04248,1.6593 2.44155,2.84301c1.37273,4.07174 -0.38206,9.38252 0.15808,13.61802c0.35285,2.76683 1.01244,5.51623 1.01873,8.30546c0.00472,2.09215 -0.80923,4.30466 -0.10727,6.27554c0.35946,1.00925 1.36891,1.67036 1.85306,2.62608c1.64438,3.24606 2.95519,6.60605 4.88084,9.78405c0.73333,1.21025 1.93175,2.21484 2.2661,3.58987c0.47821,1.96662 0.0554,4.04748 0.08311,6.07121c-1.2537,4.38641 -1.40553,6.86203 -4.65533,10.36665c-0.68361,0.73721 -5.93512,4.18612 -7.27896,5.25475c-0.22458,0.17859 -7.00042,6.04572 -7.34289,6.22575c-6.03223,3.17095 -13.51668,2.43273 -19.60915,4.98472c-2.82614,1.1838 -4.78125,3.99607 -7.62811,5.12912c-1.58178,0.62955 -8.19713,1.47822 -10.03191,2.04283c-5.76905,1.7753 -11.03197,5.02179 -17.11589,5.99199c-4.82236,0.76902 -10.27426,0.52204 -15.17477,0.89072c-19.04045,1.423 -38.11232,0.15887 -56.82692,-3.39522c-6.5048,-1.23533 -13.58375,-2.20882 -19.87139,-4.30217c-7.83103,-2.60719 -15.47283,-6.9407 -22.98882,-10.35772c-3.81274,-1.55849 -8.81343,-2.75392 -12.25497,-5.04476c-0.74585,-0.49647 -6.14694,-5.29473 -7.26106,-6.18333c-3.89444,-3.10609 -7.98451,-5.98572 -11.91729,-9.04643c-4.2106,-3.27692 -7.74561,-6.57644 -11.18325,-10.66536c-0.87312,-1.03854 -2.03425,-1.90475 -2.58357,-3.14538c-0.69993,-1.58077 -0.42773,-3.46739 -1.05735,-5.07746c-1.69831,-4.34299 -5.68715,-7.9116 -7.71736,-12.08527c-0.74881,-1.53939 -0.94295,-3.29956 -1.60379,-4.87872c-2.01841,-4.82327 -5.92062,-8.6092 -7.35983,-13.53401c-1,-0.66667 -2.25546,-1.05654 -3,-2c-1.58385,-2.00702 -1.90644,-4.91062 -3.73127,-6.70135c-0.97238,-0.95421 -2.56176,-1.24785 -3.3255,-2.37601c-0.81435,-1.20293 -0.41166,-2.94688 -1.13196,-4.20837c-0.6572,-1.15098 -2.0819,-1.69169 -2.85261,-2.76997c-3.44843,-4.82466 -4.99199,-10.18208 -7.28159,-15.50507c-1.23571,-2.87284 -2.29351,-5.82077 -3.55492,-8.68243c-0.71147,-1.61406 -2.01708,-2.95477 -2.55239,-4.6355c-0.3682,-1.15602 -0.06981,-2.42561 -0.08299,-3.63878c-0.0362,-3.33202 0,-6.66765 0,-10v0c0,-2.5 2.5,-2.5 2.5,-2.5c0.81117,0 1.62345,-0.00696 2.43638,-0.02165c0.06362,0.30535 0.06362,0.52165 0.06362,0.52165v2c0,0.82568 0.00267,1.65164 0.00602,2.47775c-0.83618,0.01507 -1.67167,0.02225 -2.50602,0.02225c0,0 -2.5,0 -2.5,-2.5v0v-2c0,0 0,-2.5 2.5,-2.5z" fill="#ffffff" stroke="none" stroke-width="0.5" stroke-linecap="butt"/><path d="M42.65614,227.50987v-73.57358h55.55556v73.57358z" fill="#008fff" stroke="#000000" stroke-width="5" stroke-linecap="butt"/><path d="M95.47536,171.12489c0,2.5 -2.5,2.5 -2.5,2.5c-7.66667,0 -17.33333,0 -25,0c-3.10156,0 -7.46446,-0.83776 -10.42562,-0.06687c-1.44263,0.37556 -2.56516,1.59571 -4,2c-2.25818,0.63628 -4.6948,0.41206 -6.96804,0.99223c0,0 -2.42536,0.60634 -3.0317,-1.81901c-0.60634,-2.42536 1.81901,-3.0317 1.81901,-3.0317c1.43363,-0.35197 2.83962,-0.8465 4.30089,-1.05591c0.90129,-0.12917 1.8566,0.30173 2.73107,0.04815c1.43173,-0.41517 2.55079,-1.65067 4,-2c3.38824,-0.81674 8.04988,-0.06688 11.57438,-0.06688c7.66667,0 15.33333,0 23,0h2c0,0 2.5,0 2.5,2.5z" fill="#ff0000" stroke="none" stroke-width="0.5" stroke-linecap="butt"/><path d="M98.47536,199.12489c0,2.5 -2.5,2.5 -2.5,2.5h-1c-2.71321,0 -8.11646,0.80341 -10.71379,-0.10406c-2.95406,-1.03211 -4.93414,-4.16511 -7.95354,-4.98664c-1.77421,-0.48274 -3.82683,0.52973 -5.51232,-0.20511c-1.21522,-0.52982 -1.34521,-2.33869 -2.33784,-3.21742c-0.4875,-0.43156 -1.23571,-0.44876 -1.88297,-0.51905c-0.99232,-0.10776 -6.08378,-0.60619 -6.83177,0.30005c-0.74523,0.9029 -0.28082,2.69498 -1.30599,3.26033c-1.06382,0.58667 -7.81259,0.47189 -9.46177,0.47189c0,0 -2.5,0 -2.5,-2.5c0,-2.5 2.5,-2.5 2.5,-2.5c1.33333,0 2.67012,-0.09598 4,0c0.85834,0.06195 1.83375,0.96616 2.53822,0.4719c0.77119,-0.54107 -0.0142,-2.11844 0.69401,-2.73966c2.39276,-2.09884 8.1668,-2.30412 11.16822,-1.69995c1.42975,0.2878 2.94342,0.61514 4.11703,1.48095c0.86942,0.6414 0.66573,2.36497 1.66216,2.78258c1.38106,0.57882 3.04634,-0.61117 4.48769,-0.2051c3.04174,0.85695 5.09234,3.89097 8.04646,5.01335c0.71312,0.27094 1.52349,-0.08905 2.2862,-0.10407c2.33288,-0.04592 4.66667,0 7,0h1c0,0 2.5,0 2.5,2.5z" fill="#ffde00" stroke="none" stroke-width="0.5" stroke-linecap="butt"/><path d="M95.47536,213.12489c0,2.5 -2.5,2.5 -2.5,2.5h-2c-4.58682,0 -10.39766,0.84789 -14.8706,-0.19624c-1.92658,-0.44973 -3.78035,-1.24849 -5.50563,-2.21666c-2.4428,-1.3708 -2.86114,-3.2929 -6.21545,-2.62068c-3.18371,0.63805 -7.44908,2.15469 -10.24806,3.74802c-1.56169,0.88899 -2.70275,2.4861 -4.3697,3.15726c-1.17276,0.47218 -2.52704,0.08552 -3.79057,0.12829c0,0 -2.5,0 -2.5,-2.5c0,-2.5 2.5,-2.5 2.5,-2.5c0.73647,0.04277 1.54045,0.43925 2.20943,0.1283c1.39375,-0.64785 2.29712,-2.07797 3.6303,-2.84274c3.08704,-1.77087 8.23565,-3.66817 11.75195,-4.25198c2.57772,-0.42798 5.44299,0.05015 7.72265,1.3398c1.98108,1.12073 3.61221,3.07517 5.84103,3.53678c4.23909,0.87795 9.52714,0.08985 13.84464,0.08985h2c0,0 2.5,0 2.5,2.5z" fill="#00ff45" stroke="none" stroke-width="0.5" stroke-linecap="butt"/><path d="M107.47536,191.12489c0,2.5 -2.5,2.5 -2.5,2.5l-2.79057,-0.12829c-1.97499,-0.68408 -4.11941,-0.89046 -6.20943,-0.87171c-2.33333,0 -4.67476,0.19419 -7,0c-1.60231,-0.13381 -3.63081,0.40472 -4.76776,-0.73223c-1.13695,-1.13695 -0.59842,-3.16546 -0.73224,-4.76777c-0.29253,-3.50282 -0.11066,-7.48592 0,-11c0.02828,-0.89792 0.5019,-2.62544 -0.39556,-2.66591c-2.76869,-0.12483 -5.64321,-0.22479 -8.29395,0.58439c-1.56785,0.47861 -2.69091,1.96344 -4.24659,2.48021c-1.67822,0.55748 -3.52868,0.32597 -5.26162,0.67828c-1.68198,0.34195 -3.25887,1.13932 -4.95553,1.39887c-2.18222,0.33383 -4.54438,-0.82861 -6.6223,-0.08311c-1.13124,0.40587 -1.85314,1.6406 -3,2c-1.18517,0.3714 -2.48297,0.07152 -3.72446,0.10727c0,0 -2.5,0 -2.5,-2.5c0,-2.5 2.5,-2.5 2.5,-2.5c0.75851,0.03575 1.56079,0.36371 2.27554,0.10727c1.13124,-0.40587 1.85314,-1.6406 3,-2c1.19063,-0.37312 6.16042,0.1108 7.37771,-0.0831c1.59683,-0.25436 3.07424,-1.03082 4.65971,-1.34834c1.5346,-0.30733 3.18291,-0.0207 4.6664,-0.51941c1.60577,-0.53982 2.78019,-2.05908 4.40724,-2.53089c0.69803,-0.20242 10.99248,-0.64085 11.50896,-0.45961c5.50074,1.93035 3.60444,10.0407 3.60444,14.33409c0,1.33334 0.1848,2.67953 0,4c-0.06622,0.47318 -1.07008,0.89438 -0.73223,1.23224c0.33785,0.33785 0.75905,-0.66602 1.23223,-0.73224c2.31081,-0.32339 4.66667,0 7,0c2.62388,0.01925 5.29386,0.32111 7.79057,1.1283l1.20943,-0.1283c0,0 2.5,0 2.5,2.5z" fill="#00e7ff" stroke="none" stroke-width="0.5" stroke-linecap="butt"/><path d="M32.65614,580.50987v-73.57357h55.55556v73.57357z" fill="#008fff" stroke="#000000" stroke-width="5" stroke-linecap="butt"/><path d="M85.47536,524.12489c0,2.5 -2.5,2.5 -2.5,2.5c-7.66667,0 -17.33333,0 -25,0c-3.10156,0 -7.46446,-0.83776 -10.42562,-0.06687c-1.44263,0.37556 -2.56516,1.59571 -4,2c-2.25818,0.63628 -4.6948,0.41206 -6.96804,0.99223c0,0 -2.42536,0.60634 -3.0317,-1.81901c-0.60634,-2.42535 1.81901,-3.0317 1.81901,-3.0317c1.43363,-0.35197 2.83962,-0.8465 4.30089,-1.05592c0.90129,-0.12916 1.8566,0.30173 2.73107,0.04815c1.43173,-0.41517 2.55079,-1.65067 4,-2c3.38824,-0.81675 8.04988,-0.06688 11.57438,-0.06688c7.66667,0 15.33333,0 23,0h2c0,0 2.5,0 2.5,2.5z" fill="#ff0000" stroke="none" stroke-width="0.5" stroke-linecap="butt"/><path d="M88.47536,552.12489c0,2.5 -2.5,2.5 -2.5,2.5h-1c-2.71321,0 -8.11646,0.80341 -10.71379,-0.10406c-2.95406,-1.03211 -4.93414,-4.16512 -7.95354,-4.98664c-1.77421,-0.48274 -3.82683,0.52973 -5.51232,-0.20511c-1.21522,-0.52982 -1.34521,-2.33869 -2.33784,-3.21742c-0.4875,-0.43155 -1.23571,-0.44876 -1.88297,-0.51905c-0.99232,-0.10776 -6.08378,-0.6062 -6.83177,0.30005c-0.74523,0.9029 -0.28082,2.69498 -1.30599,3.26034c-1.06382,0.58666 -7.81259,0.47189 -9.46177,0.47189c0,0 -2.5,0 -2.5,-2.5c0,-2.5 2.5,-2.5 2.5,-2.5c1.33333,0 2.67012,-0.09598 4,0c0.85834,0.06195 1.83375,0.96616 2.53822,0.4719c0.77119,-0.54107 -0.0142,-2.11843 0.69401,-2.73966c2.39276,-2.09884 8.1668,-2.30412 11.16822,-1.69995c1.42975,0.2878 2.94342,0.61514 4.11703,1.48095c0.86942,0.6414 0.66573,2.36497 1.66216,2.78258c1.38106,0.57882 3.04634,-0.61117 4.48769,-0.2051c3.04174,0.85695 5.09234,3.89098 8.04646,5.01335c0.71312,0.27094 1.52349,-0.08905 2.2862,-0.10406c2.33288,-0.04592 4.66667,0 7,0h1c0,0 2.5,0 2.5,2.5z" fill="#ffde00" stroke="none" stroke-width="0.5" stroke-linecap="butt"/><path d="M85.47536,566.12489c0,2.5 -2.5,2.5 -2.5,2.5h-2c-4.58682,0 -10.39766,0.84789 -14.8706,-0.19624c-1.92658,-0.44972 -3.78035,-1.24849 -5.50563,-2.21665c-2.4428,-1.37081 -2.86114,-3.29291 -6.21545,-2.62068c-3.18371,0.63805 -7.44908,2.15469 -10.24806,3.74802c-1.56169,0.889 -2.70275,2.4861 -4.3697,3.15726c-1.17276,0.47218 -2.52704,0.08552 -3.79057,0.12829c0,0 -2.5,0 -2.5,-2.5c0,-2.5 2.5,-2.5 2.5,-2.5c0.73647,0.04277 1.54045,0.43925 2.20943,0.12829c1.39375,-0.64785 2.29712,-2.07796 3.6303,-2.84274c3.08704,-1.77087 8.23565,-3.66817 11.75195,-4.25198c2.57772,-0.42798 5.44299,0.05016 7.72265,1.33981c1.98108,1.12073 3.61221,3.07517 5.84103,3.53677c4.23909,0.87795 9.52714,0.08985 13.84464,0.08985h2c0,0 2.5,0 2.5,2.5z" fill="#00ff45" stroke="none" stroke-width="0.5" stroke-linecap="butt"/><path d="M97.47536,544.12489c0,2.5 -2.5,2.5 -2.5,2.5l-2.79057,-0.12829c-1.97499,-0.68408 -4.11941,-0.89045 -6.20943,-0.87171c-2.33333,0 -4.67476,0.19419 -7,0c-1.60231,-0.13382 -3.63081,0.40472 -4.76776,-0.73223c-1.13695,-1.13695 -0.59842,-3.16546 -0.73224,-4.76777c-0.29253,-3.50282 -0.11066,-7.48591 0,-11c0.02828,-0.89792 0.5019,-2.62545 -0.39556,-2.66591c-2.76869,-0.12483 -5.64321,-0.22479 -8.29395,0.58439c-1.56785,0.47861 -2.69091,1.96344 -4.24659,2.48021c-1.67822,0.55748 -3.52868,0.32597 -5.26162,0.67828c-1.68198,0.34195 -3.25887,1.13932 -4.95553,1.39887c-2.18222,0.33383 -4.54438,-0.82861 -6.6223,-0.08311c-1.13124,0.40587 -1.85314,1.6406 -3,2c-1.18517,0.3714 -2.48297,0.07151 -3.72446,0.10727c0,0 -2.5,0 -2.5,-2.5c0,-2.5 2.5,-2.5 2.5,-2.5c0.75851,0.03575 1.56079,0.36371 2.27554,0.10727c1.13124,-0.40587 1.85314,-1.64061 3,-2c1.19063,-0.37312 6.16042,0.1108 7.37771,-0.08311c1.59683,-0.25436 3.07424,-1.03082 4.65971,-1.34834c1.5346,-0.30733 3.18291,-0.0207 4.6664,-0.51941c1.60577,-0.53981 2.78019,-2.05908 4.40724,-2.53089c0.69803,-0.20241 10.99248,-0.64085 11.50896,-0.45961c5.50074,1.93035 3.60444,10.0407 3.60444,14.33409c0,1.33334 0.1848,2.67953 0,4c-0.06622,0.47318 -1.07008,0.89439 -0.73223,1.23224c0.33785,0.33785 0.75905,-0.66602 1.23223,-0.73224c2.31081,-0.32339 4.66667,0 7,0c2.62388,0.01925 5.29386,0.32112 7.79057,1.1283l1.20943,-0.1283c0,0 2.5,0 2.5,2.5z" fill="#00e7ff" stroke="none" stroke-width="0.5" stroke-linecap="butt"/><path d="M350.65615,92.50987v-73.57358h55.55556v73.57358z" fill="#008fff" stroke="#000000" stroke-width="5" stroke-linecap="butt"/><path d="M403.47536,36.12489c0,2.5 -2.5,2.5 -2.5,2.5c-7.66667,0 -17.33333,0 -25,0c-3.10156,0 -7.46446,-0.83776 -10.42562,-0.06687c-1.44263,0.37556 -2.56516,1.59571 -4,2c-2.25818,0.63628 -4.6948,0.41205 -6.96804,0.99223c0,0 -2.42536,0.60634 -3.0317,-1.81901c-0.60634,-2.42535 1.81901,-3.0317 1.81901,-3.0317c1.43363,-0.35197 2.83962,-0.8465 4.30089,-1.05591c0.90129,-0.12917 1.8566,0.30173 2.73107,0.04815c1.43173,-0.41517 2.55079,-1.65067 4,-2c3.38824,-0.81674 8.04988,-0.06688 11.57438,-0.06688c7.66667,0 15.33333,0 23,0h2c0,0 2.5,0 2.5,2.5z" fill="#ff0000" stroke="none" stroke-width="0.5" stroke-linecap="butt"/><path d="M406.47536,64.12489c0,2.5 -2.5,2.5 -2.5,2.5h-1c-2.71321,0 -8.11646,0.80341 -10.71379,-0.10406c-2.95406,-1.03211 -4.93414,-4.16511 -7.95354,-4.98664c-1.77421,-0.48274 -3.82683,0.52974 -5.51232,-0.20511c-1.21522,-0.52981 -1.34521,-2.33869 -2.33784,-3.21742c-0.4875,-0.43156 -1.23571,-0.44876 -1.88297,-0.51905c-0.99232,-0.10776 -6.08378,-0.60619 -6.83177,0.30005c-0.74523,0.9029 -0.28082,2.69498 -1.30599,3.26033c-1.06382,0.58666 -7.81259,0.47189 -9.46177,0.47189c0,0 -2.5,0 -2.5,-2.5c0,-2.5 2.5,-2.5 2.5,-2.5c1.33333,0 2.67012,-0.09598 4,0c0.85834,0.06195 1.83375,0.96616 2.53822,0.4719c0.77119,-0.54107 -0.0142,-2.11844 0.69401,-2.73966c2.39276,-2.09884 8.1668,-2.30412 11.16822,-1.69996c1.42975,0.2878 2.94342,0.61514 4.11703,1.48096c0.86942,0.6414 0.66573,2.36496 1.66216,2.78258c1.38106,0.57882 3.04634,-0.61117 4.48769,-0.2051c3.04174,0.85695 5.09234,3.89097 8.04646,5.01335c0.71312,0.27094 1.52349,-0.08905 2.2862,-0.10407c2.33288,-0.04592 4.66667,0 7,0h1c0,0 2.5,0 2.5,2.5z" fill="#ffde00" stroke="none" stroke-width="0.5" stroke-linecap="butt"/><path d="M403.47536,78.12489c0,2.5 -2.5,2.5 -2.5,2.5h-2c-4.58682,0 -10.39766,0.84789 -14.8706,-0.19624c-1.92658,-0.44973 -3.78035,-1.2485 -5.50563,-2.21666c-2.4428,-1.37081 -2.86114,-3.29291 -6.21545,-2.62068c-3.18371,0.63805 -7.44908,2.15469 -10.24806,3.74802c-1.56169,0.88899 -2.70275,2.4861 -4.3697,3.15726c-1.17276,0.47218 -2.52704,0.08552 -3.79057,0.12829c0,0 -2.5,0 -2.5,-2.5c0,-2.5 2.5,-2.5 2.5,-2.5c0.73647,0.04277 1.54045,0.43925 2.20943,0.1283c1.39375,-0.64785 2.29712,-2.07797 3.6303,-2.84274c3.08704,-1.77087 8.23565,-3.66817 11.75195,-4.25198c2.57772,-0.42798 5.44299,0.05016 7.72265,1.3398c1.98108,1.12073 3.61221,3.07517 5.84103,3.53677c4.23909,0.87795 9.52714,0.08985 13.84464,0.08985h2c0,0 2.5,0 2.5,2.5z" fill="#00ff45" stroke="none" stroke-width="0.5" stroke-linecap="butt"/><path d="M415.47536,56.12489c0,2.5 -2.5,2.5 -2.5,2.5l-2.79057,-0.12829c-1.97499,-0.68408 -4.11941,-0.89046 -6.20943,-0.87171c-2.33333,0 -4.67476,0.19419 -7,0c-1.60231,-0.13381 -3.63081,0.40472 -4.76776,-0.73223c-1.13695,-1.13695 -0.59842,-3.16546 -0.73224,-4.76777c-0.29253,-3.50282 -0.11066,-7.48592 0,-11c0.02828,-0.89792 0.5019,-2.62544 -0.39556,-2.66591c-2.76869,-0.12483 -5.64321,-0.22479 -8.29395,0.58439c-1.56785,0.47861 -2.69091,1.96344 -4.24659,2.48021c-1.67822,0.55748 -3.52868,0.32597 -5.26162,0.67828c-1.68198,0.34195 -3.25887,1.13932 -4.95553,1.39887c-2.18222,0.33383 -4.54438,-0.82861 -6.6223,-0.08311c-1.13124,0.40587 -1.85314,1.6406 -3,2c-1.18517,0.3714 -2.48297,0.07152 -3.72446,0.10727c0,0 -2.5,0 -2.5,-2.5c0,-2.5 2.5,-2.5 2.5,-2.5c0.75851,0.03575 1.56079,0.36371 2.27554,0.10727c1.13124,-0.40587 1.85314,-1.6406 3,-2c1.19063,-0.37312 6.16042,0.1108 7.37771,-0.0831c1.59683,-0.25436 3.07424,-1.03082 4.65971,-1.34834c1.5346,-0.30733 3.18291,-0.0207 4.6664,-0.51941c1.60577,-0.53982 2.78019,-2.05908 4.40724,-2.53089c0.69803,-0.20242 10.99248,-0.64085 11.50896,-0.45961c5.50074,1.93035 3.60444,10.0407 3.60444,14.33409c0,1.33334 0.1848,2.67954 0,4c-0.06622,0.47318 -1.07008,0.89438 -0.73223,1.23224c0.33785,0.33785 0.75905,-0.66602 1.23223,-0.73224c2.31081,-0.32339 4.66667,0 7,0c2.62388,0.01925 5.29386,0.32112 7.79057,1.1283l1.20943,-0.1283c0,0 2.5,0 2.5,2.5z" fill="#00e7ff" stroke="none" stroke-width="0.5" stroke-linecap="butt"/><path d="M1300.65614,194.50987v-73.57358h55.55555v73.57358z" fill="#008fff" stroke="#000000" stroke-width="5" stroke-linecap="butt"/><path d="M1353.47536,138.12489c0,2.5 -2.5,2.5 -2.5,2.5c-7.66666,0 -17.33333,0 -25,0c-3.10156,0 -7.46446,-0.83776 -10.42562,-0.06687c-1.44263,0.37556 -2.56516,1.59571 -4,2c-2.25818,0.63628 -4.6948,0.41205 -6.96804,0.99223c0,0 -2.42536,0.60634 -3.03169,-1.81901c-0.60634,-2.42535 1.81901,-3.0317 1.81901,-3.0317c1.43363,-0.35197 2.83962,-0.8465 4.30089,-1.05591c0.90129,-0.12917 1.8566,0.30173 2.73107,0.04815c1.43173,-0.41517 2.5508,-1.65067 4,-2c3.38824,-0.81674 8.04988,-0.06688 11.57438,-0.06688c7.66667,0 15.33334,0 23,0h2c0,0 2.5,0 2.5,2.5z" fill="#ff0000" stroke="none" stroke-width="0.5" stroke-linecap="butt"/><path d="M1356.47536,166.12489c0,2.5 -2.5,2.5 -2.5,2.5h-1c-2.71321,0 -8.11646,0.8034 -10.71379,-0.10406c-2.95406,-1.03211 -4.93413,-4.16512 -7.95354,-4.98664c-1.77421,-0.48274 -3.82683,0.52973 -5.51232,-0.20511c-1.21522,-0.52982 -1.34521,-2.33869 -2.33784,-3.21742c-0.4875,-0.43156 -1.23571,-0.44876 -1.88297,-0.51905c-0.99232,-0.10776 -6.08378,-0.60619 -6.83177,0.30005c-0.74524,0.9029 -0.28083,2.69498 -1.30599,3.26033c-1.06382,0.58667 -7.81259,0.47189 -9.46178,0.47189c0,0 -2.5,0 -2.5,-2.5c0,-2.5 2.5,-2.5 2.5,-2.5c1.33334,0 2.67013,-0.09598 4,0c0.85834,0.06195 1.83375,0.96616 2.53823,0.4719c0.77119,-0.54107 -0.0142,-2.11844 0.69401,-2.73966c2.39276,-2.09884 8.1668,-2.30412 11.16822,-1.69995c1.42975,0.2878 2.94342,0.61514 4.11703,1.48095c0.86941,0.6414 0.66573,2.36497 1.66216,2.78258c1.38107,0.57882 3.04634,-0.61117 4.48769,-0.2051c3.04174,0.85695 5.09234,3.89097 8.04646,5.01335c0.71313,0.27094 1.52349,-0.08905 2.2862,-0.10407c2.33288,-0.04592 4.66667,0 7,0h1c0,0 2.5,0 2.5,2.5z" fill="#ffde00" stroke="none" stroke-width="0.5" stroke-linecap="butt"/><path d="M1353.47536,180.12489c0,2.5 -2.5,2.5 -2.5,2.5h-2c-4.58682,0 -10.39765,0.84789 -14.87059,-0.19624c-1.92657,-0.44973 -3.78035,-1.24849 -5.50563,-2.21666c-2.4428,-1.3708 -2.86114,-3.2929 -6.21545,-2.62068c-3.18371,0.63805 -7.44907,2.15469 -10.24806,3.74802c-1.56168,0.889 -2.70275,2.4861 -4.3697,3.15726c-1.17276,0.47219 -2.52705,0.08553 -3.79057,0.12829c0,0 -2.5,0 -2.5,-2.5c0,-2.5 2.5,-2.5 2.5,-2.5c0.73648,0.04277 1.54045,0.43925 2.20943,0.1283c1.39375,-0.64785 2.29712,-2.07797 3.6303,-2.84274c3.08704,-1.77087 8.23565,-3.66817 11.75194,-4.25198c2.57772,-0.42798 5.443,0.05015 7.72265,1.3398c1.98108,1.12074 3.61221,3.07517 5.84103,3.53678c4.23909,0.87795 9.52714,0.08985 13.84463,0.08985h2c0,0 2.5,0 2.5,2.5z" fill="#00ff45" stroke="none" stroke-width="0.5" stroke-linecap="butt"/><path d="M1365.47536,158.12489c0,2.5 -2.5,2.5 -2.5,2.5l-2.79057,-0.12829c-1.97499,-0.68408 -4.11941,-0.89046 -6.20943,-0.87171c-2.33333,0 -4.67476,0.19419 -7,0c-1.60231,-0.13381 -3.63081,0.40472 -4.76776,-0.73223c-1.13695,-1.13695 -0.59842,-3.16546 -0.73224,-4.76777c-0.29253,-3.50282 -0.11065,-7.48592 0,-11c0.02828,-0.89792 0.5019,-2.62544 -0.39555,-2.66591c-2.76869,-0.12483 -5.64321,-0.22479 -8.29395,0.58439c-1.56785,0.47861 -2.69091,1.96344 -4.24659,2.48021c-1.67821,0.55748 -3.52868,0.32597 -5.26162,0.67828c-1.68198,0.34195 -3.25887,1.13932 -4.95553,1.39887c-2.18222,0.33383 -4.54437,-0.82861 -6.62229,-0.08311c-1.13125,0.40587 -1.85315,1.6406 -3,2c-1.18517,0.3714 -2.48298,0.07152 -3.72446,0.10727c0,0 -2.5,0 -2.5,-2.5c0,-2.5 2.5,-2.5 2.5,-2.5c0.75851,0.03575 1.5608,0.36371 2.27554,0.10727c1.13125,-0.40587 1.85315,-1.6406 3,-2c1.19063,-0.37312 6.16042,0.1108 7.37771,-0.0831c1.59683,-0.25436 3.07424,-1.03082 4.65971,-1.34834c1.5346,-0.30733 3.1829,-0.0207 4.66639,-0.51941c1.60577,-0.53982 2.78019,-2.05908 4.40724,-2.53089c0.69803,-0.20242 10.99248,-0.64085 11.50896,-0.45961c5.50074,1.93035 3.60444,10.0407 3.60444,14.33409c0,1.33334 0.1848,2.67953 0,4c-0.06622,0.47318 -1.07008,0.89438 -0.73223,1.23224c0.33785,0.33785 0.75905,-0.66602 1.23223,-0.73224c2.31082,-0.32339 4.66667,0 7,0c2.62388,0.01925 5.29386,0.32111 7.79057,1.1283l1.20943,-0.1283c0,0 2.5,0 2.5,2.5z" fill="#00e7ff" stroke="none" stroke-width="0.5" stroke-linecap="butt"/><path d="M1368.65615,360.50987v-73.57357h55.55555v73.57357z" fill="#008fff" stroke="#000000" stroke-width="5" stroke-linecap="butt"/><path d="M1421.47536,304.12489c0,2.5 -2.5,2.5 -2.5,2.5c-7.66666,0 -17.33333,0 -25,0c-3.10156,0 -7.46446,-0.83776 -10.42562,-0.06687c-1.44263,0.37556 -2.56516,1.59571 -4,2c-2.25818,0.63628 -4.6948,0.41206 -6.96804,0.99223c0,0 -2.42536,0.60634 -3.03169,-1.81902c-0.60634,-2.42535 1.81901,-3.0317 1.81901,-3.0317c1.43363,-0.35197 2.83962,-0.8465 4.30089,-1.05591c0.90129,-0.12917 1.8566,0.30173 2.73107,0.04815c1.43173,-0.41517 2.5508,-1.65067 4,-2c3.38824,-0.81674 8.04988,-0.06688 11.57438,-0.06688c7.66667,0 15.33334,0 23,0h2c0,0 2.5,0 2.5,2.5z" fill="#ff0000" stroke="none" stroke-width="0.5" stroke-linecap="butt"/><path d="M1424.47536,332.12489c0,2.5 -2.5,2.5 -2.5,2.5h-1c-2.71321,0 -8.11646,0.80341 -10.71379,-0.10406c-2.95406,-1.03211 -4.93413,-4.16511 -7.95354,-4.98664c-1.77421,-0.48274 -3.82683,0.52973 -5.51231,-0.20511c-1.21522,-0.52981 -1.34521,-2.33869 -2.33784,-3.21742c-0.4875,-0.43156 -1.23571,-0.44876 -1.88297,-0.51905c-0.99232,-0.10776 -6.08378,-0.60619 -6.83177,0.30005c-0.74524,0.9029 -0.28083,2.69498 -1.30599,3.26033c-1.06382,0.58666 -7.81259,0.47189 -9.46178,0.47189c0,0 -2.5,0 -2.5,-2.5c0,-2.5 2.5,-2.5 2.5,-2.5c1.33334,0 2.67013,-0.09599 4,0c0.85834,0.06195 1.83375,0.96616 2.53823,0.4719c0.77119,-0.54107 -0.0142,-2.11844 0.69401,-2.73966c2.39276,-2.09884 8.1668,-2.30412 11.16822,-1.69996c1.42975,0.2878 2.94342,0.61514 4.11703,1.48095c0.86941,0.6414 0.66573,2.36497 1.66216,2.78258c1.38107,0.57882 3.04634,-0.61117 4.48769,-0.2051c3.04174,0.85695 5.09234,3.89098 8.04646,5.01335c0.71313,0.27094 1.52349,-0.08905 2.2862,-0.10407c2.33288,-0.04592 4.66667,0 7,0h1c0,0 2.5,0 2.5,2.5z" fill="#ffde00" stroke="none" stroke-width="0.5" stroke-linecap="butt"/><path d="M1421.47536,346.12489c0,2.5 -2.5,2.5 -2.5,2.5h-2c-4.58682,0 -10.39765,0.84788 -14.87059,-0.19624c-1.92657,-0.44973 -3.78035,-1.2485 -5.50563,-2.21666c-2.4428,-1.37081 -2.86114,-3.29291 -6.21545,-2.62068c-3.18371,0.63805 -7.44907,2.15469 -10.24806,3.74802c-1.56168,0.889 -2.70275,2.4861 -4.3697,3.15726c-1.17276,0.47218 -2.52705,0.08552 -3.79057,0.12829c0,0 -2.5,0 -2.5,-2.5c0,-2.5 2.5,-2.5 2.5,-2.5c0.73648,0.04276 1.54045,0.43925 2.20943,0.12829c1.39375,-0.64785 2.29712,-2.07797 3.6303,-2.84274c3.08704,-1.77087 8.23565,-3.66817 11.75194,-4.25198c2.57772,-0.42798 5.443,0.05016 7.72265,1.33981c1.98108,1.12073 3.61221,3.07517 5.84103,3.53677c4.23909,0.87795 9.52714,0.08985 13.84463,0.08985h2c0,0 2.5,0 2.5,2.5z" fill="#00ff45" stroke="none" stroke-width="0.5" stroke-linecap="butt"/><path d="M1433.47536,324.12489c0,2.5 -2.5,2.5 -2.5,2.5l-2.79057,-0.12829c-1.97499,-0.68408 -4.11941,-0.89045 -6.20943,-0.87171c-2.33333,0 -4.67476,0.19419 -7,0c-1.60231,-0.13381 -3.63081,0.40472 -4.76776,-0.73223c-1.13695,-1.13695 -0.59842,-3.16546 -0.73224,-4.76777c-0.29253,-3.50282 -0.11065,-7.48591 0,-11c0.02828,-0.89792 0.5019,-2.62544 -0.39555,-2.66591c-2.76869,-0.12484 -5.64321,-0.22479 -8.29395,0.58439c-1.56785,0.47861 -2.69091,1.96344 -4.24659,2.48021c-1.67821,0.55748 -3.52868,0.32598 -5.26162,0.67828c-1.68198,0.34195 -3.25887,1.13932 -4.95553,1.39887c-2.18222,0.33383 -4.54437,-0.82861 -6.62229,-0.08311c-1.13125,0.40587 -1.85315,1.6406 -3,2c-1.18517,0.3714 -2.48298,0.07151 -3.72446,0.10727c0,0 -2.5,0 -2.5,-2.5c0,-2.5 2.5,-2.5 2.5,-2.5c0.75851,0.03575 1.5608,0.36371 2.27554,0.10727c1.13125,-0.40587 1.85315,-1.6406 3,-2c1.19063,-0.37312 6.16042,0.1108 7.37771,-0.0831c1.59683,-0.25436 3.07424,-1.03082 4.65971,-1.34834c1.5346,-0.30733 3.1829,-0.0207 4.66639,-0.51941c1.60577,-0.53982 2.78019,-2.05908 4.40724,-2.53089c0.69803,-0.20242 10.99248,-0.64085 11.50896,-0.45961c5.50074,1.93035 3.60444,10.0407 3.60444,14.33409c0,1.33334 0.1848,2.67953 0,4c-0.06622,0.47318 -1.07008,0.89439 -0.73223,1.23224c0.33785,0.33785 0.75905,-0.66602 1.23223,-0.73224c2.31082,-0.32339 4.66667,0 7,0c2.62388,0.01925 5.29386,0.32112 7.79057,1.1283l1.20943,-0.1283c0,0 2.5,0 2.5,2.5z" fill="#00e7ff" stroke="none" stroke-width="0.5" stroke-linecap="butt"/><path d="M1417.65615,583.50987v-73.57357h55.55555v73.57357z" fill="#008fff" stroke="#000000" stroke-width="5" stroke-linecap="butt"/><path d="M1470.47536,527.12489c0,2.5 -2.5,2.5 -2.5,2.5c-7.66666,0 -17.33333,0 -25,0c-3.10156,0 -7.46446,-0.83776 -10.42561,-0.06687c-1.44263,0.37556 -2.56516,1.59571 -4,2c-2.25818,0.63628 -4.6948,0.41206 -6.96805,0.99223c0,0 -2.42535,0.60634 -3.0317,-1.81902c-0.60634,-2.42535 1.81902,-3.0317 1.81902,-3.0317c1.43363,-0.35197 2.83962,-0.8465 4.30089,-1.05592c0.90129,-0.12916 1.8566,0.30173 2.73108,0.04815c1.43173,-0.41517 2.55079,-1.65067 4,-2c3.38824,-0.81675 8.04987,-0.06688 11.57438,-0.06688c7.66667,0 15.33334,0 23,0h2c0,0 2.5,0 2.5,2.5z" fill="#ff0000" stroke="none" stroke-width="0.5" stroke-linecap="butt"/><path d="M1473.47536,555.12489c0,2.5 -2.5,2.5 -2.5,2.5h-1c-2.71321,0 -8.11646,0.8034 -10.71379,-0.10406c-2.95406,-1.03211 -4.93414,-4.16512 -7.95354,-4.98665c-1.77421,-0.48273 -3.82683,0.52973 -5.51231,-0.20511c-1.21522,-0.52981 -1.34521,-2.33869 -2.33784,-3.21741c-0.4875,-0.43156 -1.23571,-0.44876 -1.88297,-0.51905c-0.99233,-0.10776 -6.08378,-0.60619 -6.83178,0.30005c-0.74523,0.9029 -0.28082,2.69498 -1.30599,3.26034c-1.06382,0.58666 -7.81259,0.4719 -9.46177,0.4719c0,0 -2.5,0 -2.5,-2.5c0,-2.5 2.5,-2.5 2.5,-2.5c1.33333,0 2.67013,-0.09599 4,0c0.85834,0.06195 1.83375,0.96616 2.53822,0.47189c0.77119,-0.54107 -0.0142,-2.11843 0.69401,-2.73966c2.39276,-2.09884 8.1668,-2.30412 11.16822,-1.69996c1.42975,0.2878 2.94342,0.61514 4.11703,1.48095c0.86942,0.6414 0.66573,2.36497 1.66216,2.78258c1.38106,0.57882 3.04634,-0.61117 4.48769,-0.2051c3.04174,0.85695 5.09233,3.89098 8.04646,5.01335c0.71312,0.27094 1.52349,-0.08905 2.2862,-0.10406c2.33288,-0.04593 4.66667,0 7,0h1c0,0 2.5,0 2.5,2.5z" fill="#ffde00" stroke="none" stroke-width="0.5" stroke-linecap="butt"/><path d="M1470.47536,569.12489c0,2.5 -2.5,2.5 -2.5,2.5h-2c-4.58682,0 -10.39766,0.84789 -14.87059,-0.19624c-1.92658,-0.44973 -3.78035,-1.2485 -5.50563,-2.21666c-2.4428,-1.37081 -2.86114,-3.29291 -6.21545,-2.62068c-3.18371,0.63805 -7.44907,2.15469 -10.24806,3.74802c-1.56168,0.889 -2.70275,2.4861 -4.3697,3.15726c-1.17276,0.47218 -2.52705,0.08552 -3.79057,0.12829c0,0 -2.5,0 -2.5,-2.5c0,-2.5 2.5,-2.5 2.5,-2.5c0.73648,0.04276 1.54045,0.43925 2.20943,0.12829c1.39375,-0.64785 2.29713,-2.07796 3.63031,-2.84274c3.08704,-1.77087 8.23564,-3.66817 11.75194,-4.25198c2.57771,-0.42798 5.44299,0.05016 7.72265,1.33981c1.98108,1.12073 3.61221,3.07517 5.84103,3.53677c4.23909,0.87795 9.52713,0.08985 13.84463,0.08985h2c0,0 2.5,0 2.5,2.5z" fill="#00ff45" stroke="none" stroke-width="0.5" stroke-linecap="butt"/><path d="M1482.47536,547.12489c0,2.5 -2.5,2.5 -2.5,2.5l-2.79057,-0.12829c-1.97499,-0.68408 -4.11941,-0.89045 -6.20943,-0.87171c-2.33333,0 -4.67476,0.19419 -7,0c-1.60231,-0.13382 -3.63081,0.40472 -4.76777,-0.73223c-1.13695,-1.13695 -0.59842,-3.16546 -0.73223,-4.76777c-0.29254,-3.50282 -0.11065,-7.48591 0,-11c0.02828,-0.89792 0.5019,-2.62545 -0.39556,-2.66591c-2.76869,-0.12483 -5.6432,-0.22479 -8.29395,0.58439c-1.56785,0.47861 -2.69091,1.96344 -4.24659,2.48021c-1.67821,0.55748 -3.52868,0.32597 -5.26163,0.67828c-1.68198,0.34195 -3.25887,1.13932 -4.95552,1.39887c-2.18222,0.33383 -4.54437,-0.82861 -6.6223,-0.08311c-1.13125,0.40587 -1.85315,1.6406 -3,2c-1.18517,0.3714 -2.48297,0.07151 -3.72446,0.10727c0,0 -2.5,0 -2.5,-2.5c0,-2.5 2.5,-2.5 2.5,-2.5c0.75851,0.03575 1.56079,0.36371 2.27554,0.10727c1.13125,-0.40587 1.85315,-1.64061 3,-2c1.19063,-0.37312 6.16042,0.1108 7.37771,-0.08311c1.59683,-0.25436 3.07424,-1.03082 4.65971,-1.34834c1.5346,-0.30733 3.1829,-0.0207 4.66639,-0.51941c1.60577,-0.53981 2.78019,-2.05908 4.40724,-2.53089c0.69803,-0.20241 10.99249,-0.64085 11.50896,-0.45961c5.50074,1.93035 3.60444,10.0407 3.60444,14.33409c0,1.33334 0.1848,2.67953 0,4c-0.06622,0.47318 -1.07008,0.89439 -0.73223,1.23224c0.33785,0.33785 0.75905,-0.66602 1.23223,-0.73224c2.31081,-0.32339 4.66667,0 7,0c2.62388,0.01925 5.29385,0.32112 7.79057,1.1283l1.20943,-0.1283c0,0 2.5,0 2.5,2.5z" fill="#00e7ff" stroke="none" stroke-width="0.5" stroke-linecap="butt"/></g></g></svg>