<svg version="1.1" xmlns="http://www.w3.org/2000/svg" xmlns:xlink="http://www.w3.org/1999/xlink" width="175.23688" height="105.22097" viewBox="0,0,175.23688,105.22097"><g transform="translate(-674.5385,-291.65167)"><g stroke="none" stroke-width="0.5" stroke-miterlimit="10"><path d="M703.08822,349.46509c1.25687,0.15028 4.51321,0.929 4.51321,4.96406c0,5 -5,5 -5,5c-0.07158,-0.00081 -1.05726,-0.01884 -2.06506,-0.02391c-0.18634,0.01572 -0.38054,0.02391 -0.58294,0.02391c-0.1943,0 -0.38105,-0.00755 -0.56054,-0.02206c-0.57901,0.00637 -1.01839,0.0233 -1.07059,0.05917c-0.99845,0.68617 -1.12056,2.3294 -2.18824,2.90193c-0.94817,0.50844 -4.99022,0.05231 -6.32974,1.27459c-0.8443,0.7704 0.10053,2.20521 0.18974,3.41604c0.23567,-0.01123 0.46065,0.03519 0.63703,0.16744c1.02104,0.76557 1.38208,2.1654 2.2659,3.08599c1.05912,1.1032 2.80679,1.58919 3.52083,2.94157c0.69366,1.31379 -0.02208,3.00999 0.37709,4.44103c0.184,0.65965 0.95216,0.99999 1.30442,1.58728c2.42982,4.05104 2.48957,5.07215 6.53353,7.35271c2.85798,-0.16049 5.69748,-0.13376 8.56055,-0.13376c1.67722,0 3.45997,0.72402 5.02989,0.13376c3.82379,-1.43768 7.49561,-4.17455 11.47465,-5.29599c2.17766,-0.61374 4.47451,-0.67512 6.7165,-0.97896c1.76506,-0.2392 3.64811,0.73203 5.34065,0.17708c1.00803,-0.33051 1.6266,-1.47877 2.648,-1.76533c1.34197,-0.37651 2.80056,0.05848 4.17867,-0.14998c0.91995,-0.13916 1.72604,-0.75754 2.648,-0.88267c3.13802,-0.42587 8.13844,-0.53712 11.31114,0c4.25027,0.71955 8.2023,2.89992 12.47672,3.80249c1.8958,1.12353 3.91987,2.05445 5.6874,3.37058c0.65938,0.49099 0.81596,1.49097 1.48435,1.96962c0.22421,0.16056 0.46053,-0.34977 0.73458,-0.3806c0.87713,-0.09869 1.76533,0 2.648,0c1.91866,0 6.37979,0.77317 8.2604,0.21454c0.65648,-0.19501 0.9891,-0.97098 1.58728,-1.30442c1.57464,-0.87774 3.15596,-1.81945 4.89153,-2.30702c0.66048,-0.18555 7.8816,-0.13376 8.21009,-0.13376c3.90839,0 8.438,-0.55744 12.27556,0.06456c2.77233,0.44935 5.02495,2.51519 7.59508,3.64752c0.40442,0.17818 0.87186,-0.16121 1.31333,-0.18143c1.53328,-0.07022 3.19162,0.87249 4.59752,0.25658c1.1108,-0.48663 1.86084,-1.55565 2.79127,-2.33348c0.64452,-0.14243 1.36236,-0.09651 1.93356,-0.4273c0.89145,-0.51625 0.69219,-3.32802 0.68296,-3.97045c-0.04221,-2.93897 -0.03529,-5.88758 0,-8.82665c0.01259,-1.04892 0.96779,-2.49451 0.1438,-3.14369c-1.88625,-1.48607 -3.85051,-3.10722 -4.93137,-5.25154c-1.6958,-3.36428 -1.39109,-6.54813 -1.39109,-10.14074c0,-1.17689 -0.18015,-2.36764 0,-3.53066c0.03359,-0.21685 0.77976,-0.17575 0.59163,-0.28871c-0.28971,-0.17395 -0.71072,0.18642 -1.01312,0.03563c-2.24234,-1.11811 -5.8814,-4.26525 -6.93086,-6.21429c-1.22679,-2.27837 -1.16143,-5.0512 -1.97635,-7.50719c-1.38753,-2.77506 -3.17286,-5.90296 -4.3665,-8.7173c-0.41127,-0.96968 -0.1352,-2.17733 -0.66109,-3.08993c-0.59236,-1.02795 -1.89434,-1.49422 -2.55025,-2.48283c-0.57862,-0.87212 -0.53909,-2.04737 -1.05831,-2.95612c-0.72981,-1.27732 -1.91935,-2.25268 -2.648,-3.53066c-1.07522,-1.88584 -1.50134,-5.24226 -3.66318,-6.52779c-0.39783,-0.23657 -0.88762,0.41082 -1.34549,0.34314c-1.68295,-0.24877 -3.36387,-0.6385 -4.94251,-1.27263c-1.04309,-0.41901 -1.84157,-1.29642 -2.82198,-1.84633c-1.71464,-0.96172 -2.53466,-0.08304 -4.78281,-0.4388c-2.5305,-0.40045 -4.73464,-1.99805 -7.20595,-2.67365c-4.50617,-1.23189 -12.25076,0.95649 -16.16218,1.82569c-3.26946,-0.04743 -5.4442,1.26156 -8.76132,1.75772c-0.76284,0.1141 -1.56536,-0.24097 -2.31337,-0.05276c-2.48455,0.62515 -4.68432,2.22065 -7.20595,2.67365c-0.75498,0.13563 -1.56361,-0.28344 -2.30014,-0.06919c-1.26343,0.36752 -2.24871,1.4688 -3.53066,1.76533c-0.68728,0.15897 -5.87621,0.13376 -7.32742,0.13376c-6.17866,0 -12.35731,0 -18.53597,0c-2.88528,0 -5.96046,0.25576 -8.82665,0c-0.27468,-0.02451 -0.51757,-0.55078 -0.73458,-0.3806c-1.11101,0.87125 -1.87695,2.10968 -2.81542,3.16452c-0.58037,0.05498 -1.21908,-0.09453 -1.74112,0.16494c-0.19037,0.09462 0.40439,0.29895 0.3824,0.5104c-0.09779,0.9405 -0.60747,1.80487 -0.72073,2.74364c-0.45992,3.81211 1.08071,8.63905 -0.17708,12.31265c-2.03799,5.95233 -11.64566,10.11816 -7.52223,17.22541c0.66544,1.14697 1.72762,2.07648 2.86228,2.76271zM692.16336,351.95849c-3.82603,-5.23494 -4.69371,-11.94335 -1.05215,-18.38584c0.91344,-1.61602 2.11107,-3.06023 3.29962,-4.48614c1.03744,-1.24462 2.94342,-1.91578 3.40514,-3.4689c0.36599,-1.2311 -0.21454,-2.56272 -0.21454,-3.84707c0,-4.99804 -0.41757,-11.8084 3.2298,-15.89285c0.86556,-0.96928 2.36992,-1.06692 3.55487,-1.60039c1.4153,-1.29893 2.5179,-3.05757 4.2459,-3.8968c0.98517,-0.47846 6.69883,-0.3806 8.09207,-0.3806c6.7671,0 13.5342,0 20.3013,0c2.16942,0 6.42954,0.72181 8.56055,0.13376c1.26839,-0.35001 2.26395,-1.40927 3.53066,-1.76533c0.96162,-0.2703 2.0081,0.07951 2.99585,-0.06919c2.43823,-0.36708 4.52395,-2.02697 6.91669,-2.62234c0.96494,-0.2401 1.9972,0.08035 2.98262,-0.05276c3.16981,-0.42817 5.61865,-1.73381 8.89198,-1.77294c5.55272,-1.23394 13.23986,-3.09714 19.14442,-1.70497c2.3999,0.56585 4.46916,2.32353 6.91669,2.62234c1.16821,0.14262 2.37142,-0.20302 3.53066,0c2.35734,0.41284 4.35527,1.98578 6.51785,3.01086c1.84538,0.87473 4.2907,-0.16772 6.0693,0.83584c2.15055,1.21342 3.81661,3.15879 5.48395,4.98011c1.56056,1.70467 2.06154,4.13994 3.21018,6.1454c0.73115,1.27655 1.91805,2.25342 2.648,3.53066c0.40429,0.70741 0.25348,1.66299 0.70702,2.33987c0.72939,1.08857 2.09904,1.67352 2.74574,2.81316c0.67813,1.19501 0.55865,2.71034 1.10424,3.97139c1.2643,2.92226 3.01029,6.03627 4.46015,8.936c0.71813,2.14835 0.68216,4.52488 1.55431,6.61545c1.01522,2.43353 6.65016,3.90299 7.94399,6.17866c1.9772,3.47762 0.06363,9.19518 0.52706,13.03302c0.3439,2.84796 2.87217,2.70789 4.33409,4.82726c2.5188,3.65156 1.90913,7.76649 1.90913,11.86162c0,6.42855 0.86231,13.30403 -4.61303,18.09617c-0.90773,0.79446 -2.24162,0.89202 -3.36243,1.33803c-1.42335,0.98751 -2.63146,2.40028 -4.27005,2.96252c-1.64509,0.56446 -9.79286,0.73679 -11.74246,0.07516c-2.3252,-0.7891 -4.08528,-3.15984 -6.52756,-3.4138c-3.43865,-0.35757 -7.20619,0.06456 -10.67374,0.06456c-1.97136,0 -4.02281,-0.6951 -5.91256,-0.13376c-2.17795,0.64696 -3.69116,2.83539 -5.8785,3.44988c-3.70507,1.04086 -9.91531,0.41995 -13.80623,0.21454c-1.52363,-0.08044 -3.16627,0.23706 -4.56141,-0.3806c-2.65535,-1.17559 -4.47546,-3.73351 -6.95089,-5.25178c-6.55438,-1.22404 -11.68375,-4.30795 -18.58007,-3.25883c-0.91983,0.13993 -1.72564,0.76047 -2.648,0.88267c-0.95385,0.12636 -1.95906,-0.41973 -2.88265,-0.14998c-1.01829,0.29741 -1.62119,1.49881 -2.648,1.76533c-2.26459,0.58781 -4.70353,-0.17406 -7.01666,0.17708c-1.19937,0.18207 -2.32917,0.71517 -3.53066,0.88267c-0.69737,0.09722 -1.4342,-0.29344 -2.11015,-0.09629c-3.86235,1.1265 -7.65463,4.12233 -11.47465,5.29599c-0.5702,0.17519 -6.622,0.13376 -7.32742,0.13376c-3.62797,0 -7.23019,-0.03006 -10.85808,-0.13376c-2.64774,-1.24877 -6.38394,-2.67989 -8.56542,-4.86137c-2.15636,-2.15636 -2.90103,-4.6316 -4.31968,-7.20456c-0.69619,-1.26265 -1.82188,-2.32471 -2.22624,-3.70871c-0.24747,-0.84702 0.7295,-1.81129 0.37709,-2.62029c-0.24899,-0.57157 -1.31652,-0.16678 -1.77516,-0.58909c-0.6244,-0.57493 -0.61473,-1.66422 -1.26476,-2.21c-1.05869,-0.88889 -2.94531,-0.755 -3.66924,-1.93265c-0.98644,-1.60469 -0.79075,-3.69413 -0.94379,-5.57155c-0.49579,-6.08207 0.73034,-10.30857 6.3339,-13.31823c1.24976,-0.67124 2.64212,-1.10823 4.04384,-1.32653c0.39866,-0.06209 0.76958,0.77275 1.08962,0.52706c0.45144,-0.34656 0.54523,-1.02765 0.74787,-1.59294z" fill="#000000"/><path d="M675.49189,347.49333c-2.7735,-4.16025 1.38675,-6.93375 1.38675,-6.93375l3.39873,-2.17765c1.6475,-0.42421 3.26257,-1.00428 4.94251,-1.27263c1.50575,-0.24053 3.17683,0.75875 4.57224,0.14396c4.12733,-1.8184 7.22043,-4.39239 11.86378,-5.3872c0.28102,-0.06021 2.0682,-0.08132 3.81485,-0.08822c0.80203,-1.04852 1.47542,-2.1292 1.86794,-3.27563c1.25779,-3.6736 -0.27952,-8.50932 0.1804,-12.32143c0.11326,-0.93877 0.62394,-1.80505 0.72172,-2.74556c0.02198,-0.21145 -0.57267,-0.41596 -0.3823,-0.51058c0.52204,-0.25948 1.16112,-0.11064 1.7415,-0.16562c0.93847,-1.05484 1.70615,-2.29608 2.81715,-3.16733c0.21701,-0.17018 0.45993,0.35603 0.73462,0.38054c2.86619,0.25576 5.944,-0.0036 8.82928,-0.0036c6.17866,0 12.36745,-0.00955 18.54611,-0.00955c1.45121,0 6.64695,0.02117 7.33423,-0.13781c1.28195,-0.29653 2.27194,-1.39983 3.53537,-1.76735c0.73653,-0.21425 1.54784,0.20391 2.30282,0.06829c2.52162,-0.453 4.73109,-2.05046 7.21564,-2.67561c0.74801,-0.18821 1.55349,0.16665 2.31633,0.05255c3.31712,-0.49616 5.50263,-1.80442 8.77209,-1.757c3.91142,-0.86921 11.67144,-3.05213 16.1776,-1.82024c2.47131,0.6756 4.68182,2.27738 7.21232,2.67783c2.24815,0.35577 3.07112,-0.52045 4.78576,0.44127c0.98042,0.5499 1.78114,1.42948 2.82424,1.84849c1.57864,0.63413 3.26217,1.02674 4.94512,1.27551c0.45788,0.06768 0.948,-0.57931 1.34583,-0.34274c2.16184,1.28553 2.59176,4.64724 3.66697,6.53309c0.72864,1.27798 1.92009,2.25669 2.6499,3.534c0.51922,0.90874 0.48088,2.08646 1.0595,2.95858c0.65591,0.98862 1.95898,1.45751 2.55135,2.48546c0.5259,0.91261 0.25073,2.1228 0.66199,3.09248c0.58646,1.38275 1.31621,2.84308 2.07143,4.30009c1.74963,-0.04163 3.4844,-0.0171 5.01982,0.23177c2.97246,0.48179 5.42522,2.61675 8.17383,3.8467c1.29005,0.57727 2.8546,0.44817 4.08074,1.15106c1.29292,0.74118 2.17437,2.03865 3.26156,3.05797l3.90874,2.30156c0,0 4.28746,2.57248 1.71499,6.85994c-2.57248,4.28746 -6.85994,1.71499 -6.85994,1.71499l-4.91791,-2.99443c-0.67814,-0.74601 -1.15808,-1.7396 -2.03443,-2.23802c-0.88177,-0.50151 -2.05246,-0.20486 -2.98058,-0.61427c-2.02046,-0.89125 -3.64019,-2.89808 -5.81336,-3.19822c0.18053,0.62979 0.4088,1.24078 0.72039,1.81946c1.04947,1.94904 4.68843,5.10085 6.93077,6.21896c0.30241,0.15079 0.72342,-0.20965 1.01313,-0.03571c0.18813,0.11296 -0.55805,0.07209 -0.59164,0.28894c-0.18015,1.16302 -0.00024,2.35631 -0.00024,3.53319c0,3.59261 -0.306,6.78318 1.3898,10.14746c1.08086,2.14431 3.04444,3.7678 4.93069,5.25387c0.82399,0.64917 -0.13182,2.09658 -0.14441,3.1455c-0.03529,2.93907 -0.04414,5.89231 -0.00193,8.83128c0.00923,0.64244 0.20745,3.45626 -0.684,3.97251c-0.5712,0.33079 -1.28941,0.28555 -1.93393,0.42799c-0.93042,0.77783 -1.68151,1.84864 -2.79232,2.33528c-1.4059,0.61591 -3.06498,-0.32562 -4.59827,-0.25539c-0.44147,0.02022 -0.90922,0.36008 -1.31364,0.1819c-2.57013,-1.13234 -4.82323,-3.19746 -7.59556,-3.64681c-3.83756,-0.62201 -8.37084,-0.05988 -12.27923,-0.05988c-0.32849,0 -7.5533,-0.04803 -8.21379,0.13752c-1.73557,0.48757 -3.32078,1.43249 -4.89542,2.31024c-0.59818,0.33344 -0.93242,1.11057 -1.58891,1.30558c-1.88061,0.55863 -6.3479,-0.21094 -8.26656,-0.21094c-0.88267,0 -1.77322,-0.09761 -2.65035,0.00108c-0.27404,0.03084 -0.51119,0.54151 -0.73541,0.38095c-0.66839,-0.47865 -0.82564,-1.47837 -1.48502,-1.96936c-1.76753,-1.31613 -3.79661,-2.24539 -5.69241,-3.36892c-4.27442,-0.90257 -8.24305,-3.08128 -12.49332,-3.80083c-3.1727,-0.53712 -8.18854,-0.42944 -11.32656,-0.00356c-0.92196,0.12512 -1.73061,0.74239 -2.65055,0.88154c-1.37811,0.20846 -2.8408,-0.2287 -4.18277,0.1478c-1.02139,0.28656 -1.64133,1.43398 -2.64936,1.76449c-1.69254,0.55495 -3.57968,-0.41918 -5.34474,-0.17998c-2.242,0.30384 -4.54231,0.36222 -6.71997,0.97596c-3.97903,1.12144 -7.65346,3.85565 -11.47725,5.29333c-1.56992,0.59027 -3.35437,-0.13573 -5.0316,-0.13573c-2.86307,0 -5.70476,-0.02961 -8.56274,0.13088c-4.04396,-2.28056 -4.1071,-3.30722 -6.53692,-7.35825c-0.35226,-0.58729 -1.12102,-0.92881 -1.30502,-1.58847c-0.39917,-1.43104 0.31542,-3.12978 -0.37825,-4.44357c-0.71404,-1.35238 -2.46269,-1.84086 -3.52181,-2.94406c-0.88381,-0.9206 -1.2456,-2.32267 -2.26665,-3.08824c-0.17638,-0.13225 -0.40142,-0.17888 -0.63709,-0.16765c-0.08921,-1.21083 -1.03462,-2.6477 -0.19032,-3.4181c1.33953,-1.22228 5.38163,-0.76591 6.3298,-1.27435c1.06768,-0.57252 1.18939,-2.21736 2.18785,-2.90353c0.05219,-0.03587 0.58904,-0.07519 1.16805,-0.08156c0.17949,0.01451 0.36621,0.02196 0.56051,0.02196c0.20239,0 0.39658,-0.00827 0.58292,-0.024c1.0078,0.00507 1.89623,0.04638 1.96781,0.04719c0,0 4.99935,-0.0031 4.99935,-5.0031c0,-4.03506 -3.25693,-4.81832 -4.5138,-4.96861l-0.36135,-0.96231c-1.13466,-0.68623 -2.19694,-1.61801 -2.86238,-2.76498c-0.43549,-0.75062 -0.7178,-1.46859 -0.87203,-2.15944c-2.14435,1.17387 -4.19612,2.53239 -6.48119,3.30787c-2.32947,0.79055 -5.62251,0.05159 -8.13855,0.63666l-1.89726,1.35301c0,0 -4.16025,2.7735 -6.93375,-1.38675z" fill="#ffb900"/><path d="M722.2275,310.04096c-0.03833,-0.18943 -0.05944,-0.39803 -0.05944,-0.62774c0,-2.5 2.5,-2.5 2.5,-2.5c1.36992,0.1573 3.00041,-0.34709 4.10977,0.47189c0.63104,0.46587 0.95947,1.19019 1.21013,1.97009c0.27178,0.28011 0.49987,0.67202 0.63612,1.21701c0.13763,0.55054 0.11906,1.00735 0.0081,1.38462c-0.01556,0.37987 -0.04373,0.75722 0.21698,0.98461c0.62496,0.54511 1.74909,0.14694 2.39771,0.66367c0.80626,0.64232 0.83339,2.01475 1.68797,2.59122c0.87523,0.59041 2.1316,0.2239 3.10192,0.63992c2.84035,1.21778 3.68442,3.02084 6.39208,4.5202c3.90462,2.16218 9.7709,3.48728 13.02338,6.72266c0.7912,0.78704 0.65274,2.15407 1.20623,3.12313c0.79426,1.39063 2.17747,2.42707 2.80526,3.90036c0.36215,0.84989 -0.2688,1.89969 0.03758,2.77123c0.90123,2.56369 3.53941,4.14492 5.01933,6.42408c0.60262,0.92807 1.27914,3.7695 1.61947,5.08308c2.04928,1.20345 3.96993,2.99884 6.35767,3.46309c1.2222,0.23763 2.68141,-0.263 3.70932,0.43961c0.86461,0.59099 0.45345,2.16249 1.18866,2.90833c0.52796,0.5356 1.5688,0.10663 2.19456,0.52381c0.3732,0.2488 5.86119,5.73338 6.10829,6.10829c1.37434,2.08521 3.15644,8.06538 3.78277,10.25447c0.46308,1.61853 1.29378,3.32727 0.91322,4.96717c-0.30308,1.306 -2.09923,1.76386 -2.74758,2.93737c-0.76446,1.38366 0.51033,3.19871 0.15802,4.73974c-0.32063,1.40246 -0.56534,2.99803 -1.58262,4.01531c-1.49704,1.49704 -6.70308,2.39361 -8.52553,1.143c-1.17609,-0.80706 -1.28778,-2.55148 -1.7926,-3.88553c-0.20701,-0.54707 0.12481,-1.35553 -0.32989,-1.72349c-0.83801,-0.67814 -2.04478,-0.68368 -3.06716,-1.02552c-12.06008,0.13806 -24.41427,-0.74239 -36.29371,0.90904c-2.89183,0.40201 -5.93848,-0.3739 -8.82665,0c-4.13858,0.53578 -7.90039,3.55204 -11.65139,5.10101c-4.3875,1.81181 -7.57961,1.05522 -11.95245,-0.11079c-2.79308,-2.70045 -5.42146,-5.49654 -7.1927,-9.02111c-1.0893,-2.16758 -2.18407,-4.36581 -2.83533,-6.70265c-0.18394,-0.66002 0.596,-1.46417 0.22894,-2.04273c-0.50335,-0.79339 -1.87624,-0.66885 -2.43058,-1.42749c-1.94261,-2.65854 -2.28529,-8.72495 0.219,-11.22924c1.53586,-1.53586 4.28017,-0.81646 6.3393,-1.50763c1.97343,-0.66241 3.55702,-2.44487 5.62,-2.72298c0.5439,-0.07332 1.07656,0.64205 1.58668,0.43961c0.31843,-0.12637 -0.11109,-0.67797 -0.12328,-1.02035c-0.05611,-1.5768 0.22625,-3.92355 -0.59045,-5.42912c-0.97203,-1.79192 -4.005,-1.61304 -5.1486,-3.30063c-0.77355,-1.14151 -0.3146,-2.73985 -0.47189,-4.10977c0,-3.98088 -0.78229,-9.06843 1.20717,-12.70639c1.09043,-1.99398 3.37682,-3.18701 4.37627,-5.22812c0.69679,-1.423 1.05001,-2.99956 1.76533,-4.41333c0.40912,-0.80858 1.2869,-1.35289 1.58516,-2.20858c0.37356,-1.07173 -0.38509,-2.53322 0.36462,-3.38531c1.69522,-1.92671 5.01392,-1.11142 7.4823,-1.81362c0.92515,-0.26319 1.47607,-1.28213 2.36107,-1.65889c0.67293,-0.28648 1.38361,-0.46212 2.10148,-0.61664z" fill="#e0a400"/><path d="M738.93869,339.42384c0,-1.38071 1.11929,-2.5 2.5,-2.5c1.38071,0 2.5,1.11929 2.5,2.5c0,1.38071 -1.11929,2.5 -2.5,2.5c-1.38071,0 -2.5,-1.11929 -2.5,-2.5z" fill="#ffffff"/><path d="M774.2453,338.54117c0,-1.38071 1.11929,-2.5 2.5,-2.5c1.38071,0 2.5,1.11929 2.5,2.5c0,1.38071 -1.11929,2.5 -2.5,2.5c-1.38071,0 -2.5,-1.11929 -2.5,-2.5z" fill="#ffffff"/></g></g></svg>