<svg version="1.1" xmlns="http://www.w3.org/2000/svg" xmlns:xlink="http://www.w3.org/1999/xlink" width="119.82256" height="77.66417" viewBox="0,0,119.82256,77.66417"><g transform="translate(-693.51734,-330.25627)"><g stroke="none" stroke-width="0.5" stroke-miterlimit="10"><path d="M708.71957,341.65133c1.64682,-0.54399 3.26184,-1.19964 4.85375,-1.87782c3.49372,-1.48837 7.44204,-2.25957 10.84458,-3.92986c1.19899,-0.58858 2.10812,-1.74598 3.38107,-2.15046c1.16647,-0.37064 6.11252,0.10266 7.324,-0.07499c1.04294,-0.15293 1.95963,-0.83045 3,-1c0.88073,-0.14353 1.83093,0.36159 2.676,0.07499c1.13817,-0.38601 1.85314,-1.64061 3,-2c1.8477,-0.57902 8.60319,-0.58614 10.44892,0c1.2705,0.40347 2.17863,1.5568 3.37392,2.14694c2.98789,1.47519 6.04396,3.0153 9.21595,4.11916c2.40156,2.65679 3.96181,1.62663 7.68567,1.62663c3.66667,0 7.33333,0 11,0c0.77435,0 6.41266,-0.03383 6.79057,0.12829c1.90337,0.81651 3.52338,2.22785 5.02556,3.65367c0.77797,0.73842 0.87056,2.05283 1.70135,2.73127c0.9882,0.807 2.74257,0.50623 3.51062,1.52499c0.70561,0.93594 -0.24597,2.45839 0.28159,3.50507c0.57946,1.14965 2.09557,1.57603 2.81693,2.64238c0.59062,0.87309 0.47052,2.08854 1,3c2.05675,3.54056 5.64523,4.19446 6.34109,8.91387c0.76536,5.19074 0.03228,11.13266 0.03228,16.40046c0,1.17667 0.08622,6.71933 -0.37337,7.31433c-2.15967,2.79597 -6.69372,2.31854 -9.8639,3.87789c-1.13026,0.55595 -1.67735,1.89062 -2.63674,2.70678c-1.39366,1.1856 -2.80747,2.38149 -4.40117,3.28041c-2.51944,1.4211 -5.52838,1.77666 -8.11928,3.06286c-1.10719,0.54964 -1.9582,1.55659 -3.09415,2.04401c-1.26301,0.54194 -2.73654,0.45911 -4,1c-2.24818,0.96246 -4.20269,2.75592 -6.61093,3.18143c-2.67772,0.47313 -9.73685,0.51853 -12.00015,-0.04071c-4.46054,-1.10216 -9.75656,-5.03933 -13.83845,-7.20091c-3.73413,-1.97742 -7.16688,-2.68313 -10.66024,-4.98031c-1.99481,-0.66494 -3.64525,-2.14756 -5.62608,-2.85306c-1.65692,-0.59014 -3.51666,0.10727 -5.27554,0.10727c-3.99983,0 -8.00021,0.01374 -12,0c-3.50689,-0.01204 -5.14943,0.41466 -8.31433,-1.37337c-0.82087,-0.46375 -1.19232,-1.51364 -2,-2c-2.82733,-1.70255 -4.78611,0.23936 -6.88986,-3.94698c-0.82562,-1.64293 0.29573,-3.74312 -0.2051,-5.51231c-0.44135,-1.55906 -1.97861,-2.627 -2.53029,-4.15052c-2.01127,-5.55442 -0.56043,-13.69432 -0.56043,-19.51681c0,-1.58804 -0.01874,-8.33722 0.10727,-8.72446c0.5686,-1.74744 2.14206,-2.98648 3.21309,-4.47973c3.87153,-0.2226 7.5615,-0.99734 11.37578,-1.23042zM704.0803,347.19239c-1.42622,0.15231 -2.86665,0.23745 -4.37722,0.09774c-1.78831,3.45491 -0.67964,9.92809 -0.67964,13.79581c0,3.64524 -1.06775,9.41237 0.29462,12.90826c0.62203,1.59616 2.16756,2.7707 2.61467,4.42441c0.39084,1.44555 -0.65052,3.05801 -0.2051,4.48769c0.54603,1.75262 3.53465,1.11087 5.11014,2.05302c1.39467,0.83402 2.47089,2.48089 4.08613,2.65891c5.04348,0.55585 10.50668,-0.03228 15.59954,-0.03228c0.78339,0 6.29602,-0.02879 6.72446,0.10727c2.25834,0.71718 4.12603,2.39765 6.37392,3.14694c3.45825,2.33983 7.00103,3.06336 10.79221,5.0473c2.95339,1.54552 5.9116,3.08212 8.84918,4.65746c1.29281,0.6933 2.43578,1.76213 3.85992,2.11402c1.42414,0.35189 2.93341,-0.05852 4.40031,-0.07299c1.86646,-0.01841 3.75424,0.31305 5.59954,0.03228c2.00415,-0.30493 3.52607,-2.01929 5.38907,-2.81857c1.26304,-0.54187 2.73651,-0.45918 4,-1c1.07341,-0.45946 1.85835,-1.44019 2.90585,-1.95599c2.51504,-1.23843 5.43423,-1.56824 7.88072,-2.93714c2.72626,-1.52543 4.36951,-4.6398 7.15628,-6.05164c2.44143,-1.23688 6.13726,-0.02568 7.9419,-2.08328c0.37948,-0.43267 -0.32766,-1.11198 -0.37337,-1.68567c-0.07943,-0.99684 0,-2 0,-3c0,-3.66657 -0.01376,-7.33346 0,-11c0.00459,-1.22261 0.50967,-5.09051 -0.62663,-6.68567c-1.19781,-1.68151 -3.89008,-3.19794 -5,-5c-0.55279,-0.89751 -0.42061,-2.11942 -1,-3c-0.84768,-1.28834 -2.49806,-1.9759 -3.18307,-3.35762c-0.37174,-0.74983 0.7809,-1.82326 0.28159,-2.49493c-0.50398,-0.67796 -1.82389,0.04533 -2.48938,-0.47501c-2.02272,-1.58155 -2.91247,-4.60501 -5.27309,-5.61506c-1.59696,-0.6833 -3.47243,0.12829 -5.20943,0.12829c-4.99187,0 -10.00916,0.11937 -15,0c-1.32005,-0.03157 -2.72071,0.27428 -3.95671,-0.1903c-1.00256,-0.37683 -1.57175,-1.45538 -2.35762,-2.18307c-3.00535,-0.95086 -5.98947,-2.46367 -8.78405,-3.88084c-0.95551,-0.48455 -1.61683,-1.4936 -2.62608,-1.85306c-1.65692,-0.59014 -3.51703,0.14303 -5.27554,0.10727c-0.7592,-0.01544 -1.56079,-0.3637 -2.27554,-0.10727c-1.13125,0.40586 -1.85805,1.62531 -3,2c-1.05305,0.34552 -2.23139,-0.11074 -3.324,0.07499c-1.03919,0.17665 -1.95602,0.85438 -3,1c-2.20413,0.30745 -4.5794,-0.82131 -6.676,-0.07499c-1.00684,0.3584 -1.66227,1.37311 -2.61893,1.84954c-3.31804,1.65244 -7.14992,2.45881 -10.60654,3.84376c-0.05669,2.41397 -2.499,2.41397 -2.499,2.41397l-2.99216,-0.00001c-0.31816,0.00072 -0.63325,0.0089 -0.9458,0.02304c-1.17638,0.36639 -2.36664,0.68241 -3.57175,0.92842c0,0 -1.0666,0.21332 -1.93342,-0.345z" fill="#3f3a32"/><path d="M705.96816,347.5168c1.20511,-0.24601 2.39638,-0.56415 3.57276,-0.93054c0.31255,-0.01414 0.62785,-0.02273 0.94601,-0.02345l2.99288,-0.00131c0,0 2.44424,-0.00316 2.50092,-2.41713c3.45661,-1.38495 7.29597,-2.20017 10.61401,-3.85261c0.95666,-0.47643 1.61517,-1.4938 2.622,-1.85221c2.0966,-0.74632 4.47795,0.37829 6.68208,0.07084c1.04398,-0.14562 1.96478,-0.82542 3.00396,-1.00206c1.09261,-0.18573 2.27516,0.2688 3.32821,-0.07672c1.14195,-0.37469 1.8736,-1.59561 3.00485,-2.00147c0.71475,-0.25643 1.51948,0.09116 2.27868,0.1066c1.75851,0.03576 3.62637,-0.69819 5.28329,-0.10805c1.00925,0.35946 1.67464,1.36858 2.63015,1.85313c2.79458,1.41717 5.79364,2.9332 8.79899,3.88406c0.78587,0.72769 1.35981,1.80834 2.36237,2.18518c1.236,0.46458 2.64177,0.16172 3.96182,0.19329c4.99084,0.11937 10.01952,0.01046 15.01139,0.01046c1.737,0 3.61454,-0.80879 5.21151,-0.12549c2.36062,1.01005 3.25442,4.04057 5.27714,5.62212c0.66549,0.52034 1.98602,-0.20157 2.49,0.47639c0.4993,0.67167 -0.65247,1.74721 -0.28073,2.49704c0.68501,1.38172 2.33674,2.07335 3.18443,3.3617c0.57939,0.88058 0.44798,2.10555 1.00077,3.00307c1.10992,1.80206 3.80307,3.32393 5.00087,5.00543c1.1363,1.59516 0.63148,5.46923 0.62689,6.69184c-0.01376,3.66654 -0.00117,7.34326 -0.00117,11.00984c0,1 -0.08006,2.00568 -0.00063,3.00252c0.04571,0.57369 0.75248,1.25428 0.373,1.68695c-1.80464,2.05759 -5.5019,0.85043 -7.94332,2.0873c-2.78678,1.41184 -4.43405,4.53411 -7.16031,6.05954c-2.44649,1.36889 -5.37039,1.70506 -7.88544,2.94349c-1.0475,0.5158 -1.83525,1.49948 -2.90866,1.95895c-1.26349,0.54082 -2.74033,0.46112 -4.00337,1.00299c-1.863,0.79927 -3.39125,2.518 -5.3954,2.82294c-1.84531,0.28077 -3.73905,-0.04774 -5.6055,-0.02933c-1.4669,0.01447 -2.9817,0.42681 -4.40584,0.07492c-1.42414,-0.35189 -2.57189,-1.41962 -3.86469,-2.11291c-2.93758,-1.57534 -5.91052,-3.11149 -8.8639,-4.65701c-3.79119,-1.98394 -7.35507,-2.715 -10.81332,-5.05483c-2.24789,-0.7493 -4.12546,-2.43807 -6.38381,-3.15524c-0.42844,-0.13606 -5.94548,-0.1128 -6.72887,-0.1128c-5.09287,0 -10.56068,0.57982 -15.60415,0.02397c-1.61524,-0.17802 -2.69295,-1.82874 -4.08762,-2.66276c-1.57549,-0.94215 -4.56508,-0.3036 -5.11112,-2.05622c-0.44542,-1.42968 0.59504,-3.04612 0.20421,-4.49167c-0.44711,-1.65371 -1.99324,-2.83263 -2.61527,-4.4288c-1.36236,-3.49589 -0.2943,-9.27479 -0.2943,-12.92002c0,-3.86773 -1.10555,-10.35241 0.68276,-13.80732c1.51057,0.13972 2.95163,0.0531 4.37784,-0.09921c0.86682,0.55832 1.9336,0.34459 1.9336,0.34459z" fill="#d2c1a6"/></g></g></svg>