<svg version="1.1" xmlns="http://www.w3.org/2000/svg" xmlns:xlink="http://www.w3.org/1999/xlink" width="155" height="157" viewBox="0,0,155,157"><g transform="translate(-677.5,-281.5)"><g stroke="#000000" stroke-width="5" stroke-miterlimit="10"><path d="M830,360c0,41.97364 -33.57864,76 -75,76c-41.42136,0 -75,-34.02636 -75,-76c0,-41.97364 33.57864,-76 75,-76c41.42136,0 75,34.02636 75,76z" fill="#009cff" stroke-linecap="butt"/><path d="M703.91228,306.3443l19,-15.5l29,-5.5l29.5,4l26,16l15.5,29.5l-137,-2z" fill="#000000" stroke-linecap="round"/><path d="M682.91228,351.8443l6,-15l136,1l4,16l-3.5,20.5l-144.5,-2z" fill="#000000" stroke-linecap="round"/><path d="M699.41228,409.8443l109.5,1.5l18,-32l-141,-4.5z" fill="#000000" stroke-linecap="round"/></g></g></svg>