<svg version="1.1" xmlns="http://www.w3.org/2000/svg" xmlns:xlink="http://www.w3.org/1999/xlink" width="293.38923" height="269.75976" viewBox="0,0,293.38923,269.75976"><g transform="translate(-608.30539,-214.60962)"><g stroke-miterlimit="10"><path d="M613.30539,479.36938v-259.75976h283.38923v259.75976z" fill="#fffe00" stroke="#000000" stroke-width="10"/><text transform="translate(631.26404,333.16224) scale(0.9519,0.9519)" font-size="40" xml:space="preserve" fill="#ffffff" stroke="none" stroke-width="1" font-family="Handwriting" font-weight="normal" text-anchor="start"><tspan x="0" dy="0">BALEIA-AZUL</tspan></text><text transform="translate(627.73089,406.39192) scale(1.23887,1.23887)" font-size="40" xml:space="preserve" fill="#ffffff" stroke="none" stroke-width="1" font-family="Handwriting" font-weight="normal" text-anchor="start"><tspan x="0" dy="0">LENDARIO</tspan></text><path d="M789.06732,357.50726c2.14373,1.28624 0.85749,3.42997 0.85749,3.42997l-1.89083,2.95761c-2.22283,1.15824 -4.6017,2.12646 -7.07053,2.55931c0,0 -2.46598,0.411 -2.87698,-2.05499c-0.411,-2.46598 2.05499,-2.87698 2.05499,-2.87698c1.54093,-0.23966 3.07805,-0.6453 4.49528,-1.29596l1.00062,-1.86148c0,0 1.28624,-2.14373 3.42997,-0.85749z" fill="#ffffff" stroke="none" stroke-width="0.5"/></g></g></svg>